<?xml version="1.0" encoding="iso-8859-1"?>
<!-- Generator: Adobe Illustrator 19.0.0, SVG Export Plug-In . SVG Version: 6.00 Build 0)  -->
<svg xmlns="http://www.w3.org/2000/svg" xmlns:xlink="http://www.w3.org/1999/xlink" version="1.1" id="Capa_1" x="0px" y="0px" viewBox="0 0 512.004 512.004" style="enable-background:new 0 0 512.004 512.004;" xml:space="preserve" width="512px" height="512px">
<g>
	<g>
		<path d="M419.014,307.45l15.283-30.575l2.705-5.402c15.531-31.07,15.531-68.147,0-99.217l-18.867-37.734V0.002H93.869v134.519    l-18.867,37.743c-15.531,31.07-15.531,68.147,0,99.217l2.705,5.402l15.283,30.575l-17.408,40.038    c-15.991,36.762-15.991,78.925,0,115.686l21.222,48.819H415.2l21.222-48.828c15.991-36.762,15.991-78.925,0-115.686    L419.014,307.45z M90.609,264.535l-0.35-0.691c-13.141-26.283-13.141-57.668,0-83.951l20.676-41.344V17.069h290.133v121.481    l20.668,41.344c13.141,26.283,13.141,57.668,0,83.951l-0.341,0.691H90.609z M247.469,494.935H108l-16.768-38.562    c-14.106-32.444-14.106-69.641,0-102.084L108,315.735h0.717c62.763,0,117.897,42.359,134.067,103.006    c3.106,11.665,4.685,23.697,4.685,35.772V494.935z M108.717,298.669h-1.041l-8.533-17.067h313.719l-8.533,17.067h-1.033    c-66.731,0-125.773,42.624-147.285,104.969C234.49,341.301,175.447,298.669,108.717,298.669z M420.772,456.382l-16.768,38.554    H264.535v-40.431c0-12.066,1.579-24.09,4.693-35.763c16.171-60.646,71.296-103.006,134.067-103.006h0.717l16.759,38.562    C434.878,386.741,434.878,423.938,420.772,456.382z" fill="#FFFFFF"/>
	</g>
</g>
<g>
	<g>
		<rect x="247.469" y="179.202" width="17.067" height="17.067" fill="#FFFFFF"/>
	</g>
</g>
<g>
	<g>
		<path d="M51.202,153.602H29.135l11.034-11.034c3.337-3.337,3.337-8.73,0-12.066c-3.336-3.337-8.73-3.337-12.066,0l-25.6,25.6    c-3.336,3.337-3.336,8.73,0,12.066l25.6,25.6c1.664,1.664,3.849,2.5,6.033,2.5c2.185,0,4.369-0.836,6.033-2.5    c3.337-3.337,3.337-8.73,0-12.066l-11.034-11.034h22.067c4.71,0,8.533-3.814,8.533-8.533S55.913,153.602,51.202,153.602z" fill="#FFFFFF"/>
	</g>
</g>
<g>
	<g>
		<path d="M509.502,156.102l-25.6-25.6c-3.337-3.337-8.73-3.337-12.066,0c-3.337,3.336-3.337,8.73,0,12.066l11.034,11.034h-22.067    c-4.71,0-8.533,3.814-8.533,8.533s3.823,8.533,8.533,8.533h22.067l-11.034,11.034c-3.337,3.337-3.337,8.73,0,12.066    c1.664,1.664,3.849,2.5,6.033,2.5c2.185,0,4.369-0.836,6.033-2.5l25.6-25.6C512.838,164.832,512.838,159.439,509.502,156.102z" fill="#FFFFFF"/>
	</g>
</g>
<g>
</g>
<g>
</g>
<g>
</g>
<g>
</g>
<g>
</g>
<g>
</g>
<g>
</g>
<g>
</g>
<g>
</g>
<g>
</g>
<g>
</g>
<g>
</g>
<g>
</g>
<g>
</g>
<g>
</g>
</svg>
