<?xml version="1.0" encoding="iso-8859-1"?>
<!-- Generator: Adobe Illustrator 19.0.0, SVG Export Plug-In . SVG Version: 6.00 Build 0)  -->
<svg xmlns="http://www.w3.org/2000/svg" xmlns:xlink="http://www.w3.org/1999/xlink" version="1.1" id="Capa_1" x="0px" y="0px" viewBox="0 0 512 512" style="enable-background:new 0 0 512 512;" xml:space="preserve" width="512px" height="512px">
<g>
	<g>
		<g>
			<rect x="80" y="128" width="128" height="32" fill="#FFFFFF"/>
			<rect x="80" y="192" width="64" height="32" fill="#FFFFFF"/>
			<rect x="176" y="192" width="32" height="32" fill="#FFFFFF"/>
			<path d="M512,144v-32h-34.272c-1.485-5.729-3.775-11.218-6.8-16.304l24.256-24.256L472.56,48.816l-24.256,24.256     c-5.086-3.025-10.575-5.315-16.304-6.8V32h-32v34.272c-5.729,1.485-11.218,3.775-16.304,6.8L359.44,48.816L336.816,71.44     l24.256,24.256c-3.025,5.086-5.315,10.575-6.8,16.304H320v32h34.272c1.485,5.729,3.775,11.218,6.8,16.304l-24.256,24.256     l22.624,22.624l24.256-24.256c5.086,3.025,10.575,5.315,16.304,6.8V224h32v-34.272c5.729-1.485,11.218-3.775,16.304-6.8     l24.256,24.256l22.624-22.624l-24.256-24.256c3.025-5.086,5.315-10.575,6.8-16.304H512z M416,160c-17.673,0-32-14.327-32-32     s14.327-32,32-32c17.673,0,32,14.327,32,32S433.673,160,416,160z" fill="#FFFFFF"/>
			<path d="M416,425.376L278.624,288l52.688-52.688l-22.624-22.624l-47.536,47.536l26.672-177.856L288,0h-64v32h32v32H32V32h96V0H0     v80l48,321.184V464c0,26.51,21.49,48,48,48h96c26.51,0,48-21.49,48-48v-62.816l13.904-92.656L393.376,448H352v32h96v-96h-32     V425.376z M208,464c0,8.837-7.163,16-16,16H96c-8.837,0-16-7.163-16-16v-48h128.128L208,464z M210.208,384H77.616L34.576,96     h218.848L210.208,384z" fill="#FFFFFF"/>
			<rect x="160" width="32" height="32" fill="#FFFFFF"/>
		</g>
	</g>
</g>
<g>
</g>
<g>
</g>
<g>
</g>
<g>
</g>
<g>
</g>
<g>
</g>
<g>
</g>
<g>
</g>
<g>
</g>
<g>
</g>
<g>
</g>
<g>
</g>
<g>
</g>
<g>
</g>
<g>
</g>
</svg>
