
<svg xmlns="http://www.w3.org/2000/svg" version="1.1" xmlns:xlink="http://www.w3.org/1999/xlink" preserveAspectRatio="none" x="0px" y="0px" width="179px" height="125px" viewBox="0 0 179 125">
<defs>
<g id="Layer0_0_FILL">
<path fill="#FFFFFF" stroke="none" d="
M 63.85 70.95
Q 63.35 70.95 63.15 71.15 62.9 71.4 62.9 71.85 62.95 75.3 62.9 79.6 62.9 80.1 63.1 80.3 63.35 80.55 63.8 80.5 64.45 80.5 67.7 80.5 71.05 80.5 71.7 80.5 72.15 80.5 72.35 80.3 72.55 80.1 72.55 79.65 72.55 75.75 72.55 71.85 72.55 71.4 72.35 71.15 72.15 70.95 71.7 70.95 67.75 70.95 63.85 70.95
M 72.35 56.75
Q 72.15 56.55 71.7 56.55 66.45 56.55 63.8 56.55 63.3 56.55 63.1 56.75 62.9 57 62.9 57.45 62.95 61.75 62.9 65.2 62.9 65.7 63.15 65.9 63.35 66.15 63.85 66.1 64.3 66.1 67.7 66.1 71 66.1 71.7 66.1 72.15 66.15 72.35 65.95 72.55 65.75 72.55 65.3
L 72.55 57.4
Q 72.55 56.95 72.35 56.75
M 63.9 28.2
Q 63.2 28.8 63 29.75 62.9 30.15 62.9 30.45 62.9 37.5 62.95 39.5 62.95 40.7 63.65 41.4 64.3 42.1 65.4 42.05 66.45 42.05 67.05 41.35 67.7 40.6 67.75 39.45 67.75 38.95 67.75 34.9
L 67.7 34.9
Q 67.75 33.3 67.75 32.5 67.75 31.05 67.7 30.05 67.7 29.15 67.05 28.45 66.4 27.75 65.5 27.7 64.6 27.65 63.9 28.2
M 86.8 71.15
Q 86.6 70.95 86.1 70.95 81.75 70.95 78.3 70.95 77.75 70.95 77.55 71.15 77.3 71.4 77.3 71.9 77.35 75.75 77.3 79.6 77.3 80.1 77.55 80.3 77.75 80.55 78.25 80.55 78.7 80.5 82.15 80.5
L 86.15 80.5
Q 86.6 80.5 86.8 80.3 87 80.1 87 79.65 87 75.3 87 71.85 87 71.35 86.8 71.15
M 87 57.4
Q 87 56.95 86.8 56.75 86.6 56.55 86.15 56.55 85.5 56.55 82.25 56.55
L 78.2 56.55
Q 77.75 56.55 77.55 56.7 77.3 56.9 77.3 57.3 77.35 61.35 77.3 65.35 77.3 66.1 78.1 66.1
L 86.2 66.1
Q 86.65 66.1 86.85 65.9 87 65.7 87 65.3 87 61.35 87 57.4
M 101.3 65.2
Q 101.3 60.9 101.3 57.45 101.3 56.95 101.1 56.75 100.85 56.55 100.35 56.55 97.15 56.55 92.7 56.55 92.2 56.55 92 56.75 91.75 56.95 91.75 57.45 91.75 61.35 91.75 65.2 91.75 65.7 91.95 65.9 92.2 66.15 92.7 66.15 93.1 66.1 96.5 66.1 99.95 66.1 100.35 66.1 100.85 66.15 101.1 65.9 101.3 65.7 101.3 65.2
M 110.95 66.1
Q 107.05 66.15 103.45 67.65 99.95 69.15 97.3 71.8 94.65 74.5 93.2 77.95 91.7 81.5 91.75 85.45 91.8 89.45 93.35 93 94.85 96.45 97.55 99.05 100.2 101.65 103.6 103.1 107.15 104.55 111 104.5 114.85 104.5 118.35 103.05 121.75 101.6 124.4 99 127.05 96.35 128.55 92.9 130.05 89.3 130.1 85.3 130.15 81.4 128.6 77.85 127.15 74.4 124.5 71.75 121.85 69.1 118.4 67.6 114.85 66.1 110.95 66.1
M 105.35 72.05
Q 108.05 70.9 110.9 70.95 113.8 70.95 116.45 72.05 119 73.1 121 75.05 123 77 124.1 79.55 125.25 82.2 125.3 85.1 125.3 88.05 124.2 90.75 123.15 93.4 121.2 95.4 119.2 97.4 116.65 98.5 114 99.65 111.1 99.7 108.2 99.7 105.5 98.6 102.95 97.55 100.95 95.6 98.95 93.65 97.8 91.15 96.6 88.55 96.55 85.75 96.5 82.7 97.65 79.95 98.75 77.25 100.75 75.2 102.75 73.15 105.35 72.05
M 115.1 85.25
Q 112.6 85.25 112.25 85.25 111.25 85.25 111.05 85.05 110.9 84.85 110.9 83.85 110.9 81.3 110.9 78.05 110.85 76.8 109.95 76.2 108.7 75.35 107.55 75.9 106.15 76.65 106.15 78.1
L 106.15 87.3
Q 106.15 88.7 106.85 89.4 107.55 90.05 108.95 90.1 110.2 90.1 113.9 90.1 114.55 90.1 115.95 90.1 117.2 90.1 118.05 90.05 119.15 90.05 119.8 89.4 120.45 88.8 120.5 87.75 120.5 86.7 119.8 86 119.1 85.25 117.95 85.25 116.85 85.25 115.1 85.25
M 106.15 32.6
Q 106.15 31.2 106.15 30.25 106.1 29.15 105.45 28.45 104.75 27.75 103.75 27.7 102.8 27.7 102.1 28.35 101.35 29.05 101.35 30.1 101.25 35.1 101.35 39.65 101.35 40.8 102.05 41.45 102.75 42.1 103.8 42.05 104.85 42.05 105.5 41.3 106.15 40.6 106.15 39.5
L 106.15 35
Q 106.15 33.4 106.15 32.6
M 101.1 43.7
Q 99.65 42.75 99.1 41 98.95 40.5 98.95 39.8 98.95 39 98.95 38.6 98.95 37.65 98.75 37.45 98.6 37.3 97.7 37.3
L 71.35 37.3
Q 70.6 37.3 70.4 37.45 70.25 37.65 70.2 38.4 70.15 38.65 70.15 39.3 70.15 39.85 70.1 40.2 69.9 42.15 68.5 43.35 67.05 44.55 65.05 44.5 63.15 44.4 61.85 43.05 60.55 41.65 60.55 39.75
L 60.5 38
Q 60.5 37.35 59.95 37.3 58.75 37.2 57.85 37.35 56.75 37.5 55.9 38.05 54.5 39 53.9 40.4 53.3 41.65 53.3 43.4 53.35 46.15 53.35 68.15
L 53.35 84
Q 53.35 85.25 53.55 86.1 53.8 87.2 54.5 88.05 56.15 90.1 58.95 90.1
L 85.9 90.1
Q 86.65 90.1 86.85 89.9 87 89.75 87 89 87.05 87.85 87 86.35 87 85.6 86.85 85.4 86.65 85.25 85.85 85.25
L 59.6 85.25
Q 58.6 85.25 58.4 85.05 58.2 84.85 58.2 83.75
L 58.2 53.05
Q 58.2 52.05 58.35 51.9 58.55 51.7 59.55 51.7
L 109.5 51.7
Q 110.5 51.7 110.7 51.9 110.9 52.1 110.9 53.15
L 110.9 60.2
Q 110.9 60.9 111.1 61.1 111.25 61.3 112 61.3 113.2 61.3 114.45 61.3 115.35 61.3 115.55 61.1 115.7 60.9 115.7 60
L 115.7 42.9
Q 115.7 42.15 115.6 41.65 115.2 39.5 113.55 38.3 111.8 37 109.15 37.3 108.5 37.35 108.5 38.05 108.5 38.65 108.5 39.85 108.45 41.65 107.25 42.95 106.1 44.25 104.4 44.45 102.55 44.65 101.1 43.7 Z"/>
</g>
</defs>

<g transform="matrix( 1, 0, 0, 1, -2.2,-3.6) ">
<use xlink:href="#Layer0_0_FILL"/>
</g>
</svg>
