
<svg xmlns="http://www.w3.org/2000/svg" version="1.1" xmlns:xlink="http://www.w3.org/1999/xlink" preserveAspectRatio="none" x="0px" y="0px" width="179px" height="125px" viewBox="0 0 179 125">
<defs>
<g id="Layer0_0_FILL">
<path fill="#FFFFFF" stroke="none" d="
M 358.45 60.75
Q 358.4 61.2 357.95 61.45 354.8 61.35 351.6 61.4 350.85 61.4 350.2 61.35 349.7 61.35 349.2 61.6 349.05 61.9 349.05 62.25 349 62.9 349 63.5 348.95 66.15 349 68.75 349 69.2 349 69.6 349 70.55 349 71.45
L 349.1 121 395.25 121
Q 395.3 120.55 395.3 120.05 395.35 116.35 395.35 112.65 395.35 103.3 395.35 93.95 395.35 93.05 395.35 92.1 395.4 77.35 395.4 62.65 395.4 62.1 395.1 61.7 394.9 61.45 394.55 61.4 392.95 61.35 391.35 61.35 389.2 61.35 387.05 61.45 386.6 61.5 386.3 61.25 385.85 60.9 385.85 60.25 385.85 60.2 385.85 60.15
L 385.8 60
Q 385.55 59.9 385.25 59.9 383.75 59.9 382.25 59.95 380.65 59.95 379 59.95 378.8 59.85 378.55 59.75 378.45 59.7 378.4 59.65 377.9 59 377.6 58.25 377.35 57.75 377 57.35 375.5 55.8 373.5 55.1 371.75 55.3 370.1 55.7 369.3 55.85 368.65 56.3 367.3 57.15 366.6 58.6 366.35 59.05 366.15 59.55 366 59.9 365.6 59.9 365.2 59.9 364.9 59.9 362.25 59.9 359.65 59.9 359.1 59.85 358.6 60
L 358.55 60.15
Q 358.5 60.45 358.45 60.75
M 354.1 74.15
Q 354.1 71.95 354.05 69.8 354.05 68.35 354.2 67 354.25 66.35 354.85 66.25 355.8 66.3 356.75 66.3 357.5 66.1 358.15 66.55 358.25 66.65 358.3 66.8 358.6 67.35 358.4 67.95 358.2 68.7 358.85 69.1 359.05 69.25 359.35 69.3 361.1 69.35 362.85 69.3 364.4 69.3 365.95 69.3 367.5 69.3 369.1 69.3 370.6 69.3 372.15 69.3 373.75 69.3 375.3 69.3 376.85 69.3 378.4 69.3 379.95 69.3 381.5 69.35 383.45 69.4 385.3 69.25 385.7 69.2 385.9 68.9 385.95 68.6 385.95 68.35 385.95 67.95 385.95 67.5 385.95 67.15 386.1 66.85 386.2 66.65 386.45 66.5 386.75 66.35 387.1 66.3 388.2 66.25 389.2 66.4 389.9 66.45 390.05 66.95 390.25 67.45 390.25 68.05 390.35 80.15 390.3 92.3 390.3 97.35 390.3 102.4 390.35 103.6 390.35 104.8 390.35 105.9 390.35 107 390.35 107.95 390.35 108.95 390.35 109.85 390.35 110.75 390.35 111.5 390.35 112.3 390.35 112.95 390.35 113.6 390.4 114.4 390.25 115.2 390.1 115.85 389.5 116 388.95 116.2 388.35 116.1 386.55 116.1 384.75 116.1 369.95 116.1 355.15 116 354.85 116 354.55 115.85 354.35 115.75 354.3 115.55 354.15 115.3 354.1 115 354.1 114.5 354.1 114.05 354.1 113.3 354.1 112.55 354.1 111.6 354.1 110.6 354.1 109.35 354.1 108.15 354.1 105.85 354.1 103.55 354.1 100.65 354.1 97.85 354.1 94.45 354.1 91 354.1 88.7 354.1 86.4 354.1 84.35 354.1 82.3 354.1 80.5 354.1 78.65 354.05 76.4 354.1 74.15
M 369.45 59.85
Q 369.55 59.7 369.7 59.5 370.7 58.05 372.5 58.15 374.15 58.4 375 59.85
L 369.45 59.85
M 381.95 94.15
Q 381.35 93.8 380.85 94.3 379.35 95.55 377.8 96.85 376.2 98.15 374.65 99.45 373 100.85 371.35 102.25 370.7 102.8 370.05 103.25 369.35 103.8 368.75 103.2 368.2 102.6 367.7 102.05 366.35 100.45 364.85 98.9 364.55 99.25 364.2 99.6 363.1 100.8 361.95 101.85 361.5 102.3 361.05 102.7 360.6 103.05 360.3 103.5 360.1 103.8 360.2 104.05 360.35 104.3 360.5 104.5 361.7 105.75 362.95 107 365.75 109.65 368.3 112.45 368.7 112.85 369.25 113 369.4 112.95 369.5 112.85 370.55 112.15 371.35 111.3 372.95 109.6 374.55 108 376.1 106.4 377.7 104.8 379.05 103.55 380.4 102.15 381.65 100.85 383 99.65 383.45 99.25 383.85 98.85 384.25 98.5 384.5 98.05 384.7 97.8 384.7 97.45 384.75 96.75 384.2 96.2 383.65 95.7 383.1 95.25 382.75 94.95 382.5 94.65 382.3 94.4 381.95 94.15
M 363.8 72.55
Q 363.05 72.8 362.55 73.4 362.15 73.9 361.7 74.35 361.2 74.95 360.75 75.55 360.45 75.85 360.7 76.2 361.5 77.15 362.35 77.95 363.9 79.4 365.35 80.9 365.9 81.45 366.55 81.95 366.95 82.35 366.95 82.85 365.1 84.65 363.25 86.5 362.45 87.3 361.6 88 361.05 88.4 360.8 89 360.7 89.2 360.7 89.45 360.8 90.1 361.25 90.6 361.75 91.15 362.35 91.7 363 92.2 363.6 92.75 363.75 92.95 364 93 364.15 93.05 364.25 92.95 365.8 91.7 367.15 90.3 368.75 88.7 370.4 87.05 370.6 86.9 370.8 86.85 371.2 86.7 371.5 87.05 372.6 88.15 373.7 89.25 375.15 90.65 376.45 92.25 376.95 92.85 377.7 93 378.05 92.9 378.35 92.7 379.25 92.15 379.8 91.4 380.35 90.75 380.95 90.2 381.35 89.85 381.25 89.4 381.2 89.2 381.05 89.05 379.65 87.6 378.15 86.1 377.4 85.35 376.65 84.65 375.85 83.95 375.15 83.05 374.9 82.7 375.2 82.3 375.7 81.7 376.3 81.1 377.1 80.35 377.85 79.6 378.5 78.8 379.3 78.2 380.1 77.55 380.75 76.9 381.55 76 380.85 75.15 380.15 74.2 379.25 73.4 378.7 72.9 378.15 72.5 377.7 72.1 377.2 72.6 376.85 72.9 376.5 73.3 375.5 74.35 374.45 75.45 372.95 77 371.35 78.45 370.85 78.85 370.4 78.35 369.7 77.6 369.05 77 367.55 75.55 366.2 74 365.55 73.25 364.8 72.65 364.35 72.25 363.8 72.55 Z"/>
</g>
</defs>

<g transform="matrix( 1.479949951171875, 0, 0, 1.479949951171875, -461.3,-67.85) ">
<use xlink:href="#Layer0_0_FILL"/>
</g>
</svg>
