
<svg xmlns="http://www.w3.org/2000/svg" version="1.1" xmlns:xlink="http://www.w3.org/1999/xlink" preserveAspectRatio="none" x="0px" y="0px" width="179px" height="125px" viewBox="0 0 179 125">
<defs>
<g id="Layer0_0_FILL">
<path fill="#FFFFFF" stroke="none" d="
M -33.8 90.6
Q -34.25 90.15 -35.5 90.2 -46.3 90.2 -84.1 90.2 -87.65 90.2 -88.2 90.8 -88.8 91.4 -88.85 94.95 -88.85 96.15 -88.45 96.55 -88.05 96.95 -86.85 96.95 -82.6 96.9 -61.25 96.9
L -38.05 96.9
Q -34.65 96.9 -34.1 96.3 -33.55 95.75 -33.45 92.25 -33.45 91.05 -33.8 90.6
M -26.35 31.15
Q -26.8 31.6 -26.8 33 -26.7 55.85 -26.7 101.5 -26.7 102.75 -27.1 103.2 -27.5 103.65 -28.75 103.65 -41.05 103.6 -84.05 103.6 -85.75 103.6 -86.6 103.6 -88.1 103.6 -89.15 103.55 -94.3 103.35 -97.2 99.1 -100.1 94.85 -98.3 90.15 -97.15 87 -94.45 85.25 -91.75 83.5 -88.15 83.5
L -35.45 83.5
Q -34.2 83.5 -34.05 83.45 -33.45 83.2 -33.45 82 -33.55 52.55 -33.5 18.85 -33.5 17.95 -33.8 17.65 -34.1 17.3 -35 17.3 -46.2 17.4 -54.2 17.3 -55.3 17.25 -55.65 17.75 -55.9 18.1 -55.9 19.15 -55.9 23.2 -55.9 43.5
L -55.9 46.1
Q -58.8 43.2 -60.2 41.85 -62.6 39.4 -64.15 37.75 -64.9 36.95 -65.4 36.9 -66 36.9 -66.8 37.7 -68.35 39.35 -70.75 41.8 -73.5 44.6 -75.05 46.1
L -75.05 19.15
Q -75.05 18 -75.05 17.9 -75.25 17.3 -76.25 17.3 -77.45 17.35 -83.3 17.35 -87.6 17.35 -90.35 17.5 -96.75 17.95 -101.1 22.65 -105.45 27.3 -105.45 33.8 -105.6 67.9 -105.45 93.55 -105.45 100.7 -100.5 105.45 -95.65 110.2 -88.4 110.2
L -55.55 110.2
Q -35.85 110.25 -22.7 110.25 -21.15 110.25 -20.7 109.85 -20.15 109.35 -20.15 107.8 -20.2 89.6 -20.2 35.05 -20.2 31.9 -20.75 31.35 -21.25 30.85 -24.5 30.7 -25.9 30.65 -26.35 31.15 Z"/>
</g>
</defs>

<g transform="matrix( 0.797637939453125, 0, 0, 0.797637939453125, 139.65,11.65) ">
<use xlink:href="#Layer0_0_FILL"/>
</g>
</svg>
