
<svg xmlns="http://www.w3.org/2000/svg" version="1.1" xmlns:xlink="http://www.w3.org/1999/xlink" preserveAspectRatio="none" x="0px" y="0px" width="179px" height="125px" viewBox="0 0 179 125">
<defs>
<g id="Layer0_0_FILL">
<path fill="#FFFFFF" stroke="none" d="
M 133.9 41.6
Q 133.9 33.45 133.9 25.3
L 133.85 25.3
Q 132.5 20.95 127.3 20.45
L 127.3 20.4
Q 124.2 20.35 121.1 20.35 121.1 16.95 121 13.55 120.9 10.45 118.2 9.8 118.15 9.8 118.1 9.8 117 9.8 115.95 9.8 113.8 10.4 113.15 12.4 113.15 12.55 113.15 12.65 113.15 12.7 113.15 12.75 113.1 12.75 113 12.75 113 16.5 113 20.25 113 20.3 113 20.35 111.75 20.35 110.5 20.35 102.4 20.35 94.25 20.35 86.15 20.35 78 20.35 78 16.95 77.9 13.55 77.8 10.45 75.1 9.8 75.05 9.8 75 9.8 73.95 9.8 72.85 9.8 70.75 10.4 70.05 12.3 70.05 12.45 70.05 12.6
L 70.05 12.65 70 12.65
Q 70 16.45 70 20.25 70 20.3 70 20.35 69.9 20.35 69.85 20.35 66.55 20.35 63.2 20.35 63.2 20.4 63.2 20.45 63.15 20.45 63.1 20.45 57.6 21.1 56.45 26.05 56.45 26.2 56.45 26.4 56.45 26.45 56.45 26.5 56.3515625 26.5 56.35 26.45
L 56.35 75
Q 56.5 75.236328125 56.5 75.9 56.425 78.76875 56.35 81.65
L 56.35 92.15 56.45 92.15
Q 56.85 94.6 58.25 96.05 58.25 96.1 58.3 96.1 58.5 96.35 58.7 96.55
L 58.75 96.55
Q 60.1 97.8 62.3 98.2 62.35 98.2 62.4 98.2 62.4 98.25 62.4 98.3 62.7 98.3 63.05 98.3
L 63.1 98.3
Q 71.25 98.3 79.35 98.3 87.5 98.3 95.6 98.3 103.35 98.3 111.15 98.3 111.15 98.25 111.15 98.2 113.35 95.85 115.65 93.65 115.65 93.6 115.65 93.55 115.85 93.4 116.1 93.2 116.1 93.15 116.1 93.1 116.6 92.7 117 92.2
L 117 92.15
Q 119.25 89.95 121.4 87.75 121.45 87.75 121.45 87.7 122.2 87.1 122.75 86.35 122.8 86.3 122.8 86.25 125 84.1 127.2 81.9
L 127.2 81.85
Q 127.6 81.5 127.95 81.2 127.95 81.15 127.95 81.1 128.3 80.85 128.55 80.45
L 128.55 80.4
Q 130.8 78.25 132.95 76.05 133 76 133 75.95 133.45 75.6 133.85 75.15
L 133.9 75.15
Q 133.9 75.1 133.9 75.05 133.9 75 133.9 74.95 133.9 74.55 133.9 74.05 133.9 65.95 133.9 57.8 133.9 49.7 133.9 41.6
M 122.85 34.85
Q 126.7 34.85 130.55 34.85 130.6 34.85 130.65 34.85 130.65 43 130.65 51.15 130.65 59.25 130.65 67.4 130.65 71.2 130.65 74.95 130.6 74.95 130.55 74.95 129.75 74.95 128.9 74.95
L 128.85 74.95
Q 127 74.95 125.15 74.95 125.1 74.95 125.05 74.95 123.25 74.95 121.45 74.95 121.4 74.95 121.35 74.95 118.5 74.95 115.65 74.95 115.65 75 115.65 75.05 115.6 75.05 115.55 75.05 111.35 75.7 110.4 79.65 110.4 79.85 110.4 80 110.4 80.05 110.4 80.15
L 110.35 80.15
Q 110.35 80.45 110.35 80.75 110.35 80.8 110.35 80.85 110.35 83.05 110.35 85.25 110.35 85.3 110.35 85.35 110.35 86.45 110.35 87.55
L 110.35 87.6
Q 110.35 88.7 110.35 89.8
L 110.35 89.85
Q 110.35 90.95 110.35 92.05 110.35 92.1 110.35 92.15 110.35 93.4 110.35 94.65 110.35 94.7 110.35 94.75 105.95 94.75 101.6 94.75 93.45 94.75 85.3 94.75 77.2 94.75 69.05 94.75 67.55 94.75 66 94.9 60.75 95.45 59.65 91.95 59.65 87.85 59.65 83.7 59.65 75.6 59.65 67.5 59.65 59.35 59.65 51.25 59.65 43.1 59.65 35 67.6 35 75.5 35
L 75.55 35
Q 83.7 35 91.8 35 99.45 35 107.05 35 114.95 35 122.85 34.9
L 122.85 34.85
M 121 20.45
Q 121.05 20.45 121.1 20.45 121.1 24.2 121.1 28.05
L 121.1 28.1
Q 121.05 28.1 121 28.1 121 28.45 121 28.75 121 28.8 121 28.85
L 121 28.9
Q 120.3 31.35 117.65 31.8 117.6 31.8 117.55 31.8 117 31.8 116.45 31.8
L 116.4 31.8
Q 113.75 31.3 113.15 28.75 113.15 28.7 113.15 28.65 113.15 24.55 113.15 20.45 117.05 20.45 121 20.45
M 77.9 20.45
Q 77.95 20.45 78 20.45 78 24.2 78 28.05
L 78 28.1
Q 77.95 28.1 77.9 28.1 77.9 28.45 77.9 28.75 77.9 28.8 77.9 28.85
L 77.9 28.9
Q 77.2 31.35 74.6 31.8 74.55 31.8 74.5 31.8 73.95 31.8 73.4 31.8 73.35 31.8 73.3 31.8 70.65 31.3 70.05 28.75 70.05 28.7 70.05 28.65 70.05 24.55 70.05 20.45 74 20.45 77.9 20.45
M 65.65 74.05
Q 65.6 74.05 65.55 74.05 65.55 80.4 65.6 86.75
L 65.65 86.75
Q 71.8 86.7 78 86.75 78.05 86.75 78.1 86.75 78.25 80.6 78.2 74.25 78.2 74.2 78.2 74.15
L 78.2 74.1
Q 71.9 74.05 65.65 74.05
M 78.45 58.65
Q 78.4 58.65 78.35 58.65 72.2 58.65 66 58.65 65.95 58.65 65.9 58.65 65.9 64.85 65.9 71.1 65.9 71.15 65.9 71.2 72.1 71.35 78.55 71.2 78.55 71.15 78.55 71.1 78.65 64.75 78.45 58.65
M 66 43.2
Q 65.95 43.2 65.9 43.2 65.9 49.5 65.95 55.8
L 66 55.8
Q 72.25 55.8 78.55 55.8
L 78.55 55.75
Q 78.55 55.7 78.55 55.65 78.55 49.45 78.55 43.3
L 78.55 43.25
Q 72.25 43.2 66 43.2
M 93.55 73.9
Q 93.55 73.85 93.55 73.8
L 93.55 73.75
Q 87.2 73.7 80.9 73.7 80.9 73.75 80.9 73.8 80.9 80.05 80.95 86.35 87.15 86.35 93.35 86.35 93.4 86.35 93.45 86.35 93.6 80.25 93.55 73.9
M 93.8 58.25
Q 93.75 58.25 93.7 58.25 87.5 58.25 81.35 58.25 81.3 58.25 81.25 58.25 81.25 64.5 81.25 70.75 81.25 70.8 81.25 70.85 87.4 70.95 93.7 70.9 93.75 70.9 93.8 70.9
L 93.85 70.9
Q 93.95 64.45 93.8 58.25
M 109.15 58.1
Q 109.1 58.1 109.05 58.1 102.85 58.1 96.6 58.1
L 96.6 58.15
Q 96.6 64.35 96.6 70.55
L 96.6 70.6
Q 102.7 70.8 109.05 70.75 109.1 70.75 109.15 70.75
L 109.2 70.75
Q 109.3 64.3 109.15 58.1
M 111.95 58.45
Q 111.9 58.45 111.85 58.45 111.85 64.7 111.85 70.9 111.85 70.95 111.85 71 118.1 71.15 124.55 71.05
L 124.55 71
Q 124.55 70.95 124.55 70.9 124.55 64.7 124.55 58.45 124.45 58.45 124.4 58.45 118.2 58.45 111.95 58.45
M 109.15 42.75
Q 109.1 42.75 109.05 42.75 102.85 42.75 96.6 42.75 96.6 49 96.65 55.3
L 96.7 55.3
Q 102.9 55.3 109.05 55.3 109.1 55.3 109.15 55.3
L 109.2 55.3
Q 109.3 48.9 109.15 42.75
M 81.25 42.85
L 81.25 42.9
Q 81.25 49.15 81.25 55.35 81.25 55.4 81.25 55.45 87.45 55.65 93.9 55.55
L 93.9 55.45
Q 93.9 55.4 93.9 55.35 93.9 49.15 93.9 42.9
L 93.9 42.85
Q 87.55 42.85 81.25 42.85
M 124.55 43.1
L 124.55 43.05
Q 118.25 43 111.95 43 111.9 43 111.85 43 111.85 49.3 111.9 55.65
L 111.95 55.65
Q 118.25 55.65 124.55 55.6
L 124.55 55.45
Q 124.55 49.3 124.55 43.1 Z"/>
</g>
</defs>

<g transform="matrix( 0.9499969482421875, 0, 0, 0.9499969482421875, -0.8,11.15) ">
<use xlink:href="#Layer0_0_FILL"/>
</g>
</svg>
