
<svg xmlns="http://www.w3.org/2000/svg" version="1.1" xmlns:xlink="http://www.w3.org/1999/xlink" preserveAspectRatio="none" x="0px" y="0px" width="179px" height="125px" viewBox="0 0 179 125">
<defs>
<g id="Layer0_0_FILL">
<path fill="#FFFFFF" stroke="none" d="
M 108.9 27.5
Q 108.85 24.1 106.3 21.6 103.7 19.05 100.3 19.05 73.6 18.95 46.95 19.05 43.55 19.05 41 21.65 38.4 24.25 38.4 27.65 38.35 34.45 38.35 89 38.95 89.1 39.35 88.7 39.55 88.5 39.9 87.95 41.6 86.35 44.9 83.15 47.75 80.35 49.65 78.15 51.05 76.6 52.75 75.95 54.25 75.4 56.45 75.4 70.8 75.55 99.45 75.45 103.35 75.45 106.1 73.05 108.85 70.55 108.9 67 109.1 47.25 108.9 27.5
M 129.95 45.25
Q 127.3 42.6 122.25 42.6 120.4 42.65 119.5 42.65 117.85 42.65 116.7 42.55 115.05 42.4 114.45 42.95 113.75 43.55 113.8 45.3 114 52 113.9 65.45 113.9 68.4 113.1 70.6 111.6 75.2 107.95 77.75 104.25 80.35 99.1 80.35 80.4 80.45 64.1 80.35 62.75 80.3 62.3 80.8 61.8 81.25 61.9 82.55 62.05 84.65 61.95 88.85 62 93.75 64.65 96.45 67.35 99.1 72.25 99.1 106.5 99.1 116.3 99.05 117.55 99.05 118.45 99.45 119.35 99.8 120.2 100.7 122.8 103.4 132.6 113.2
L 132.6 53.05
Q 132.6 47.95 129.95 45.25 Z"/>
</g>
</defs>

<g transform="matrix( 1, 0, 0, 1, 4.05,-3.6) ">
<use xlink:href="#Layer0_0_FILL"/>
</g>
</svg>
