
<svg xmlns="http://www.w3.org/2000/svg" version="1.1" xmlns:xlink="http://www.w3.org/1999/xlink" preserveAspectRatio="none" x="0px" y="0px" width="179px" height="125px" viewBox="0 0 179 125">
<defs>
<g id="Layer0_0_FILL">
<path fill="#FFFFFF" stroke="none" d="
M 71.45 24.55
Q 67.1 24.5 61.8 24.55 59.05 24.55 56.95 25.75 55.9 26.4 55.4 27.2 54.8 28.15 54.95 29.35 54.95 29.55 54.95 29.9 54.95 30.05 54.95 30.45 54.95 44.5 54.95 47.35 54.95 48.45 55.6 48.95 56.7 49.8 58.3 49.2 59.4 48.8 59.4 47.25 59.4 46.05 59.4 39.85 59.4 34.6 59.4 33.15 59.4 32.8 59.5 32.7 59.65 32.55 59.9 32.6 60.15 32.65 60.15 32.85 60.15 33 60.1 33.25 60.1 46.15 60.1 71.9 60.1 72.5 60.15 72.75 60.3 73.55 60.8 74.1 61.3 74.65 62.05 74.8 63.1 75 64.2 74.8 65.15 74.65 65.7 73.95 66.2 73.25 66.2 72.15
L 66.25 49.35
Q 66.2 49.1 66.2 48.95 66.25 48.75 66.55 48.75 66.9 48.7 67 48.9 67.05 49 67.05 49.35
L 67.05 72.15
Q 67.05 73.15 67.65 74 68.25 74.85 70.1 74.9 71.9 74.9 72.55 74.05 73.15 73.2 73.15 72.15 73.15 55.95 73.15 33.3 73.1 33 73.1 32.85 73.1 32.6 73.45 32.6 73.8 32.6 73.85 32.85 73.9 32.95 73.85 33.3 73.85 36 73.85 38.7
L 73.85 42.3
Q 75.15 39.5 78.1 37.8 78.3 37.7 78.35 37.55 78.35 37.5 78.35 37.2 78.35 34.6 78.35 33.25 78.35 30.95 78.35 29.35 78.4 28.15 77.9 27.25 77.4 26.4 76.35 25.8 74.25 24.55 71.45 24.55
M 68.85 13.4
Q 68.55 13.3 68.05 13.15 67.5 13 67.3 12.9
L 66.05 12.9
Q 65.65 13.05 65.6 13.05 63.7 13.45 62.45 14.95 61.25 16.5 61.35 18.45 61.4 20.4 62.75 21.85 64.05 23.3 66 23.5 67.95 23.75 69.6 22.65 71.25 21.5 71.75 19.65 72.25 17.75 71.45 16 70.6 14.2 68.85 13.4
M 148.85 65.7
Q 146.2 61.4 142.4 57.8 138.85 54.5 134.2 51.65 132.9 50.85 131.35 51.25 129.85 51.65 129.05 53 128.25 54.35 128.6 55.85 128.95 57.4 130.3 58.25 130.75 58.55 131.65 59.1 132.4 59.6 132.95 60 135.9 62.1 138.1 64.3 140.6 66.8 142.25 69.6 146.45 76.6 144.85 83.95 144.2 86.85 142.7 89.55 141.35 92.05 139.2 94.4 136.4 97.55 132.7 100.15 129.35 102.45 125.15 104.4 118.75 107.45 111.45 109.1 104.75 110.65 97.05 111.1 85.6 111.75 74.5 109.55 68.9 108.4 64.1 106.65 58.8 104.75 54.3 102.1 50.75 99.95 48.05 97.7 45 95.1 42.8 92.1 38.9 86.75 38.6 80.9 38.45 77.15 39.7 73.65 40.85 70.35 43.25 67.2 45.25 64.6 47.95 62.3 50.35 60.3 53.45 58.3 54.85 57.45 55.25 55.9 55.6 54.4 54.75 53 53.9 51.65 52.4 51.3 50.85 50.95 49.45 51.8 43 55.75 38.6 60.85 33.05 67.25 31.45 74.7 31.35 75.35 31.2 76.5 31.05 77.75 30.9 78.3
L 30.9 82.1
Q 31.1 82.55 31.2 83.3 31.3 84.4 31.35 84.55 32.15 88.85 34.25 92.8 36.2 96.45 39.35 99.9 42.7 103.55 47 106.55 50.9 109.25 55.85 111.6 66 116.4 78.2 118.2 79.55 118.4 80.85 118.55 83.95 118.95 86.95 119.05
L 87.5 119.15
Q 89.35 119.15 93.15 119.15 94.1 119.15 96.1 119.15
L 97.3 119.15 97.3 119.05
Q 99.55 118.95 101.7 118.7 112.75 117.55 122.45 113.95 127.95 111.9 132.45 109.35 137.4 106.5 141.4 102.95 144.8 99.95 147.2 96.7 149.75 93.2 151.25 89.25 152.45 86.05 152.8 82.7 152.8 82.6 152.8 82.5 152.85 82.4 152.9 82.35
L 152.9 77.35
Q 152.85 77.3 152.8 77.2 152.8 77.1 152.8 77.05 152.1 71.1 148.85 65.7
M 86.45 39.3
Q 84.8 39.25 83.45 39.5 81.75 39.8 80.5 40.35 79 40.95 77.95 42.05 76.75 43.2 76.75 44.6
L 76.75 69.2
Q 76.75 70.4 77.8 71.15 78.15 71.45 78.7 71.55 79.05 71.6 79.7 71.6 81.15 71.6 81.85 70.9 82.55 70.2 82.55 68.8
L 82.55 50.1
Q 82.55 49.95 82.6 49.9 82.7 49.8 82.85 49.8 83.25 49.7 83.4 49.85 83.5 50 83.5 50.4 83.5 54.65 83.5 75.95
L 83.5 101.4
Q 83.5 102.85 84.4 103.75 85.3 104.65 86.75 104.65
L 87.9 104.65
Q 89.6 104.65 90.5 103.75 91.4 102.8 91.4 101.1
L 91.4 71.35
Q 91.4 71 91.5 70.9 91.6 70.7 91.95 70.75 92.3 70.75 92.4 70.85 92.5 71 92.5 71.35 92.5 72.25 92.5 76.95
L 92.5 101.2
Q 92.5 102.85 93.4 103.75 94.35 104.65 95.95 104.65
L 96.85 104.65
Q 98.6 104.65 99.5 103.75 100.45 102.8 100.45 101.05
L 100.45 73.4
Q 100.45 58.05 100.4 50.4 100.4 50 100.55 49.85 100.65 49.7 101.05 49.8 101.35 49.85 101.35 50 101.35 50.15 101.35 50.4 101.35 53.05 101.35 66.55 101.35 68.75 101.35 69.05 101.35 70.2 102.05 70.9 102.75 71.6 103.9 71.6
L 104.65 71.6
Q 105.8 71.6 106.45 70.9 107.15 70.2 107.15 69.05
L 107.15 44.8
Q 107.15 43.65 106.55 42.7 105.85 41.7 104.6 40.95 101.85 39.3 98 39.3 95.8 39.3 92.25 39.3 87.55 39.3 86.45 39.3
M 98.85 31.1
Q 98.85 28.3 96.85 26.25 94.85 24.25 92 24.25 89.1 24.25 87.1 26.25 85.1 28.25 85.1 31.1 85.05 33.95 87.1 36 89.1 38 91.95 38 94.8 38 96.85 36 98.85 33.95 98.85 31.1
M 124.3 32.6
Q 124.5 32.7 124.5 32.85 124.5 32.95 124.45 33.2 124.5 42.6 124.45 47.3 124.45 48.8 125.55 49.2 126.85 49.7 127.85 49.25 129 48.7 129 47.1 128.9 38.25 129 29.35 129 28.1 128.45 27.2 127.95 26.35 126.85 25.7 124.75 24.55 122.15 24.55 116.45 24.45 112.35 24.55 109.3 24.55 107.2 26 106.35 26.6 105.95 27.35 105.5 28.1 105.55 29.15 105.6 30.85 105.55 33.15 105.55 33.35 105.55 37.1 105.55 37.45 105.65 37.6 105.75 37.8 106 37.95 108.75 39.45 110 42.15
L 110 41.55
Q 110 35 110 33.15 110 32.8 110.1 32.7 110.25 32.55 110.5 32.6 110.75 32.65 110.75 32.85 110.75 33 110.7 33.25 110.7 39.6 110.75 52.35 110.75 63.3 110.7 71.5 110.7 73.25 111.45 74.05 112.3 75 114.15 74.9 115.45 74.8 116.1 74.15 116.85 73.45 116.85 72.2
L 116.85 49.3
Q 116.85 49 116.85 48.9 116.95 48.75 117.3 48.75 117.6 48.75 117.65 48.95 117.7 49.05 117.65 49.3
L 117.65 72.3
Q 117.65 73.4 118.35 74.1 119.05 74.85 120.2 74.85
L 120.85 74.85
Q 122.35 74.85 123.05 74.15 123.75 73.45 123.75 71.95
L 123.75 48.6
Q 123.75 35.7 123.75 33.1 123.75 32.8 123.85 32.65 123.95 32.55 124.3 32.6
M 121.85 20.9
Q 122.75 19.3 122.5 17.5 122.25 15.75 120.95 14.45 120.35 13.85 119.55 13.45 118.9 13.15 117.9 12.9
L 116.55 12.9
Q 116.45 13.05 116.25 13.05 116.05 13.1 115.95 13.1 114.15 13.6 113.05 15 111.95 16.45 111.95 18.25 111.95 20.05 113.05 21.45 114.15 22.9 115.9 23.35 117.6 23.8 119.3 23.15 120.95 22.45 121.85 20.9 Z"/>
</g>
</defs>

<g transform="matrix( 1, 0, 0, 1, -2.4,-3.5) ">
<use xlink:href="#Layer0_0_FILL"/>
</g>
</svg>
