
<svg xmlns="http://www.w3.org/2000/svg" version="1.1" xmlns:xlink="http://www.w3.org/1999/xlink" preserveAspectRatio="none" x="0px" y="0px" width="179px" height="125px" viewBox="0 0 179 125">
<defs>
<g id="Layer0_0_FILL">
<path fill="#FFFFFF" stroke="none" d="
M 100.9 33.15
Q 97.05 34.35 94.75 37.55 92.55 40.8 92.8 44.85 92.9 45.45 92.65 45.8 92.45 46.15 91.9 46.45 87.8 48.45 76.65 54.05 76.15 54.3 75.95 54.3 75.6 54.3 75.25 53.95 72.95 51.9 69.9 51.25 67.05 50.65 64.2 51.45 61.35 52.35 59.25 54.55 57.1 56.75 56.3 60.05 56.3 60.15 56.25 60.4 56.225 60.45 56.15 60.5
L 56.15 64.7
Q 56.3470703125 64.859765625 56.45 65.1 56.55 65.3 56.6 65.8 58.15 70.8 63 72.9 67.8 75 72.55 72.7 73.15 72.35 73.65 72.4 74.1 72.5 74.65 73 78.4 76.2 88.35 84.7 88.75 85.05 88.9 85.3 89.1 85.65 88.9 86.15 87.4 91.5 89.75 95.7 92.2 99.8 97.6 101.2
L 97.8 101.25
Q 97.95 101.3 98.05 101.45
L 100.9 101.45
Q 101.15 101.1 101.7 101.1 102.65 100.95 102.7 100.95 109.4 98.95 110.85 92.5 111.7 88.95 110.55 86 109.5 83.1 106.65 80.85 103.95 78.75 100.9 78.5 97.9 78.2 94.7 79.65 94.05 79.95 93.65 79.95 93.15 79.85 92.6 79.45 86.8 74.35 78.9 67.6 78.4 67.25 78.25 66.9 78.2 66.5 78.4 65.95 79.15 64 78.9 61.5 78.9 61 79 60.75 79.15 60.45 79.65 60.15 86.1 56.95 95.2 52.35 95.6 52.25 95.8 52.25 96.1 52.25 96.45 52.5 98.65 54.6 101.6 55.3 104.45 55.9 107.3 55.15 110.15 54.3 112.3 52.25 114.55 50 115.35 46.75 115.35 46.45 115.45 46.3 115.5 46.05 115.7 46.05
L 115.7 42.55
Q 115.45 42.2 115.3 41.6 115.1 40.65 115.1 40.55 112.7 34.2 106.25 32.85 106.05 32.85 105.95 32.85 105.75 32.8 105.75 32.6
L 102.55 32.6
Q 102.35 32.85 101.8 32.95 101.25 33 100.9 33.15 Z"/>
</g>
</defs>

<g transform="matrix( 1, 0, 0, 1, 0,0) ">
<use xlink:href="#Layer0_0_FILL"/>
</g>
</svg>
