
<svg xmlns="http://www.w3.org/2000/svg" version="1.1" xmlns:xlink="http://www.w3.org/1999/xlink" preserveAspectRatio="none" x="0px" y="0px" width="179px" height="125px" viewBox="0 0 179 125">
<defs>
<g id="Layer0_0_FILL">
<path fill="#FFFFFF" stroke="none" d="
M 96.3 30.05
Q 93.6 30.3 91.2 32.3 81.5 40.05 69.85 49.55 67.3 51.6 67.3 54.4 67.3 55.2 67.25 55.25 67.15 55.75 66.6 55.9 65.35 56.3 64.7 57.15 64.1 58.05 64.2 59.35 64.35 62 67.45 62.6 66.7 65 66.15 65.35 65.65 65.65 63.15 65.25 55.95 64.1 49.3 68.4 43.65 72.1 41.35 77.9 40.95 78.85 40.65 79.9 40.5 80.3 40.4 81.1 40.25 81.8 39.75 82.15
L 39.75 89.5
Q 40.25 89.95 40.5 90.85 40.6 91.35 40.8 92.35 41.05 93.05 41.35 93.75 43.6 99.3 48.55 102.7 54.1 106.55 61.15 106.45 67.45 106.4 72.85 102.35 78.2 98.3 80.15 92.15 82.2 85.65 80.15 79.35 78 73 72.45 69.05 71.5 68.35 71.35 67.7 71.25 67.15 71.65 66 72.8 62.85 73.85 62.45 74.95 62 78.7 63.3 80.95 64.05 84.15 65.4 85.95 66.1 89.65 67.7 83.05 78.45 82.95 78.65 81.85 80.5 82 82.35 82.1 84.15 83.35 85.7 84.6 87.2 86.35 87.7 88.15 88.2 89.95 87.6 92 87 93.4 84.75 94.25 83.35 95.95 80.6 97.5 78.1 98.45 76.35 98.95 75.55 99.4 75.4 99.85 75.25 100.75 75.7 102.25 76.5 102.65 77.35 103.1 78.3 102.55 80 100 88.2 104.15 95.7 108.25 103.2 116.7 105.7 124.75 108.05 132.25 103.9 139.75 99.8 142.15 91.7 142.3 90.9 142.4 90.5 142.55 89.8 143 89.5
L 143 82.6
Q 142.85 82.45 142.75 82.35 142.65 82.25 142.6 82.15 141.65 75.3 136 70.3 129.95 65 122.1 65.15 121.3 65.2 121 64.95 120.65 64.65 120.45 63.85 119.6 58.95 117.9 51.3 117.75 50.65 118 50.25 118.2 49.95 118.85 49.6 120.7 48.65 121.25 47.15 121.85 45.65 121.15 43.95 120.4 42.3 118.85 41.7 117.3 41.1 115.35 41.75 114 42.25 107.9 44.55 105.35 45.5 104.75 45 104.15 44.55 104.45 41.8
L 104.65 40.95
Q 105.45 37.65 104.65 35.3 103.85 32.95 101.35 31.35 99 29.85 96.3 30.05
M 112.65 52.2
Q 113.05 52.4 113.15 53.25 114.05 58.15 115.4 64.2 115.65 65.3 115.4 65.9 115.1 66.6 114.05 66.95 110.05 68.35 107.2 71.75 105.95 73.2 104.8 72.45 103.55 71.25 102.9 71 101.95 70.65 102.25 69.95 102.5 69.55 103.1 68.85 105.1 65.45 104.25 62.9 103.45 60.25 99.85 58.8 93.4 56.15 90.2 54.85
L 89.9 54.45 96.4 49.2
Q 97.05 54.45 99.35 55.6 101.4 56.6 105.6 54.65 106.7 54.1 108.55 53.45 111.1 52.55 111.5 52.35 112.3 52.05 112.65 52.2
M 116.5 71.75
Q 117.2 71.9 117.4 73.5 117.55 74.45 117.75 76.3 117.85 76.7 118.6 80.55 113.85 77.65 111.7 76.4 110.95 76.05 110.9 75.65 110.8 75.3 111.45 74.75
L 111.6 74.6
Q 113.85 72.6 113.95 72.55 115.35 71.55 116.5 71.75
M 116.55 85.3
Q 117 85.55 117.15 86 117.25 86.25 117.35 86.85 117.85 88.7 119.2 89.8 120.55 90.9 122.3 90.85 125.8 90.7 127 87.5 128.3 84 124.9 81.6 123.85 80.85 123.65 79.6 123 75.75 122.05 71.8 121.8 70.75 122.2 70.4 122.5 70.15 123.5 70.25 129.1 70.6 133.25 74.8 137.45 79 137.85 84.8 138.3 90.25 134.85 95 131.35 99.7 126 100.9 121.4 101.95 117.5 100.7 113.6 99.4 110.5 95.9 104.65 89.1 107.85 80.1 110.85 81.9 116.55 85.3
M 51.3 73.3
Q 55.45 70.2 60.6 70.25 62.4 70.25 64.05 70.8
L 60.35 79.65
Q 59.9 80.75 58.75 81.15 57.15 81.7 56.25 82.95 55.45 84.15 55.4 85.85 55.4 87.4 56.2 88.6 57.05 89.8 58.6 90.45 61.65 91.7 64 89.3 65 88.3 66.4 88.35 71.3 88.4 73.75 88.3 75 88.25 75.35 88.7 75.7 89.1 75.3 90.35 73.05 97.75 65.75 100.4 58.45 103.05 51.95 98.8 47.65 95.95 45.85 91.15 44.1 86.3 45.55 81.4 47.1 76.4 51.3 73.3
M 75.45 82.9
Q 75.15 83.3 74.2 83.25 72.6 83.2 70.05 83.2 66.7 83.25 65.95 83.25 65.05 83.2 64.9 83.15 64.45 82.9 64.85 82.05 65.7 80.15 68.8 72.8 73.55 75.75 75.45 81.7 75.75 82.55 75.45 82.9
M 112.05 16.05
Q 108.15 16 105.4 18.65 102.7 21.35 102.65 25.15 102.6 28.9 105.25 31.65 107.9 34.4 111.7 34.45 115.6 34.5 118.3 31.85 121 29.2 121 25.3 121.05 21.45 118.45 18.75 115.85 16.1 112.05 16.05 Z"/>
</g>
</defs>

<g transform="matrix( 1, 0, 0, 1, 0,0) ">
<use xlink:href="#Layer0_0_FILL"/>
</g>
</svg>
