
<svg xmlns="http://www.w3.org/2000/svg" version="1.1" xmlns:xlink="http://www.w3.org/1999/xlink" preserveAspectRatio="none" x="0px" y="0px" width="179px" height="125px" viewBox="0 0 179 125">
<defs>
<g id="Layer0_0_FILL">
<path fill="#FFFFFF" stroke="none" d="
M 61.95 101.75
L 61.95 114.85
Q 84.55 114.85 107.15 114.85
L 107.15 101.9 132.1 101.9 132.1 18.2
Q 84.55 18.2 37 18.2
L 37 101.9 52.95 101.9 52.95 101.75 61.95 101.75
M 126.35 35.1
Q 126.75 35.55 126.75 36.6
L 126.8 79.2
Q 126.8 79.75 126.75 79.8 126.65 80.1 126.15 80.1 119.8 80.05 107 80.05 97.2 80.1 92.35 80.1 76 80.1 67.85 80.1 53.15 80.1 43.35 80.1 42.6 80.1 42.4 79.85 42.15 79.6 42.15 78.9 42.2 65 42.2 37.15 42.2 35.55 42.6 35.1 43.05 34.7 44.6 34.7
L 58.85 34.7 57.45 38.65
Q 57.4 39.5 57.05 40.3
L 56.6 43.35 56.6 49.15 57.05 51.85
Q 58 55.1 58.95 57.4
L 60.35 60.05
Q 60.65 60.3 60.75 60.7
L 62.85 63.6
Q 63.15 63.75 63.25 64 63.45 64.25 64.2 65.5 64.8 66.45 65.35 66.9
L 65.5 67.05 69.2 69.8 72.3 71.5
Q 72.4 71.55 72.65 71.6 72.85 71.7 73 71.85 73.35 71.85 73.55 72.05
L 77.1 73.25 80.95 73.95
Q 81.65 73.9 82.2 74.15
L 86.95 74.1
Q 87.3 73.9 88 73.95
L 91.65 73.25 96.2 71.65
Q 96.4 71.4 96.85 71.3
L 99.9 69.55 103.3 66.9 106.05 64 108.4 60.7
Q 108.5 60.3 108.8 60.05
L 110.9 55.55 112.3 49.55
Q 112.4 47.5 112.4 46.65 112.45 45.05 112.4 43.8
L 112.4 43.6 111.8 39.85
Q 111.65 39.45 111.6 39.25 111.5 38.9 111.55 38.6
L 110.1 34.7 124.85 34.7
Q 125.95 34.7 126.35 35.1
M 87.75 24.9
Q 87.9 24.75 88.8 24.95 95.8 26.45 100.5 31.5 105.15 36.55 106.1 43.6 106.2 44.5 106.25 46.2 106.25 50.75 104.4 54.9 102.65 58.9 99.45 61.95 96.25 64.95 92.15 66.5 87.95 68.15 83.35 67.9 77.3 67.6 72.2 64.15 71.7 63.8 71.7 63.6 71.65 63.35 72.05 62.95 73.75 61.3 79.35 55.7 83.8 51.15 86.65 48.5 87.6 47.6 87.6 46.1
L 87.6 25.95
Q 87.6 25 87.75 24.9
M 81.15 24.85
Q 81.4 24.95 81.4 25.55 81.4 27.4 81.4 42.35 81.4 42.45 81.4 42.7 81.4 42.9 81.2 43 76.3 43.2 71.05 43 64.45 43.05 63.6 43.05 63.1 43.05 63.05 42.8 63 42.65 63.1 42.2 64.95 33.2 72.5 28.1 76 25.75 80.45 24.85 81 24.75 81.15 24.85
M 125.65 86.25
Q 126.35 86.25 126.55 86.45 126.8 86.7 126.8 87.4 126.75 88.95 126.75 91.2 126.75 92.5 126.75 95.05 126.75 96.3 126.35 96.7 125.95 97.15 124.7 97.15 108.95 97.15 93.15 97.15
L 45.45 97.15
Q 44.1 97.15 43.6 97.1 42.9 97 42.6 96.75 42.35 96.45 42.25 95.75 42.2 95.3 42.2 93.9 42.2 91.65 42.2 90.6 42.2 88.65 42.15 87.3 42.15 86.6 42.45 86.4 42.65 86.3 43.3 86.3
L 84.5 86.3
Q 116.5 86.3 125.65 86.25
M 63.1 49.45
Q 63.2 49.3 63.55 49.3
L 76.7 49.35 70.05 56.2
Q 67.75 58.55 67.55 58.75 67.25 59.05 67.1 59.05 66.9 59.05 66.7 58.7 63.95 54.8 63.05 49.9 63 49.6 63.1 49.45
M 74.8 103
Q 75 102.75 75.2 102.7 75.45 102.6 75.85 102.6 84.75 102.6 93.65 102.6 94.1 102.6 94.35 102.7 94.55 102.8 94.7 103.05 95.05 103.7 95.7 104.6 96.05 105.1 96.85 106.1
L 97.35 106.65
Q 97.65 106.8 97.7 107.05 98.5 107.85 99.75 108.95 100.45 109.55 101.85 110.8
L 102.15 110.9
Q 102.3 110.95 102.35 111.1
L 66.9 111.1
Q 67.15 110.75 67.7 110.5
L 69.2 109.3
Q 69.3 109.05 69.6 108.9
L 71.5 107.1
Q 71.55 106.8 71.85 106.65
L 72.35 106.1
Q 74.5 103.4 74.8 103
M 85.5 93.95
Q 86.4 93.05 86.4 91.8 86.4 90.5 85.5 89.6 84.6 88.7 83.35 88.7 82.05 88.7 81.15 89.6 80.25 90.5 80.25 91.8 80.25 93.05 81.15 93.95 82.05 94.85 83.35 94.85 84.6 94.85 85.5 93.95 Z"/>
</g>
</defs>

<g transform="matrix( 1, 0, 0, 1, 4.95,-4) ">
<use xlink:href="#Layer0_0_FILL"/>
</g>
</svg>
