
<svg xmlns="http://www.w3.org/2000/svg" version="1.1" xmlns:xlink="http://www.w3.org/1999/xlink" preserveAspectRatio="none" x="0px" y="0px" width="179px" height="125px" viewBox="0 0 179 125">
<defs>
<g id="Layer0_0_FILL">
<path fill="#FFFFFF" stroke="none" d="
M 127.15 44.3
Q 127.15 37.45 127.15 30.55 125.85 25.85 120.8 24.95
L 120.8 24.9 120.75 24.9
Q 120.4 24.9 120.1 24.9 116.85 24.9 113.6 24.9 106.7 24.9 99.85 24.9 93 24.9 86.1 24.9 79.25 24.9 72.4 24.9 65.5 24.9 58.65 24.9 53.15 25.95 52.15 31.4 52.15 31.7 52.15 32 52.15 32.05 52.15 32.1 52.1 32.1 52.05 32.1 52.05 32.05 52.05 32 52.1 31.3 51.9 30.8 51.9 37.65 51.9 44.55 51.9 51.4 51.9 58.25 51.9 65.15 51.9 72 51.9 78.85 51.9 85.75 51.9 89.9 51.9 94 52.1 93.55 52.05 92.8 52.05 92.75 52.05 92.7 52.1 92.7 52.15 92.7 52.15 92.75 52.15 92.8
L 52.15 92.85
Q 52.15 93.2 52.15 93.55
L 52.2 93.55
Q 53.15 99.05 58.65 100.05
L 58.65 100.1
Q 65.5 100.1 72.4 100.1 79.25 100.1 86.1 100.1 93 100.1 99.85 100.1 106.7 100.1 113.6 100.1 116.85 100.1 120.1 100.1 120.4 100.1 120.75 100.1
L 120.8 100.1
Q 120.8 100.05 120.8 100 123.4 99.65 124.85 98.15
L 124.85 98.1
Q 125.2 98 125.3 97.7
L 125.35 97.65
Q 126.65 96.45 127.15 94.4 127.15 89.95 127.15 85.5 127.15 78.65 127.15 71.75 127.15 64.9 127.15 58.05 127.15 51.15 127.15 44.3
M 88.7 44.2
Q 88.75 44.2 88.75 44.15 92.25 40.85 98.25 40.05
L 98.25 40
Q 98.55 40 98.85 39.95
L 98.85 39.9
Q 98.95 39.9 99 39.9 99.05 39.9 99.1 39.9 99.4 39.9 99.7 39.9
L 99.7 39.85
Q 99.8 39.85 99.95 39.85
L 100 39.85
Q 100.35 39.85 100.7 39.85 100.75 39.85 100.8 39.85 101.2 39.85 101.6 39.8
L 101.6 39.75
Q 101.75 39.75 101.95 39.75
L 102 39.75
Q 102.25 39.9 102.7 39.85
L 102.75 39.85
Q 103.05 39.85 103.3 39.85 103.35 39.85 103.4 39.85 109.45 40.65 113.2 43.75 113.55 44.05 113.9 44.3 114.05 44.5 114.2 44.65 114.25 44.7 114.3 44.7 114.85 45.15 115.3 45.65 115.3 45.7 115.35 45.7 115.45 45.9 115.6 46.05
L 115.65 46.05
Q 118.9 49.7 119.95 55.5 119.95 55.55 119.95 55.6 119.95 55.9 120 56.25
L 120.05 56.25
Q 120.05 56.3 120.05 56.35 120.05 56.6 120.05 56.9
L 120.05 56.95
Q 120.05 57.8 120.05 58.65 120.05 58.7 120.05 58.75 120.05 59.05 120.05 59.35
L 120.05 59.4
Q 120.05 59.45 120.05 59.5 120 59.5 119.95 59.5 119.95 59.75 119.95 60.05
L 119.95 60.1
Q 119.7 62 119.1 63.55 117.35 68.65 113.6 71.8 109.9 74.95 103.9 75.85
L 103.85 75.85
Q 103.55 75.85 103.25 75.85
L 103.25 75.9
Q 103.2 75.9 103.15 75.9
L 103.1 75.9
Q 103.05 75.9 103 75.9 102.75 75.9 102.45 75.9
L 102.4 75.9
Q 101.5 75.9 100.6 75.9
L 100.55 75.9
Q 100.5 75.9 100.45 75.9 100.1 75.85 99.8 75.85 99.75 75.85 99.7 75.85 96.2 75.3 93.5 73.9
L 93.45 73.85
Q 93.25 73.75 93.05 73.7 93.05 73.65 93 73.65 91 72.55 89.4 71.1 89.4 71.05 89.4 71 89.25 70.85 89.05 70.7 89.05 70.65 89 70.65 88.85 70.45 88.65 70.3
L 88.65 70.25
Q 86.95 68.55 85.75 66.3
L 85.7 66.25
Q 85.65 66 85.5 65.85
L 85.5 65.8
Q 84.2 63.3 83.75 60.05 83.75 60 83.75 59.95 83.8 59.6 83.65 59.4
L 83.65 59.35
Q 83.65 59.3 83.65 59.25 83.65 58.9 83.65 58.5 83.65 58.45 83.65 58.4 83.65 58.05 83.65 57.75 83.65 57.7 83.65 57.65 83.65 57.2 83.65 56.75 83.65 56.7 83.65 56.65 83.65 56.35 83.65 56.05 83.65 56 83.65 55.95 83.8 55.75 83.75 55.35 83.75 55.3 83.75 55.25
L 83.75 55.2
Q 83.75 55.1 83.75 55.05 84.55 48.95 87.7 45.3 87.85 45.1 87.95 44.9 88.35 44.55 88.7 44.2
M 82.65 78.5
Q 89.55 78.5 96.4 78.5 102 78.45 107.35 78.75
L 107.55 78.7
Q 108 79 108.2 79.6
L 108.2 79.65
Q 108.2 80.85 108.2 82
L 108.2 82.1
Q 107.75 83.2 106.2 83.2 104.85 83.2 103.45 83.2 96.6 83.2 89.75 83.2 82.85 83.2 76 83.2 69.1 83.2 62.25 83.2
L 62.25 83.15
Q 61.8 82.65 61.5 82.05
L 61.5 82
Q 61.5 80.85 61.5 79.65 61.65 79 62.15 78.7
L 62.2 78.7
Q 65.35 78.4 68.95 78.45 75.8 78.5 82.65 78.5
M 61.5 42.05
Q 61.7 41.2 62.55 40.95 62.6 40.9 62.65 40.9 68.45 40.9 74.3 40.9 74.35 40.9 74.4 40.9 74.9 41.05 75.25 41.35 75.25 41.4 75.3 41.4 75.4 41.6 75.5 41.85
L 75.55 41.85 75.55 41.9
Q 75.55 41.95 75.55 42 75.55 43.25 75.55 44.55
L 75.55 44.6
Q 75.55 44.65 75.5 44.65 75.35 44.85 75.3 45.15 74.55 45.75 73 45.7 68.9 45.6 64.8 45.7 62.9 45.75 61.65 45.3 61.65 45.25 61.65 45.2 61.4 43.85 61.5 42.05
M 75 55.25
L 75.05 55.25
Q 75.35 55.6 75.5 55.95 75.55 56 75.55 56.05 75.55 57.35 75.55 58.65 75.55 58.7 75.55 58.75
L 75.5 58.8
Q 75.25 59.35 74.7 59.55 74.7 59.6 74.7 59.65 74.65 59.65 74.6 59.65 68.4 59.65 62.2 59.65 61.8 59.55 61.7 59.25 61.4 57.9 61.5 56.1 61.6 55.95 61.65 55.75 61.65 55.7 61.65 55.65 61.85 55.45 62.1 55.25
L 62.1 55.2
Q 62.35 55.15 62.5 55.05
L 62.55 55.05
Q 68.5 55.05 74.45 55.05 74.5 55.05 74.55 55.05
L 74.6 55.05
Q 74.75 55.2 75 55.25
M 61.5 72.6
Q 61.5 71.45 61.5 70.25 61.65 69.4 62.5 69.2
L 62.5 69.15
Q 68.45 69.15 74.45 69.15 74.5 69.15 74.55 69.15 75.25 69.4 75.5 70.1 75.55 70.1 75.55 70.15 75.55 71.45 75.55 72.75 75.55 72.8 75.55 72.85
L 75.5 72.85
Q 75.3 73.55 74.6 73.75
L 74.55 73.75
Q 68.15 73.75 61.8 73.75
L 61.75 73.75
Q 61.6 73.6 61.5 73.4 61.5 73.35 61.5 73.3 61.5 73 61.5 72.7 61.5 72.65 61.5 72.6
M 111.85 49.2
Q 111.8 49.2 111.75 49.25 110.75 49.65 109.9 50.2 109.9 50.25 109.9 50.3
L 109.85 50.3
Q 109.65 50.45 109.45 50.6
L 109.45 50.65
Q 106.9 53.25 104.35 55.8 100.95 59.2 97.5 62.65 95.85 60.55 94.2 58.5 93.95 58.2 93.75 57.9 92.8 56.25 90.95 55.6
L 90.95 55.55
Q 90.5 55.5 90.05 55.5 90.05 55.55 90.05 55.6 90 55.6 89.95 55.6 88.45 55.9 87.95 57.25 87.95 57.35 87.95 57.4 87.95 57.45 87.95 57.5
L 87.9 57.5
Q 87.9 58.15 87.9 58.8
L 87.95 58.8
Q 88.75 60.5 90.1 61.7 91.2 62.65 92.3 63.7 93.35 64.75 94.4 65.8 95.05 66.6 95.8 67.3
L 95.85 67.3
Q 96 67.5 96.2 67.7
L 96.25 67.7
Q 96.4 67.9 96.55 68.05 96.6 68.1 96.65 68.1 96.8 68.3 96.95 68.45
L 97 68.45
Q 98.8 69.65 100.35 68.3 101.65 67.15 102.85 65.95 103.1 65.75 103.3 65.55
L 103.3 65.5
Q 103.55 65.3 103.75 65.1 103.75 65.05 103.75 65 104.05 64.8 104.3 64.55
L 104.3 64.5
Q 104.55 64.25 104.8 64 104.85 64 104.85 63.95 105.45 63.45 105.9 62.85
L 105.9 62.8
Q 109.35 59.4 112.75 56
L 112.75 55.95
Q 113.25 55.5 113.75 55
L 113.75 54.95
Q 113.95 54.75 114.2 54.55
L 114.2 54.5
Q 114.5 54.3 114.75 53.95
L 114.75 53.9
Q 115.25 53.5 115.35 52.75 115.35 52.7 115.35 52.65
L 115.4 52.65
Q 115.5 52.05 115.35 51.65
L 115.35 51.6
Q 114.8 49.6 112.6 49.2
L 112.6 49.15
Q 112.2 49.15 111.85 49.15
L 111.85 49.2 Z"/>
</g>
</defs>

<g transform="matrix( 1, 0, 0, 1, 0,0) ">
<use xlink:href="#Layer0_0_FILL"/>
</g>
</svg>
