
<svg xmlns="http://www.w3.org/2000/svg" version="1.1" xmlns:xlink="http://www.w3.org/1999/xlink" preserveAspectRatio="none" x="0px" y="0px" width="179px" height="125px" viewBox="0 0 179 125">
<defs>
<g id="Layer0_0_FILL">
<path fill="#FFFFFF" stroke="none" d="
M 224.9 92.85
Q 224.15 93.65 224.15 95 224.15 101.6 224.15 108.25 224.15 109.7 224.95 110.5 225.75 111.25 227.2 111.3
L 240.35 111.3
Q 241.75 111.25 242.55 110.55 243.4 109.8 243.4 108.55 243.4 107.3 242.6 106.6 241.8 105.85 240.4 105.85 233.8 105.85 230.5 105.9 229.95 105.9 229.75 105.7 229.55 105.5 229.55 104.95 229.6 101.6 229.6 94.95 229.55 93.6 228.85 92.85 228.1 92.05 226.9 92.05 225.65 92.05 224.9 92.85
M 226.3 13.5
Q 226.3 13.6 226.25 13.65 225.2 14 224.7 14.7 224.15 15.35 224.15 16.5 224.15 23.1 224.15 29.75 224.15 31.1 224.9 31.95 225.65 32.8 226.85 32.8 228.05 32.85 228.8 32 229.6 31.15 229.6 29.8
L 229.6 20.25
Q 229.6 19.35 229.75 19.15 229.9 19 230.8 19
L 235 19
Q 240 19 240.6 19 241.75 19 242.5 18.3 243.3 17.65 243.4 16.65 243.5 15.5 242.95 14.75 242.4 13.95 241.3 13.65
L 241.25 13.5 226.3 13.5
M 318.35 92.2
Q 317.55 92.5 317.1 93.2 316.6 93.9 316.6 94.8 316.6 102.35 316.6 104.7 316.65 105.4 316.4 105.65 316.2 105.9 315.5 105.9 313.15 105.85 305.7 105.85 304.45 105.85 303.6 106.6 302.8 107.35 302.75 108.5 302.75 109.7 303.6 110.5 304.45 111.25 305.7 111.3 313.15 111.3 319.15 111.25 320.45 111.25 321.25 110.5 322 109.7 322 108.4
L 322 101.65
Q 322 96 322 94.85 322.05 93.7 321.35 92.9 320.8 92.3 319.95 92.1 319.15 91.9 318.35 92.2
M 296.75 22
Q 294.85 20.45 293.15 19.4 284.9 14.25 275.7 13.65
L 275.65 13.5 271.25 13.5 271.2 13.65
Q 258.45 14.4 248.15 23.4
L 246.45 24.85
Q 245.95 25.5 244.55 27.1 243.3 28.5 242.7 29.4 236.05 38.6 235.2 48.65 234.95 51.45 235 54.75 235.05 57.4 235.35 60.8 235.95 68.2 237.75 75.85 241.05 89.95 250.9 100.05 251.05 100.2 251.3 100.45
L 251.65 100.9
Q 254.5 103.5 254.9 103.85 256.8 105.5 258.3 106.65 264.1 111.1 270.8 111.7 270.9 111.7 271.05 111.8 271.1 111.8 271.25 111.85
L 275.3 111.85
Q 275.4 111.75 275.55 111.75 275.9 111.65 276.45 111.6 277.5 111.45 277.6 111.4 280.75 110.75 284 109 286.5 107.65 289.7 105.25 292 103.5 294.7 100.9 301.5 94.2 305.25 85.9 309.05 77.55 310.65 67.2 311.9 59.1 311.6 50.1 311.35 43.2 308.05 36.25 305.1 30 300.3 25.15 300.25 25.1 300.05 24.85 298 23 296.75 22
M 304.6 42.2
Q 305.55 44.9 305.95 47.7 306.35 50.4 306.25 52.85 306.2 58.8 305.55 64.05 304.9 69.5 303.55 74.6 301.6 81.8 298.2 87.65 294.6 93.8 289.25 98.55 285.45 101.9 281.9 103.95 277.2 106.7 272.45 106.55 267.75 106.4 263.25 103.4 252.25 96.15 246.55 84.7 244.9 81.3 243.7 77.15 242.7 73.7 241.9 69.25 240.3 60.2 240.5 51 240.75 42.1 246 34.2 252.75 24.05 263.7 20.55 277.55 16.1 290.1 23.95 300.45 30.4 304.6 42.2
M 262.1 87.95
Q 261.95 89.05 262.65 89.9 263.3 90.75 264.55 90.95 266.85 91.3 269.4 91.5 271.55 91.7 273.25 91.65 276.4 91.55 278.4 91.35 280.65 91.15 282.55 90.75 283.85 90.45 284.55 89.55 285.25 88.7 285.05 87.55 284.85 86.35 283.85 85.75 282.85 85.1 281.6 85.4 279.15 85.9 276.3 86.1 274.05 86.2 271 86.15 268.45 86.05 265.45 85.6 264.2 85.4 263.25 86.05 262.3 86.7 262.1 87.95
M 278.6 73.45
Q 277.25 72.75 275.8 73.5 273.7 74.65 270.6 76.55 269.65 77.1 269.35 78.15 269.05 79.2 269.55 80.15 270.1 81.15 271.15 81.45 272.2 81.8 273.2 81.25 275.5 80 278.6 78.2 279.3 77.8 279.6 77.15 279.9 76.5 279.9 75.4 279.9 74.1 278.6 73.45
M 266.35 60
Q 267.35 60.9 268.45 60.85 269.55 60.8 270.35 59.9 271.15 58.95 271 57.9 270.9 56.75 269.9 55.9 267.1 53.45 263.95 52.2 260.6 50.95 256.65 50.95 254.35 50.95 252.05 51.55 249.6 52.15 247.4 53.35 246.2 54 245.9 55.05 245.4 56.75 246.75 57.9 248.1 59.1 249.85 58.2 253.2 56.45 256.65 56.35 262 56.15 266.35 60
M 280.4 60.6
Q 281.35 58.75 283.2 57.75 286.1 56.15 289.8 56.45 293.05 56.7 296.8 58.3 297.95 58.8 298.95 58.4 300 58 300.45 56.9 300.9 55.85 300.5 54.85 300.05 53.8 299 53.35 295.75 51.9 292.75 51.35 289.35 50.7 286.15 51.15 281.95 51.7 279 54 275.9 56.4 274.7 60.3 273.75 63.4 273.75 66.9 273.75 67.2 273.75 67.8 273.75 68.35 273.75 68.75 273.85 69.85 274.65 70.6 275.45 71.35 276.55 71.3 277.65 71.3 278.4 70.5 279.15 69.75 279.15 68.65 279.15 65.8 279.3 64.5 279.6 62.15 280.4 60.6
M 322 16.35
Q 322 15.25 321.45 14.6 320.95 13.95 319.9 13.65
L 319.85 13.5 304.9 13.5
Q 304.9 13.6 304.85 13.65 303.55 13.9 302.95 15.3 302.4 16.65 303.25 17.8 304.15 19 305.75 19 310.95 19.05 315.65 19 316.2 19 316.4 19.2 316.65 19.4 316.6 19.95 316.55 23.8 316.6 30.05 316.6 31.2 317.4 32 318.15 32.8 319.3 32.8 320.4 32.85 321.2 32.05 322 31.25 322 30.05 322.05 25.5 322 16.35 Z"/>
</g>
</defs>

<g transform="matrix( 1, 0, 0, 1, -183.55,-0.15) ">
<use xlink:href="#Layer0_0_FILL"/>
</g>
</svg>
