
<svg xmlns="http://www.w3.org/2000/svg" version="1.1" xmlns:xlink="http://www.w3.org/1999/xlink" preserveAspectRatio="none" x="0px" y="0px" width="179px" height="125px" viewBox="0 0 179 125">
<defs>
<g id="Layer0_0_FILL">
<path fill="#FFFFFF" stroke="none" d="
M 118.05 34.55
Q 116.65 33.6 114.5 32.75 110.55 31.1 105.75 30.2 101.85 29.45 96.75 29.05 86.65 28.25 77.25 29.45 73.7 29.95 70.8 30.6 67.4 31.35 64.55 32.5 62.65 33.3 61.3 34.1 59.65 35.1 58.5 36.4 57 38 56.75 39.7 56.4 41.7 57.85 43.65 58.15 44.1 58.8 45.05 59.35 45.85 59.8 46.35 72.1 59.95 78.35 66.7 79.3 67.7 79.7 68.75 80.1 69.85 80.1 71.15 80.05 73.35 80.05 76.6 80.05 78.4 80.05 82.05
L 80.1 82.05 80.1 93.65
Q 80.1 94.5 80.3 95.1 80.65 95.9 81.3 96.15 82 96.45 82.75 96.1 83.1 96 83.4 95.75 83.6 95.6 83.95 95.25
L 91.15 89.05
Q 95.9 85 97.2 83.85 98.05 83.15 98.45 82.3 98.85 81.45 98.85 80.3 98.8 78.7 98.8 75.55 98.8 72.35 98.8 70.75 98.75 69.75 99.1 68.9 99.45 68.1 100.1 67.35 110.75 55.65 114.8 51.2 115.9 50 118.15 47.55 120.1 45.4 121.25 43.6 122.35 41.9 122.3 40.4 122.3 38.9 121.05 37.25 119.9 35.75 118.05 34.55
M 89.5 33.35
Q 94.45 33.35 98.45 33.8 103.15 34.3 107.2 35.35 108.8 35.8 110 36.25 111.5 36.85 112.65 37.55 113.45 38.05 114 38.6 114.8 39.5 114.8 40.4 114.8 41.3 114 42.2 113.4 42.8 112.6 43.3 111.95 43.7 111.05 44.1 108.9 45.05 106.3 45.7 104.2 46.2 101.35 46.65 93.25 47.85 84.6 47.3 80 47.05 76.65 46.5 72.4 45.8 68.9 44.45 67.65 44 66.85 43.55 65.8 42.95 65.05 42.2 64.2 41.3 64.2 40.4 64.2 39.45 65.05 38.6 65.7 37.9 66.65 37.35 67.35 36.95 68.45 36.5 71.05 35.45 74.25 34.75 76.75 34.25 80.25 33.8 84.75 33.3 89.5 33.35 Z"/>
</g>
</defs>

<g transform="matrix( 1, 0, 0, 1, 0,0) ">
<use xlink:href="#Layer0_0_FILL"/>
</g>
</svg>
