
<svg xmlns="http://www.w3.org/2000/svg" version="1.1" xmlns:xlink="http://www.w3.org/1999/xlink" preserveAspectRatio="none" x="0px" y="0px" width="402px" height="402px" viewBox="0 0 402 402">
<defs>
<g id="Layer0_0_FILL">
<path fill="#FFFFFF" stroke="none" d="
M 384.4 132.9
L 376.1 132.9
Q 372.05 132.9 369.15 135.75 366.3 138.65 366.3 142.7
L 366.3 507.5
Q 366.3 511.6 369.15 514.5 372.05 517.35 376.1 517.35
L 384.4 517.35
Q 388.45 517.35 391.35 514.5 394.2 511.55 394.2 507.5
L 394.2 288.55 394.2 152.15 394.2 142.7
Q 394.2 138.65 391.35 135.75 388.45 132.9 384.4 132.9
M 369.85 142.7
Q 369.85 140.1 371.7 138.25 373.5 136.45 376.1 136.45
L 384.4 136.45
Q 387 136.45 388.8 138.25 390.65 140.1 390.65 142.7
L 390.65 153.65 390.65 290.05 390.65 507.5
Q 390.65 510.1 388.8 511.95 387 513.75 384.4 513.75
L 376.1 513.75
Q 373.5 513.75 371.7 511.95 369.85 510.1 369.85 507.5
L 369.85 142.7 Z"/>

<path fill="#000000" stroke="none" d="
M 390.65 153.65
Q 385.319921875 156.08515625 380.25 159.25
L 380.25 295.65
Q 385.319921875 292.48515625 390.65 290.05
L 390.65 153.65
M 519.5 167.4
Q 510.25 165.05 491.65 159.25 473.1 153.45 463.8 151.1 448.35 147.2 435.95 146.2 413.434765625 144.4541015625 394.2 152.15
L 394.2 288.55
Q 413.434765625 280.8541015625 435.95 282.6 448.35 283.55 463.8 287.5 473.1 289.85 491.65 295.65 510.25 301.4 519.5 303.75 535 307.7 547.35 308.65 578.3 311.05 603.05 295.65
L 603.05 159.25
Q 578.3 174.7 547.35 172.3 535 171.35 519.5 167.4 Z"/>
</g>

<g id="Layer0_0_MEMBER_0_FILL">
<path fill="#000000" stroke="none" d="
M 432.15 276.85
Q 432.15 272.75 429.25 269.85 426.35 266.95 422.25 266.95
L 412 266.95
Q 407.9 266.95 405 269.85 402.1 272.75 402.1 276.85
L 402.1 727.1
Q 402.1 731.25 405 734.1 407.9 737 412 737
L 422.25 737
Q 426.35 737 429.25 734.1 432.15 731.2 432.15 727.1
L 432.15 276.85 Z"/>
</g>

<g id="Layer0_0_MEMBER_1_FILL">
<path fill="#000000" stroke="none" d="
M 437.3 265.5
Q 437.3 257.15 431.4 251.2 425.45 245.3 417.1 245.3 408.75 245.3 402.85 251.2 396.95 257.15 396.95 265.5 396.95 273.85 402.85 279.75 408.75 285.65 417.1 285.65 425.45 285.65 431.4 279.75 437.3 273.85 437.3 265.5 Z"/>
</g>
</defs>

<g transform="matrix( 0.899993896484375, 0, 0, 0.899993896484375, -205.85,-85.25) ">
<use xlink:href="#Layer0_0_FILL"/>
</g>

<g transform="matrix( 0.7291412353515625, 0, 0, 0.7291412353515625, -167.8,-158.7) ">
<use xlink:href="#Layer0_0_MEMBER_0_FILL"/>
</g>

<g transform="matrix( 0.7291412353515625, 0, 0, 0.7291412353515625, -167.8,-158.7) ">
<use xlink:href="#Layer0_0_MEMBER_1_FILL"/>
</g>
</svg>
