
<svg xmlns="http://www.w3.org/2000/svg" version="1.1" xmlns:xlink="http://www.w3.org/1999/xlink" preserveAspectRatio="none" x="0px" y="0px" width="179px" height="125px" viewBox="0 0 179 125">
<defs>
<g id="Layer0_0_FILL">
<path fill="#FFFFFF" stroke="none" d="
M 131.55 90
Q 120.9 90 110.25 90 92.6 90 75 90 76.85 94.6 80.6 97.3 81.95 98.25 83.7 98.6 89.6 99.8 96.85 99.65 105.7 99.45 114.55 99.75 128.55 100.25 131.55 90
M 138.45 82.3
Q 139.45 78.3 137.25 75.6 136.35 74.55 134.85 74.3 129.25 73.35 122.65 73.45 105 73.65 87.4 73.65 82.95 73.65 78.55 73.25 69.65 72.45 67.85 78.35 67.85 78.45 67.85 78.55 67.85 80.35 67.85 82.1 68.6 84.05 69.9 85.4 70.65 86.2 71.85 86.25 85.25 87 99.2 86.9 116.85 86.85 134.5 86.85 137.6 85.75 138.45 82.3
M 100.45 82.2
Q 99.25 81.3 97.45 81.2 92.55 81.05 88.95 83.5 88.85 83.5 88.75 83.5 87.9 83.5 87 83.5 86.7 83.3 86.45 83.05 83.55 80.3 78.1 80.15
L 78.1 80.25
Q 75.05 81.3 73.6 83.9 73.5 83.9 73.4 83.9 71.3 84.5 71.4 81.9 74.25 77 81.45 77.7 83.2 77.9 84.6 78.8 86 79.65 87.6 80.35 88.25 80.35 88.95 80.35 89.05 80.35 89.15 80.35 92 77.65 97.6 78.05 98.85 78.1 99.85 78.8 102.3 80.4 105.75 80.75 109.15 81.1 111.15 79.6 113.1 78.2 115.55 77.2 121.85 77.35 125.7 80.05 126.65 80.7 128.4 80.55 130.4 79.2 132.75 78.3 132.9 78.3 133.1 78.35 134 78.65 133.9 79.95 133.9 80.05 133.9 80.15 131.5 83.25 126.2 83.1 124.95 83.05 123.95 82.35 120.4 79.8 115.45 80.8 114.4 81.05 113.55 81.7 111.2 83.45 107.7 84.05 107.6 84.05 107.5 84.05 106.7 84.05 105.9 84.05 102.55 83.8 100.45 82.2
M 103.15 62.55
Q 98.7 62.6 94.3 62.25 79.6 61.1 75.55 70.3 85.45 70.65 95.85 70.65 113.65 70.65 130.95 70.3 128.95 66.35 125.3 64.05 124.05 63.3 122.45 63.2 113.05 62.45 103.15 62.55
M 90.65 35.5
Q 91.25 33.15 91.15 30.25 91.05 30.25 90.95 30.25 80.5 30.25 70.05 30.25 70.55 19.4 78.75 16.45 81.7 15.4 85.05 14.9 85.1 14.9 85.15 14.85 85.95 13.85 85.4 12.55 84.6 11.5 83.2 11.7 67.4 13.75 66.3 30.25 66.2 30.25 66.1 30.25 56.45 30.25 46.8 30.25 46.7 30.25 46.6 30.25 46.6 32.95 46.7 35.6
L 46.8 35.6
Q 46.9 35.6 47 35.6 48.4 35.45 49.35 35.8 50.55 51.35 51.6 66.95 52.75 83.55 54.25 99.65 54.35 99.65 54.45 99.65 66.65 99.8 78.35 99.45 78.2 99.45 78.15 99.4 73.65 95.75 71.4 89.8 67.6 88.7 65.95 85.45 65.4 84.3 65.2 83.05 63.85 72.65 72 70.5 72.1 70.5 72.15 70.45 75.45 61 86.6 59.45 86.6 59.35 86.6 59.25 87.65 47.95 88.4 36.4 88.5 36.4 88.5 36.35 88.65 35.15 90.35 35.6 90.65 35.6 90.65 35.5 Z"/>
</g>
</defs>

<g transform="matrix( 1, 0, 0, 1, 0,6.8) ">
<use xlink:href="#Layer0_0_FILL"/>
</g>
</svg>
