
<svg xmlns="http://www.w3.org/2000/svg" version="1.1" xmlns:xlink="http://www.w3.org/1999/xlink" preserveAspectRatio="none" x="0px" y="0px" width="179px" height="125px" viewBox="0 0 179 125">
<defs>
<g id="Layer0_0_FILL">
<path fill="black" stroke="none" d="
M 81.25 92.9
Q 81 93.15 81 94.3
L 81 104.1
Q 81 105.75 80.7 106.05 80.4 106.35 78.75 106.35
L 56.15 106.35
Q 54.45 106.35 54.2 106.6 53.9 106.9 53.9 108.5
L 53.9 120.55
Q 53.9 121.15 53.95 121.4 54.05 121.85 54.35 122.2
L 58.45 122.2 58.5 111.15
Q 58.5 110.05 58.75 109.75 59.05 109.45 60.3 109.45
L 84.1 109.45
Q 85.2 109.45 85.45 109.2 85.75 108.95 85.7 107.85 85.6 101 85.55 97.6 85.55 96.35 85.8 96.05 86.1 95.8 87.35 95.8
L 110.8 95.8
Q 112.95 95.8 113.3 95.4 113.65 95.05 113.6 92.85 113.55 85.65 113.55 82 113.55 80.95 113.8 80.7 114.05 80.45 114.9 80.45
L 129.15 80.45 129.15 77.25 110.65 77.25
Q 109.15 77.25 108.9 77.55 108.6 77.85 108.6 79.35 108.6 79.9 108.6 80.45 108.6 88.65 108.6 91.1 108.65 91.9 108.3 92.3 107.95 92.65 107.2 92.6 106.1 92.65 105.55 92.65
L 82.7 92.65
Q 81.5 92.65 81.25 92.9
M 84.7 60.3
Q 84.5 60.1 83.55 60.1 80 60.05 77.35 58.5 76.85 58.15 76.6 58.25 76.35 58.35 76.15 58.95 72.45 71.6 65 96.85 64.3 99.25 65.65 100.95 65.9052734375 101.2837890625 66.2 101.55 67.43125 102.640234375 69.4 102.6 71.233203125 102.6 72.3 101.55 73.1576171875 100.738671875 73.55 99.3 75.7 91.6 79 80.35 82.7 67.75 84.55 61.45 84.85 60.55 84.7 60.3
M 114.55 10.75
Q 113.05 9.45 110.95 10.1 110 10.45 109.15 11.15 108.5 11.7 107.75 12.65 105.75 15.35 104.75 16.65 103 19.05 101.8 20.7 100.55 22.45 100.05 23 99.3 23.8 98.65 24.05 98 24.3 96.85 24.2 96.2 24.15 93.95 23.75 90.05 23 87.55 22.9 84.05 22.8 81.15 23.8 80.05 24.2 79.85 24.55 79.7 24.9 80.25 25.95 82.283203125 29.8259765625 83.7 32.45 84.530078125 33.95625 85.15 35.05 85.6 35.85 85.6 36.5 85.6 37.15 85.15 37.9 84.25 39.3 82.95 41.8 82.7 42.35 82.35 42.5 82 42.6 81.4 42.3 79.85 41.35 76.7 39.65 76.2 39.4 76 39.05 75.8 38.7 75.85 38.15
L 75.85 32.5 76.05 32.5 76.05 32.45
Q 76.0501953125 27.594921875 76.1 26.6 76.1 25.9 75.8 25.55 75.45 25.25 74.75 25.25 72 25.4 69.95 25.7 67.4 26.1 65.25 26.9 62.05 28.15 54.4 31.05 53.1232421875 31.5142578125 52.5 32.45 52.083984375 33.1267578125 52 34.05 51.45 38.7 50.4 48 50.3 48.75 50.15 50.2 50.05 51.5 50.15 52.45 50.5 55.15 52.7 55.8 54.9 56.45 56.65 54.55 57.25 53.85 57.65 52.85 58 52.05 58.15 50.95 59.6 41.9 59.85 40.35 60.05 39 60.75 38.15 61.45 37.3 62.75 36.95 63.05 36.85 65.7 36.05 66.95 35.7 67.3 35.9 67.65 36.05 68 37.35 70.45 45.4 71.85 49.95 72.05 50.7 72.45 50.95 72.85 51.2 73.65 50.95 81.05 48.25 88.15 45.7 88.75 45.5 89.05 45.1 89.3 44.75 89.35 44.1 89.4 43.05 89.9 34.1 90 32.8 90.25 32.55 90.3041015625 32.4958984375 90.4 32.45 90.784375 32.241015625 91.85 32.2 98.95 31.8 101.5 31.65 103.45 31.6 104.6 30.05
L 114.15 17.3
Q 115.25 15.8 115.55 14.25 116 12.05 114.55 10.75
M 97.05 46
L 96.15 46.05
Q 95.55 46.1 95.2 46.15 90.85 46.9 85.15 49.05 78.65 51.7 75.4 52.95 74.8 53.15 74.75 53.6 74.7 54 75.15 54.55 77.1 56.95 80.05 57.85 82.95 58.8 85.95 57.95 91.7 56.3 94.7 55.6 96.3 55.25 97.4 55.75 98.5 56.2 99.4 57.5 101 59.75 103.35 63 104.7 64.85 107.35 68.5 108.75 70.4 110.5 71.05 112.3 71.75 113.75 70.8 115.15 69.9 115.25 67.95 115.3 66.7 114.9 65.5 114.6 64.65 114 63.6 113.2 62.45 112.85 61.85 110.15 57.7 108.15 55 105.5 51.35 102.95 48.55 100.5 45.85 97.05 46
M 86.85 10.5
Q 86.5 7.95 84.75 6.1 83.95 5.2 82.7 4.55 81.75 4.05 80.3 3.6
L 77.7 3.6
Q 76.6 4 76.05 4.2 73.65 5.15 72.3 7.35 70.95 9.55 71.15 12.25 71.3 14.7 73.05 16.65 74.8 18.65 77.25 19.15 79.9 19.7 82.3 18.65 84.65 17.6 85.95 15.25 87.2 13.05 86.85 10.5 Z"/>
</g>
</defs>

<g transform="matrix( 1, 0, 0, 1, 0,0) ">
<use xlink:href="#Layer0_0_FILL"/>
</g>
</svg>
