
<svg xmlns="http://www.w3.org/2000/svg" version="1.1" xmlns:xlink="http://www.w3.org/1999/xlink" preserveAspectRatio="none" x="0px" y="0px" width="402px" height="402px" viewBox="0 0 402 402">
<defs>
<g id="Layer0_0_FILL">
<path fill="#060606" stroke="none" d="
M 558.05 192.35
Q 535.7 166.45 498.25 154.45 449.3 138.8 407.15 162 393.55 169.45 378.65 182.3 364.75 195.05 360 198.5 349.3 189.15 341.5 182.4 326.65 169.55 313.1 162.1 270.8 138.75 221.8 154.45 184.05 166.55 161.55 193.9 140.8 219 135.5 253.6 130.45 286.45 140.1 321.35 149.8 356.2 171.9 384.85 185 401.85 205.4 421.35 217.25 432.65 244.95 456.85 272.6 481 287.4 495.15 311.35 518.05 329.65 540 338.65 550.75 349.55 564.15 356.7 572.1 361 571.95 365.25 571.75 372.25 563.2 382.95 549.1 391.75 537.85 406.95 518.4 431.55 494.35 446.65 479.55 476.95 452.25 507.25 424.9 519.6 412.8 540.9 392 551.25 377.3 571.95 347.95 580.65 314.35 589.5 280.35 584.25 249.2 578.6 216.25 558.05 192.35
M 366.35 237.85
Q 367.1 237.3 367.6 236.55 393.1 198.55 419.7 184.25 452.7 166.5 493.7 180.35 512.05 186.55 526.75 199.3 541.65 212.2 550.45 229.85 559.7 248.4 560.95 269.7 562.3 292.55 554.35 316.4 547 338.4 531.9 359.3 519.55 376.35 499.8 395.5 490.7 404.3 463.5 428.4 440.55 448.75 428.4 461.55
L 360 533.5 335.25 505.75
Q 318.5 488.2 286.7 459.55 246.5 423.3 235.5 412.75 207.75 386.15 191.7 365.25 171.9 339.55 165.15 316.85 151.65 271.4 168.3 233.1 176.05 215.25 189.5 202.15 203.1 188.9 220.8 182.05 260 166.95 292.1 180.05 313.95 188.95 334.95 212.95
L 356.45 237.35
Q 357.95 239.1 361.25 239.2 364.35 239.25 366.35 237.85 Z"/>
</g>
</defs>

<g transform="matrix( 0.7432708740234375, 0, 0, 0.7432708740234375, -63.3,-52.05) ">
<use xlink:href="#Layer0_0_FILL"/>
</g>
</svg>
