
<svg xmlns="http://www.w3.org/2000/svg" version="1.1" xmlns:xlink="http://www.w3.org/1999/xlink" preserveAspectRatio="none" x="0px" y="0px" width="179px" height="125px" viewBox="0 0 179 125">
<defs>
<g id="Layer0_0_FILL">
<path fill="#FFFFFF" stroke="none" d="
M 87.05 37.45
Q 85.3 37.45 83.35 38.65 70.35 46.9 54.4 56.7 52.5 57.85 51.6 59.45 50.75 61 50.75 63.25 50.8 66.45 50.8 91.95 50.8 96.25 52.3 97.8 53.85 99.35 58.05 99.35
L 116.9 99.35
Q 120.2 99.3 121.75 97.8 123.25 96.25 123.25 92.9
L 123.25 62.8
Q 123.3 60.85 122.5 59.45 121.75 58 120.05 56.95 101.8 45.7 90.7 38.65 88.8 37.45 87.05 37.45
M 94.85 60.2
Q 96.95 60.2 97.35 60.25 98.95 60.3 99.9 61.2 100.75 62.05 100.85 63.6 101 66.35 100.85 68.85 100.75 70.4 99.95 71.25 99.1 72.1 97.5 72.1 95.2 72.2 92.3 72.15 89.15 72.05 88.9 68.9 88.85 67.75 88.9 64.55 88.95 62.05 89.85 61.15 90.8 60.25 93.25 60.2
L 94.85 60.2
M 85.15 67.8
Q 85.15 70.35 84.25 71.2 83.35 72.1 80.85 72.15
L 79.25 72.15 79.25 72.1 76.5 72.1
Q 73.4 72 73.2 68.85 73.05 66.2 73.2 63.6 73.25 62.05 74.2 61.15 75.1 60.3 76.7 60.25 78.75 60.15 81.7 60.25 84.85 60.3 85.1 63.45 85.2 64.35 85.2 65.6 85.2 66.35 85.15 67.8
M 91.85 75.35
Q 92 75.35 92.3 75.35 96 75.2 97.45 75.4 99.3 75.65 100 76.45 100.75 77.25 100.85 79.15 100.95 80.3 100.85 84.2 100.8 85.5 100.05 86.35 99.25 87.15 98 87.25 94.8 87.55 91.85 87.3 90.55 87.2 89.75 86.35 89 85.5 88.9 84.1
L 88.9 78.6
Q 89 76.05 91.85 75.35
M 84.2 76.3
Q 85.15 77.3 85.15 81.35
L 85.15 84.1
Q 85.05 85.55 84.2 86.4 83.4 87.2 81.95 87.35 80.8 87.45 79.25 87.45 77.4 87.4 76.5 87.4 76 87.35 75.4 87.1 73.7 86.5 73.1 84.15 72.55 81.85 73.25 78.25 73.8 75.3 77.2 75.35
L 79.25 75.35
Q 83.25 75.35 84.2 76.3
M 137.15 48.75
Q 136.2 47.6 135.2 47 111.25 32.15 90.8 19.3 88.85 18 87 18.05 85.2 18.05 83.2 19.3 77.95 22.6 41.55 45.3 38.75 47.05 38.35 47.35 36.6 48.65 35.7 50.15 35.3 50.95 35.7 51.95 37.6 57.4 39.85 57.35 42.1 57.25 45.95 54.85 77.45 35.15 85.6 30.05 86.4 29.55 87 29.5 87.65 29.5 88.4 30 89.55 30.8 97.65 35.8
L 129.65 55.75
Q 131.6 57 133.25 57 134.9 57.05 136.4 55.9 136.7 55.7 137.85 53.7 139 51.75 137.15 48.75 Z"/>
</g>
</defs>

<g transform="matrix( 1, 0, 0, 1, 2.6,3.8) ">
<use xlink:href="#Layer0_0_FILL"/>
</g>
</svg>
