
<svg xmlns="http://www.w3.org/2000/svg" version="1.1" xmlns:xlink="http://www.w3.org/1999/xlink" preserveAspectRatio="none" x="0px" y="0px" width="179px" height="125px" viewBox="0 0 179 125">
<defs>
<g id="Layer0_0_FILL">
<path fill="#FFFFFF" stroke="none" d="
M 126.9 18.05
L 52.15 18.05 52.15 107 126.9 107 126.9 18.05
M 116.5 37.6
L 116.85 43.9 62.35 43.9 61.8 37.8 116.5 37.6
M 104.85 26.3
L 105.1 32 73.85 32.25 73.7 26.5 104.85 26.3
M 103.6 53.75
L 107.85 62.35 113.05 53.8 117 54.05 110.6 67.8 115.65 80.3 111.8 80.3 107.8 73.5 103.6 80.3 99.8 80.3 105.4 67.95 99.4 54 103.6 53.75
M 86.85 54
L 91.95 53.75 98.05 80.3 94.6 80.3 92.65 74.55 86.55 74.55 84.65 80.3 80.5 80.3 86.85 54
M 116.7 84.65
L 116.7 90.9 62.1 90.9 61.65 85 62.1 84.7 116.7 84.65
M 63.55 58.8
L 63.4 54 80.3 53.8 80.6 54.05 80.6 58.65 74.55 59.05 74.35 79.95 74.05 80.3 70 80.3 69.65 79.95 69.45 59.1 63.55 58.8
M 61.65 96.3
L 62.05 96 93.75 95.95
Q 93.7810546875 97.930078125 93.85 101.5 83.1541015625 101.5759765625 61.8 101.7
L 61.65 96.3
M 87 69.85
L 91.5 69.85 89.5 60.8 87 69.85 Z"/>
</g>
</defs>

<g transform="matrix( 0.894378662109375, 0, 0, 0.894378662109375, 9.5,6.65) ">
<use xlink:href="#Layer0_0_FILL"/>
</g>
</svg>
