
<svg xmlns="http://www.w3.org/2000/svg" version="1.1" xmlns:xlink="http://www.w3.org/1999/xlink" preserveAspectRatio="none" x="0px" y="0px" width="402px" height="402px" viewBox="0 0 402 402">
<defs>
<g id="Layer0_0_MEMBER_0_FILL">
<path fill="#3A3838" stroke="none" d="
M 422.2 146.75
Q 406.95 110.65 379.15 82.85 351.3 55.05 315.25 39.8 277.9 24 237 24 196.1 24 158.75 39.8 122.65 55.05 94.85 82.85 67.05 110.65 51.8 146.75 36 184.1 36 225 36 265.9 51.8 303.25 67.05 339.3 94.85 367.15 122.65 394.95 158.75 410.2 196.1 426 237 426 277.9 426 315.25 410.2 351.3 394.95 379.15 367.15 406.95 339.3 422.2 303.25 438 265.9 438 225 438 184.1 422.2 146.75
M 346.05 115.95
Q 367.35 137.25 379.1 164.95 391.2 193.6 391.2 225 391.2 256.35 379.1 285 367.35 312.7 346.05 334.05 324.7 355.35 297 367.1 268.35 379.2 237 379.2 205.6 379.2 176.95 367.1 149.25 355.35 127.95 334.05 106.6 312.7 94.85 285 82.75 256.35 82.75 225 82.75 193.6 94.85 164.95 106.6 137.25 127.95 115.95 149.25 94.6 176.95 82.85 205.6 70.75 237 70.75 268.35 70.75 297 82.85 324.7 94.6 346.05 115.95 Z"/>
</g>

<g id="Layer0_0_MEMBER_1_MEMBER_0_FILL">
<path fill="#3A3838" stroke="none" d="
M 267.1 185.85
Q 260.95 181.65 252.3 181.85 210.1 182.7 185.9 221.95 185.55 222.5 185.3 223.65 185.2 224.35 184.8 226.25 186.25 225.15 194.05 219.05 199.6 214.75 203.3 212.4 214.2 205.5 225.25 205.4 223.6 209.7 220.45 217.65 217.75 224.55 216.15 229.35 212 241.85 203.6 266.75 196.45 288.3 191.7 304.35 188.5 315.15 192.55 322.25 196.55 329.2 206.3 330.55 214.1 331.65 220.55 330.15 239.25 325.9 253.1 310.35 260.85 301.6 274.15 278.55 272.35 279.85 270.3 281.95 269.1 283.15 266.8 285.6 260.85 291.8 255.25 295.8 248.6 300.55 241.55 302.95 240.35 303.35 238.75 303.2 237.15 303 236.1 302.35 235.6 302 235.7 300.35 235.8 298.95 236.2 297.5 236.55 296.2 237.3 294.4 238.25 292.4 238.65 291.35 249.65 264.85 255.1 251.6 264.7 228.4 271.4 211.7 274.65 203.55 273.95 196.75 273.3 190.1 267.1 185.85 Z"/>
</g>

<g id="Layer0_0_MEMBER_1_MEMBER_1_FILL">
<path fill="#3A3838" stroke="none" d="
M 242.9 127.9
Q 234.7 136.1 234.7 147.7 234.7 159.3 242.9 167.5 251.1 175.7 262.7 175.7 274.3 175.7 282.5 167.5 290.7 159.3 290.7 147.7 290.7 136.1 282.5 127.9 274.3 119.7 262.7 119.7 251.1 119.7 242.9 127.9 Z"/>
</g>
</defs>

<g transform="matrix( 0.899993896484375, 0, 0, 0.899993896484375, -12.45,-1.95) ">
<use xlink:href="#Layer0_0_MEMBER_0_FILL"/>
</g>

<g transform="matrix( 0.899993896484375, 0, 0, 0.899993896484375, -12.45,-1.95) ">
<use xlink:href="#Layer0_0_MEMBER_1_MEMBER_0_FILL"/>
</g>

<g transform="matrix( 0.899993896484375, 0, 0, 0.899993896484375, -12.45,-1.95) ">
<use xlink:href="#Layer0_0_MEMBER_1_MEMBER_1_FILL"/>
</g>
</svg>
