
<svg xmlns="http://www.w3.org/2000/svg" version="1.1" xmlns:xlink="http://www.w3.org/1999/xlink" preserveAspectRatio="none" x="0px" y="0px" width="179px" height="125px" viewBox="0 0 179 125">
<defs>
<g id="Layer0_0_FILL">
<path fill="#FFFFFF" stroke="none" d="
M 129.6 48.1
Q 127.65 42.65 124.45 37.85 121.35 33.2 117.25 29.4 113.75 26.2 109.9 23.8 101.9 18.85 92.9 17.3 87.4 16.4 81.95 16.7 77.1 17 72.35 18.25 64.15 20.45 57.1 25.45 52.85 28.45 49.25 32.45 46.2 35.85 44.05 39.45 40.65 45.1 38.9 51.05 37.3 56.75 37.1 62.5 36.95 65.35 37.15 67.85 37.4 70.65 37.85 73.05 38.65 77.35 40.15 81.25 41.95 85.9 44.6 90.05 45.9 92.05 47.4 93.95
L 48.25 95
Q 50.75 98 53.9 100.7 56.75 103.15 59.9 105.05 64.75 108 69.95 109.7 74.3 111.1 78.8 111.65 83.2 112.25 87.95 111.9 92.45 111.65 96.9 110.45 101.65 109.2 106.1 107 112.3 103.85 117.25 99.25 122.25 94.6 125.75 88.75 129.2 82.95 130.85 76.6 132.1 72.05 132.35 67.25 132.7 61.9 131.9 56.85 131.15 52.35 129.6 48.1
M 87.2 25.35
Q 94.05 25.8 100.4 28.6 105.1 30.6 109.05 33.8 112.75 36.75 115.65 40.5 119.15 45 121.15 50.3 122.75 54.35 123.35 58.65 123.9 62.25 123.75 65.8 123.6 70.55 122.25 75.2 120.1 82.5 115.35 88.55 110.85 94.2 104.65 97.85 98.4 101.6 91.2 102.8 87.25 103.5 83.3 103.35 77.65 103.1 72.4 101.35 72.25 101.3 72.15 101.25 72.05 101.2 71.95 101.1
L 75.25 97.4
Q 75.4 97.2 75.7 97.2 80.5 96.9 82.7 96.75
L 89.55 96.3
Q 90.1 96.3 90.55 96 92.6 94.7 106.3 85.95 108.05 84.8 108.65 84.45 108.85 84.35 108.85 84.2 108.9 84.1 108.75 83.9 107.5 82.3 106.8 81.3 106.65 81.1 106.45 81.05 106.3 81 106.1 81.1 101.8 82.6 96.35 84.4 93.25 85.5 91.6 86 91.15 86.15 90.5 86.2 89.7 86.2 89.35 86.2 87.7 86.25 85.3 86.35 82.6 86.4 81.3 86.45 80.7 86.5 80.25 86.55 79.9 86.6 79.75 86.45 79.6 86.35 79.55 86 79.45 84.9 79.6 84.75 79.7 84.6 80.75 84.55 83.4 84.5 88.7 84.35 88.9 84.35 89 84.25 89.1 84.15 89.1 83.9 89.2 81.85 89.35 80.35 89.35 80.05 89.25 79.95 89.15 79.85 88.85 79.85 86.25 79.9 84.5 79.85 82.05 79.8 78.35 79.75 72.5 79.75 72.2 79.75 71.95 79.75 71.75 79.85 71.55 79.9 71.4 80.1 69 82.85 61.1 91.85 59.9 93.25 59.6 93.55 59.45 93.75 59.3 93.75 59.15 93.75 58.95 93.6 57.05 91.9 54.9 89.45
L 53.85 88.1
Q 48.8 81.6 46.8 73.45 46 70.2 45.8 66.35 45.35 57.8 48.55 49.7 50.3 45.35 53.25 41.35 56.35 37.15 60.3 33.9 63.75 31.15 67.9 29.1 73.05 26.65 78.65 25.75 82.85 25.1 87.2 25.35
M 95.4 34.25
Q 95.5 34.1 95.55 34
L 75.8 34 76.05 34.25
Q 80.05 38.25 81.4 39.55 81.6 39.8 81.6 39.9 81.6 40.05 81.3 40.2 79.55 41.05 78.05 42.3 71.45 47.75 68.5 55.3 66.75 59.7 67.3 64.05 68.2 70.85 74.35 74.2 76.45 75.35 78.9 76 81.15 76.55 83.75 76.7 87.3 76.9 90.2 76.45 93.5 75.95 96.35 74.6 101.85 72 103.55 66.65 104.65 63.2 104.05 59.45 103.4 55.05 100.85 50.95 100.6 50.4 100.2 49.8 100 49.45 99.45 48.8 99 48.2 98.8 47.9 98.4 47.35 98.1 47 96.3 44.8 94.45 43.15 92.35 41.35 90.1 40.15 89.85 40 89.85 39.9 89.8 39.8 90 39.6 91.75 37.85 95.2 34.4 95.3 34.35 95.4 34.25
M 84 47.25
Q 84 47.05 84.1 46.95 84.2 46.85 84.4 46.85 86 46.9 87.1 46.85 87.3 46.85 87.4 46.95 87.45 47.05 87.45 47.25 87.45 47.5 87.45 47.95 87.45 48.4 87.4 48.65 87.35 48.85 87.4 48.95 87.5 49.1 87.7 49.15 90.6 49.95 91.3 53.2 91.55 54.2 91.4 54.35 91.25 54.5 90.3 54.5 89.6 54.5 89.25 54.5 88.6 54.5 88.2 54.5 87.9 54.5 87.8 54.45 87.65 54.35 87.6 54.05 87.55 53.45 87.35 53.1 87 52.55 86.35 52.35 85.7 52.15 85.05 52.45 84.55 52.6 84.35 53.15 84.1 53.7 84.25 54.3 84.3 54.45 84.4 54.6 84.5 54.7 84.65 54.85 85.3 55.3 86.35 55.8 88 56.65 88.05 56.7 89.1 57.25 89.4 57.45 90.15 57.95 90.55 58.5 91.75 59.95 91.6 61.9 91.45 64.25 89.9 65.6 89 66.4 87.95 66.7 87.65 66.75 87.5 66.95 87.4 67.1 87.45 67.4 87.45 67.75 87.45 68.45 87.45 68.65 87.35 68.75 87.25 68.8 87.05 68.8 85.55 68.8 84.35 68.8 84.15 68.8 84.1 68.75 84 68.65 84 68.45 84 67.6 84.05 67.15 84.05 67 83.95 66.9 83.9 66.8 83.7 66.75 81.5 66.15 80.55 64.35 79.75 62.85 79.85 60.7 79.85 60.6 79.9 60.5 80 60.45 80.15 60.45 80.65 60.45 81.7 60.45 82.65 60.45 83.3 60.45 83.55 60.45 83.6 60.65 83.6 60.95 83.7 61 83.7 61.1 83.7 61.3 83.7 61.5 83.7 61.65 83.8 62.65 84.2 63.1 84.7 63.7 85.6 63.6 85.95 63.6 86.15 63.6 86.45 63.6 86.65 63.5 87.5 63.2 87.7 62.4 87.85 61.55 87.6 60.95 87.3 60.25 86.6 59.85 85.95 59.5 84.8 58.95 83.55 58.3 83 58.05 80.25 56.55 80.4 53.75 80.5 50.65 83.6 49.3 83.85 49.2 83.95 49.05 84.05 48.9 84.05 48.65 84 48.4 84 47.95 84.05 47.45 84 47.25 Z"/>
</g>
</defs>

<g transform="matrix( 1, 0, 0, 1, 4.75,-1.8) ">
<use xlink:href="#Layer0_0_FILL"/>
</g>
</svg>
