
<svg xmlns="http://www.w3.org/2000/svg" version="1.1" xmlns:xlink="http://www.w3.org/1999/xlink" preserveAspectRatio="none" x="0px" y="0px" width="179px" height="125px" viewBox="0 0 179 125">
<defs>
<g id="Layer0_0_FILL">
<path fill="#FFFFFF" stroke="none" d="
M 100.95 92.5
Q 100.15 92.45 99.85 92.7 99.55 92.95 99.55 93.75 99.6 94.65 99.8 96.55 99.9 98.15 99.35 98.8 98.75 99.55 97.05 99.45 95.1 99.2 94.2 99.15 93.15 99.1 92.9 99.7 92.8322265625 99.937109375 92.8 100.45
L 120.55 100.45
Q 120.25234375 98.491796875 120 95.85 118.796875 83.194921875 115.2 82.55 113.9 82.3 113.55 82.85 113.3 83.15 113.25 84.35 113.2 85.1 113.45 86.8 113.55 88.2 112.9 88.7 112.3 89.15 110.9 89.15 109.25 89 108.45 88.95 107.35 88.85 106.9 89.25 106.4 89.65 106.6 90.75 106.8 91.75 106.4 92.2 106 92.65 104.9 92.55 104.2 92.45 102.95 92.5 101.5 92.5 100.95 92.5
M 100.6 26.4
Q 97.5 23.2 92.25 22.55 86.3 21.9 81.85 24.15 77.3 26.45 75.25 31.35 71.25 40.9 73.9 50.5 75.05 54.7 75.5 55.85 76.7 58.75 78.8 60.55 79.4 61 79.2 61.75
L 79.15 61.75 79.1 61.8
Q 78.5 63.5 78.4 64.7 78.25 66.15 77.45 66.95 76.7 67.65 75.1 68.05 69.1 69.6 64.85 71.3 59.45 73.45 55.3 76.35 53.0490234375 77.946484375 49.55 95.35 49.1267578125 97.626171875 48.55 100.45
L 75.85 100.45
Q 75.862109375 99.1845703125 75.9 97.4 75.95 94.55 75.95 93.65 75.9 92.9 76.1 92.4 76.35 91.85 76.85 91.4 83.35 85.6 90.65 79 94.35 75.6 101.8 68.75 101.95 68.6 102.35 68.15 102.7 67.75 102.45 67.65 101.3 67.15 100.85 65.8 100.4 64.25 100.05 63.55 99.5 62.6 99.3 61.8 99.15 61.3 99.15 60.85 99.2 59.5 100.7 58.5 101.1 58.25 101.45 57.7 101.5 57.6 101.95 56.7 105.05 50.95 105.8 45.5 106.6 39.6 104.65 33.9 103.05 28.95 100.6 26.4
M 108.3 55.75
Q 106.45 58.7 106.15 61.75 105.9 63.6 106.3 65.5 106.6 67.15 106.3 68.3 105.9 69.5 104.6 70.6 100.7 73.9 93 80.6 85.3 87.25 81.35 90.55 80 91.7 79.5 92.75 78.9 93.9 79.2 95.2 79.2 95.65 79.25 96.35 79.25 96.85 79.2 97.2 79 98.35 79.5 98.75 79.95 99.15 81.15 99.05 83.15 98.95 87.9 99.05 88.7 99.05 89 98.85 89.45 98.6 89.3 97.8 88.85 95.5 91.2 95.85 91.9 95.9 93.4 95.8 95.45 95.8 95.8 95.45 96.15 95.1 96.2 93.15 96.3 92.1 96.35 91.6 96.4 90.6 96.4 90 96.35 89.35 96.6 89.1 96.85 88.85 97.5 88.9 99 88.95 101.9 88.9 102.5 88.9 102.8 88.75 103.15 88.55 103 87.95 102.65 86.35 103.5 85.9 104.05 85.55 105.6 85.7 105.9 85.7 106.6 85.7 107.25 85.65 107.6 85.7 108.85 85.9 109.35 85.45 109.85 85 109.7 83.7 109.65 82.95 109.65 81.85 109.7 80.55 109.7 79.9 109.65 79.4 109.7 79.2 109.75 78.75 110.25 78.65 111.3 78.35 113.25 77.65 115.05 77.15 116.55 77.65 119.35 78.5 122.85 77.6 128.45 76.2 131.4 71.1 134.35 66 133 60.15 131.6 54.2 126.6 51.05 121.7 47.95 116.2 49.55 113.45 50.35 111.3 52.25 109.6 53.65 108.3 55.75
M 119.1 59.75
Q 119.15 58 120.45 56.8 121.75 55.6 123.55 55.7 125.35 55.75 126.5 57 127.65 58.3 127.6 60.2 127.5 62 126.2 63.2 124.95 64.4 123.15 64.3 121.4 64.2 120.25 62.9 119.05 61.55 119.1 59.75 Z"/>
</g>
</defs>

<g transform="matrix( 1, 0, 0, 1, 0,0) ">
<use xlink:href="#Layer0_0_FILL"/>
</g>
</svg>
