
<svg xmlns="http://www.w3.org/2000/svg" version="1.1" xmlns:xlink="http://www.w3.org/1999/xlink" preserveAspectRatio="none" x="0px" y="0px" width="179px" height="125px" viewBox="0 0 179 125">
<defs>
<g id="Layer0_0_FILL">
<path fill="#FFFFFF" stroke="none" d="
M 93.85 105.85
Q 91.85 106 91.65 105.95 91.55 105.95 90.7 105.95 88.15 105.95 87.4 107.05 86.7 108.15 87.6 110.65 87.9 111.5 88.75 112.25 89.2 112.7 90.2 113.55
L 93.05 113.55 93.55 113.05
Q 94.9 112.05 95.55 110.2 96.2 108.25 95.6 106.75 95.15 105.7 93.85 105.85
M 76.25 107.65
Q 75.95 111.65 79.2 113.55
L 82.1 113.55
Q 82.35 113.15 82.5 113.05 83.9 111.9 84.5 110.2 85.15 108.3 84.5 106.75 84.05 105.7 82.75 105.8 80.6 106 80.55 106 80.1 105.9 79.25 105.95 78.35 106 77.95 105.95 76.95 105.8 76.6 106.25 76.35 106.6 76.25 107.65
M 99.8 37.8
Q 96.4 35.3 92 35.3 86.1 35.4 80.1 35.3 75.65 35.3 72.1 37.9 67.35 41.4 60.45 46.6 58.85 47.85 58.6 49.15 58.35 50.5 59.4 52.2 61.2 55.15 65 61 65.55 61.85 65.9 62.2 66.45 62.8 67.1 62.8 68.35 62.75 68.65 63.5 68.7 63.75 68.7 65.1 68.7 77.4 68.65 102.05 68.65 103.2 69.05 103.6 69.45 104.05 70.6 104.05 76.7 103.85 82.75 104.05 83.85 104.05 84.25 103.65 84.6 103.25 84.6 102.15 84.5 96.35 84.55 84.75 84.55 83.3 84.6 83.25 84.8 82.5 86.05 82.55 87.25 82.55 87.35 83.3 87.45 83.7 87.3 84.65 87.35 96.4 87.3 102.3 87.3 103.3 87.65 103.65 88 104.05 89 104 95.95 103.9 101.2 104 102.35 104.05 102.75 103.65 103.15 103.25 103.15 102.05 103.1 98.25 103.1 92.65 103.1 86.4 103.1 83.25
L 103.1 65.85
Q 103.1 64 103.2 63.7 103.55 62.7 105.15 62.7 105.7 62.7 106.25 62.15 106.55 61.8 107.05 61 112.2 52.9 112.65 52.2 113.75 50.45 113.5 49.15 113.25 47.85 111.65 46.6 104.95 41.5 99.8 37.8
M 95.1 46.7
Q 95.05 45.85 95.15 45.4 95.3 44.7 95.95 44.4 96.5 44.1 97.1 44.35 97.45 44.45 98.1 44.95 103.2 48.9 104.55 49.85 105.25 50.3 105.35 50.8 105.4 51.25 104.95 51.95 104 53.2 102.1 56.35 100.75 58.45 100.8 59.6 100.85 60.7 102.4 62.8
L 69.65 62.8
Q 71.15 60.9 71.2 59.65 71.25 58.5 70.1 56.45 68.6 54.5 67.9 53.55 66.65 51.85 67 50.65 67.3 49.6 69 48.45 69.95 47.8 71.95 46.5
L 74.05 44.9
Q 74.65 44.45 75.05 44.3 75.65 44.1 76.2 44.4 76.8 44.75 76.9 45.35 76.95 45.7 76.95 46.5 75.9 58.7 75.85 58.9 75.75 60.05 76 60.5 76.4 61 77.6 60.95 85.15 60.8 94.55 60.95 95.7 61 96.05 60.55 96.3 60.15 96.2 59 95.9 56.5 95.6 52.85 95.3 48.75 95.1 46.7
M 86.1 18.4
Q 85.95 18.2 85.9 18.15
L 85.4 18.15
Q 83.75 18.8 82.95 19.1 81.5 19.7 80.8 20.6 79 22.85 77.2 23.55 75 24.35 72.35 23.15 73.9 27.6 76.55 30.15 79.35 32.85 83.45 33.65 87 34.4 89.95 32.5 92.9 30.55 93.45 27.2 93.95 24 92 21.6 90 19.2 86.35 18.55 86.25 18.5 86.1 18.4 Z"/>
</g>
</defs>

<g transform="matrix( 1, 0, 0, 1, 0,0) ">
<use xlink:href="#Layer0_0_FILL"/>
</g>
</svg>
