
<svg xmlns="http://www.w3.org/2000/svg" version="1.1" xmlns:xlink="http://www.w3.org/1999/xlink" preserveAspectRatio="none" x="0px" y="0px" width="179px" height="125px" viewBox="0 0 179 125">
<defs>
<g id="Layer0_0_FILL">
<path fill="#FFFFFF" stroke="none" d="
M 81.5 35.2
Q 84.6 38.25 89.05 38.3 93.55 38.3 96.65 35.25 99.7 32.25 99.75 27.8 99.75 23.3 96.7 20.2 93.65 17.1 89.2 17.05 84.75 17.05 81.65 20.15 78.55 23.2 78.55 27.65 78.5 32.15 81.5 35.2
M 95.75 43.85
L 83.5 43.85
Q 74.15 43.9 69.25 52.15
L 59.1 69.2
Q 56.4 73.7 60.05 78.15 63.15 82.05 67.9 80.6 69.15 80.15 70.95 79.8 71.95 79.6 74 79.2 74.45 79.15 75.5 78.7 76.4 78.4 76.75 79.15 77.6 80.95 75.45 82.55 74.15 83.55 69.8 87.35 68.2 88.7 65.05 91.45 62.3 93.85 60.4 95.65 58.55 97.4 58.05 99.65 57.55 101.9 58.45 104.3 59.3 106.45 61.3 107.3 62.9 108 65.5 107.9 68.6 107.75 70.9 107.9 72.1 108 72.55 107.55 73.05 107.15 73 105.9 72.8 102.7 72.95 98.2 73.1 95.25 74.8 93.55 76.55 91.9 79.55 91.85 80.9 91.85 83.65 91.8 86.05 91.8 87.75 91.9 95.85 92.5 103.35 96
L 103.25 97
Q 96.9 96.95 93.75 96.95 88.1 96.95 84.2 97.05 79.95 97.1 79.2 97.85 78.5 98.6 78.5 102.8
L 78.55 104.2
Q 78.55 105.1 78.5 105.65 78.35 106.95 78.75 107.4 79.2 107.95 80.6 107.95 86.1 107.85 113.65 107.85 118.75 107.85 120.6 103.4 122.45 98.95 118.7 95.35 117.85 94.55 114.25 91.4
L 103.85 82.5
Q 103 81.75 102.65 81.2 102.2 80.45 102.6 79.65 103 79 103.75 79.2 104.2 79.35 105.15 79.65
L 109.85 80.75
Q 116.15 82.25 119.5 77.8 122.75 73.5 119.55 67.95 112.7 56.2 109.75 51.65 104.85 43.9 95.75 43.85
M 86.4 55.95
Q 87.8 54.2 89.45 54.4 91.05 54.6 92.45 56.65 94.2 59.3 95.3 62.75 96.15 65.55 96.7 69.3 95 67 94.2 65.9 92.75 63.9 91.55 62.75 90.25 61.55 89.1 61.55 87.9 61.6 86.65 62.8 85.5 63.9 84.05 65.95 82.2 68.55 81.6 69.3 82.25 64.95 83.1 62.25 84.3 58.6 86.4 55.95 Z"/>
</g>
</defs>

<g transform="matrix( 0.9199981689453125, 0, 0, 0.9199981689453125, 7.15,5) ">
<use xlink:href="#Layer0_0_FILL"/>
</g>
</svg>
