
<svg xmlns="http://www.w3.org/2000/svg" version="1.1" xmlns:xlink="http://www.w3.org/1999/xlink" preserveAspectRatio="none" x="0px" y="0px" width="402px" height="402px" viewBox="0 0 402 402">
<defs>
<g id="Layer0_0_MEMBER_0_FILL">
<path fill="#222221" stroke="none" d="
M 352.8 140.85
Q 342.45 130.55 329.05 124.85 315.2 119 300 119 284.8 119 270.95 124.85 257.55 130.5 247.2 140.85 236.85 151.2 231.15 164.6 225.3 178.45 225.3 193.65
L 225.3 289.2
Q 225.3 304.4 231.15 318.25 236.85 331.65 247.2 342 257.5 352.3 270.95 358 284.8 363.85 300 363.85 315.2 363.85 329.05 358 342.45 352.3 352.8 342 363.1 331.65 368.8 318.25 374.65 304.4 374.65 289.2
L 374.65 193.65
Q 374.65 178.45 368.8 164.6 363.1 151.2 352.8 140.85 Z"/>
</g>

<g id="Layer0_0_MEMBER_1_FILL">
<path fill="#222221" stroke="none" d="
M 418.55 281.15
Q 414.15 276.75 407.95 276.75 401.75 276.75 397.35 281.15 392.95 285.55 392.95 291.75
L 392.95 291.8
Q 392.95 310.7 385.65 327.95 378.55 344.6 365.7 357.5 352.8 370.35 336.15 377.45 318.9 384.75 300 384.75 281.1 384.75 263.85 377.45 247.15 370.35 234.25 357.5 221.4 344.6 214.3 327.9 207 310.65 207 291.75 207 285.55 202.6 281.15 198.2 276.75 192 276.75 185.8 276.75 181.4 281.15 177 285.55 177 291.75 177 314.85 185.35 336.25 193.35 356.9 208.2 373.55 222.95 390.05 242.5 400.45 262.5 411.05 285 413.8
L 285 451 239.4 451
Q 233.2 451 228.8 455.4 224.4 459.8 224.4 466 224.4 472.2 228.8 476.6 233.2 481 239.4 481
L 362.4 481 362.4 480.85
Q 368 480.15 371.75 475.95 375.55 471.7 375.55 466 375.55 460.25 371.75 456 368 451.8 362.4 451.1
L 362.4 451 315 451 315 413.8
Q 337.5 411.05 357.5 400.45 377 390.05 391.75 373.55 406.6 356.9 414.65 336.25 422.95 314.85 422.95 291.75 422.95 285.55 418.55 281.15 Z"/>
</g>
</defs>

<g transform="matrix( 0.9941558837890625, 0, 0, 0.9941558837890625, -98.2,-97.95) ">
<use xlink:href="#Layer0_0_MEMBER_0_FILL"/>
</g>

<g transform="matrix( 0.9941558837890625, 0, 0, 0.9941558837890625, -98.2,-97.95) ">
<use xlink:href="#Layer0_0_MEMBER_1_FILL"/>
</g>
</svg>
