
<svg xmlns="http://www.w3.org/2000/svg" version="1.1" xmlns:xlink="http://www.w3.org/1999/xlink" preserveAspectRatio="none" x="0px" y="0px" width="179px" height="125px" viewBox="0 0 179 125">
<defs>
<g id="Layer0_0_FILL">
<path fill="#FFFFFF" stroke="none" d="
M 88.3 18.9
Q 84.85 17.55 81.35 17.5 75.5 17.15 70.25 19.95 67.7 21.3 65.7 23.55 64.75 24.65 64 25.9 60 32.4 59.75 39.8 59.75 39.9 59.7 40 59.7 40.6 59.55 41.2
L 59.55 41.25
Q 59.5 41.9 59.5 42.6 59.5 43.15 59.35 43.7 59 44.85 58.6 46 58.2 47.25 58 48.55 57.65 51 59.05 53.3 60 54.9 61.65 55.55 61.8 56.2 61.95 56.9 63.05 61.25 66.65 64 67.3 64.5 67.7 65 69.3 67.25 69.05 70.15 69 70.7 68.9 71.2 68.6 72.4 68.1 73.5 66.95 76.25 64.25 77.4 60.9 78.75 57.5 79.9 54.6 80.95 51.7 82 50.35 82.5 49.15 83.3 45.35 85.75 44.9 90.35 44.8 91.2 44.75 92.05 44.6 93.5 44.5 95.15 44.5517578125 96.3939453125 44.35 101.55 44.2345703125 104.45546875 43.95 105.5
L 101.45 105.5
Q 98.7255859375 104.1263671875 96.3 102.25 95.4 101.5 94.6 100.75 88.6 95 87.85 86.65 87.85 86.4 87.75 86.2 87.65 85.95 87.7 85.6 87.75 85.4 87.75 85.2 87.7 84.75 87.7 84.7 87.65 83.55 87.7 82.45 87.7 82.25 87.7 82 87.75 81.75 87.8 81.45 88.8 75.05 92.55 69.8 93.4 68.55 94 67.25 94.85 65.2 96 63.3 96.7 62.05 97.45 60.85 98.95 58.6 99.45 55.7 102.05 54.8 102.85 51.95 103.1 50.95 103.3 49.95 103.95 46.8 101.85 44.4 101.85 43.85 101.9 43.35 101.95 42.9 101.8 42.5 101.75 42.25 101.75 42 101.85 41.2 101.7 40.6 101.65 40.4 101.65 40.3 101.6 39.8 101.55 39.35 101.25 34.55 99.65 30.15 98.3 26.6 95.7 23.75 92.65 20.4 88.3 18.9
M 121.4 64.6
Q 119.85 64.2 118.35 63.8 114 62.7 109.55 63.75 104.95 64.95 101.2 67.85 100.05 68.7 99.05 69.75 96 73.2 94.6 77.6 94.1 79.2 93.9 80.85 93.75 81.9 93.45 82.65 93.4 84.2 93.65 85.9 94.35 90.7 97.05 94.95 98.1 96.55 99.45 97.9 102.85 101.5 107.7 103.1 111.95 104.45 116.3 104 120 103.6 123.35 101.9 126.5 100.25 129 97.7 130.55 96.1 131.85 94.05 133.45 91.6 134.05 88.7 134.25 87.85 134.3 87.05 134.45 85.35 134.55 83.7 134.9 78.85 132.55 74.6 130.2 70.3 126.4 67.35 124.15 65.55 121.4 64.6
M 112.2 70.6
Q 113.1 69.9 114.05 70.15 115.5 70.35 116.25 71.65 116.6 72.25 116.6 73 116.7 76.75 116.75 80.5 120.6 80.4 124.5 80.5 126.65 80.7 127.5 82.8 127.75 83.45 127.6 84.2 127.25 86.35 125 86.7 121.15 86.55 116.8 86.5 116.75 90 116.7 94.05 116.65 95.8 115.05 96.6 114.1 97.1 113.05 96.9 112.15 96.6 111.55 95.8 111.15 95.3 111.1 94.7 110.8 90.65 110.65 86.65 108.9 86.6 107.15 86.6 105.35 86.5 103.55 86.5 101.3 86.25 100.9 84.05 100.8 83.65 100.8 83.3 101.15 81.65 102.65 80.9 103.2 80.7 103.75 80.5 107.15 80.35 110.65 80.35 110.7 76.8 110.75 73.2 110.8 71.5 112.2 70.6 Z"/>
</g>
</defs>

<g transform="matrix( 1, 0, 0, 1, 0,0) ">
<use xlink:href="#Layer0_0_FILL"/>
</g>
</svg>
