
<svg xmlns="http://www.w3.org/2000/svg" version="1.1" xmlns:xlink="http://www.w3.org/1999/xlink" preserveAspectRatio="none" x="0px" y="0px" width="179px" height="125px" viewBox="0 0 179 125">
<defs>
<g id="Layer0_0_FILL">
<path fill="#FEFEFE" stroke="none" d="
M 96.4 17.65
Q 93.5 14.8 89.45 14.85 85.45 14.85 82.55 17.8 79.7 20.65 79.7 24.75 79.75 28.8 82.6 31.6 85.55 34.5 89.55 34.5 93.65 34.45 96.5 31.55 99.4 28.65 99.4 24.6 99.3 20.55 96.4 17.65
M 92.9 27.2
Q 93 27.2 93.35 27.2 93.5 27.25 93.6 27.65 93.65 29.65 92.25 31.05 90.75 32.4 88.8 32.15 87.45 31.95 86.35 30.45 85.2 29.05 85.35 27.6 85.35 27.25 85.65 27.2 85.75 27.15 86.1 27.2
L 92.9 27.2
M 123.85 22.9
Q 125.3 21.35 125.25 19.4 125.25 17.45 123.85 15.95 122.4 14.55 120.45 14.45 118.5 14.4 117.05 15.75 115.45 17.3 113.1 19.75 110.45 22.45 109.15 23.75 105.15 27.85 104.05 28.85 101.1 31.75 98.7 33.8 94.95 36.95 91.05 37.55 88.35 37.85 85.85 37 83.6 36.25 81.25 34.5 78.6 32.4 75.4 29.25 71.7 25.6 69.85 23.7 69.25 23.1 65.95 19.75 63.55 17.25 61.95 15.75 60.85 14.7 59.5 14.5 58.15 14.3 56.75 14.9 54.25 16 53.85 18.6 53.45 21.15 55.45 23.2 69.95 37.65 77.15 44.8 77.7 45.35 77.9 45.85 78.1 46.35 78.1 47.05 78.1 53.55 78.1 76.2
L 78.1 105.6
Q 78.1 107.7 79.5 109.15 80.9 110.6 83 110.6 85.2 110.6 86.5 109.15 87.9 107.8 87.9 105.5
L 87.9 74.15
Q 87.9 73.35 87.95 73.25 88 72.5 88.45 71.95 88.95 71.5 89.55 71.5 90.2 71.5 90.6 72 91.05 72.5 91.1 73.25 91.1 73.4 91.1 74.15
L 91.1 105.1
Q 91.1 105.85 91.15 106.05 91.15 106.55 91.3 107.05 91.8 108.85 93.35 109.85 94.9 110.8 96.9 110.55 98.65 110.3 99.8 108.85 100.95 107.45 101 105.55 101 66.55 100.95 47.05 100.95 46.35 101.15 45.9 101.35 45.4 101.85 44.85 104.7 42 119.3 27.4 122.95 23.8 123.85 22.9 Z"/>
</g>
</defs>

<g transform="matrix( 0.8825225830078125, 0, 0, 0.8825225830078125, 10.55,7.35) ">
<use xlink:href="#Layer0_0_FILL"/>
</g>
</svg>
