
<svg xmlns="http://www.w3.org/2000/svg" version="1.1" xmlns:xlink="http://www.w3.org/1999/xlink" preserveAspectRatio="none" x="0px" y="0px" width="179px" height="125px" viewBox="0 0 179 125">
<defs>
<g id="Layer0_0_FILL">
<path fill="#FFFFFF" stroke="none" d="
M 77.05 68.45
Q 74.2 65.4 74.15 61.35
L 40.5 98.4
Q 39.2 99.8 39 101.3 38.8 102.75 39.65 104.2 40.2 105.1 41.1 105.75 41.6 106.1 42.2 106.35 43.9 107.05 45.55 106.6 46.6 106.3 47.65 105.45 48.85 104.35 49.4 103.8 54.6 99.1 72.05 83.2
L 83 73.25
Q 80.9 71.7 79.9 70.95 78.1 69.6 77.05 68.45
M 116.15 53.7
Q 116 53.45 115.9 53.3 115.7 52.65 115.35 52.55 115 52.4 114.4 52.85 110.35 55.75 106.85 58 106.4 58.3 106.35 58.55 106.3 58.8 106.65 59.25 108.7 61.95 109.65 63.55 110.8 65.45 112.3 66.3 113.8 67.15 115.6 66.85 117.9 66.7 121.55 66.5 121.65 66.5 128.8 66.15 133.2 65.95 136.1 65.75 137.95 65.65 139 64.6 140.05 63.55 140.05 61.85 140.05 60.15 139 59.05 137.9 57.95 136.05 57.85 131.3 57.6 128.95 57.45 124.85 57.2 121.9 57.25 119.6 57.25 118.3 56.55 116.8 55.7 116.15 53.7
M 95.05 40.1
Q 94.65 40.1 94.1 40.7 90.45 44.4 79.45 55.5 76.65 58.35 76.95 61.85 77.2 65.35 80.4 67.75 81.05 68.25 93.95 78.15
L 75.7 85.4
Q 73.65 86.25 72.85 87.85 72.1 89.45 72.8 91.5 73.55 93.7 75.15 94.6 76.8 95.5 78.95 94.85 89.9 91.6 106 86.7 108.3 86 109.5 83.75 110.65 81.55 110.05 79.15 109.7 77.75 108.5 76.35 107.05 74.85 106.4 74.05 104.3 71.65 96.2 62.6 105.25 56.1 105.6 55.85 107.15 54.7 110.25 52.55 112.95 50.6 114.75 49.15 117.95 46.6 118.35 43.45 118.8 40 115.3 37.75 115.25 37.8 115.2 37.9
L 115.2 38.5
Q 115.45 44.4 110.3 46.7 105.35 49 101 45.1 99.35 43.65 98.5 42.9 97 41.6 96.05 40.65 95.45 40.1 95.05 40.1
M 90.35 19.75
Q 88.3 18.3 86.3 18.6 84.3 18.95 82.85 21 79.05 26.35 70.4 38.6 69.35 40.1 69.55 41.5 69.7 42.95 71.1 44.05 72.45 45.1 73.85 45 75.25 44.85 76.45 43.55 81.95 37.45 86.8 31.95 87.4 31.3 87.7 31.25 88.15 31.15 88.85 31.75 91.5 34.05 95.4 37.35 97.6 39.2 102 42.85 104.35 44.9 106.75 44.75 109.3 44.8 110.9 43.6 112.5 42.4 112.85 40.1 113.5 36.35 109.9 33.75
L 90.35 19.75
M 136.95 29.05
Q 137 24.55 133.8 21.4 130.65 18.25 126.15 18.2 121.65 18.2 118.5 21.35 115.35 24.55 115.4 29 115.4 33.45 118.55 36.6 121.7 39.75 126.15 39.75 130.55 39.75 133.75 36.6 136.95 33.45 136.95 29.05 Z"/>
</g>
</defs>

<g transform="matrix( 1, 0, 0, 1, 0,0) ">
<use xlink:href="#Layer0_0_FILL"/>
</g>
</svg>
