
<svg xmlns="http://www.w3.org/2000/svg" version="1.1" xmlns:xlink="http://www.w3.org/1999/xlink" preserveAspectRatio="none" x="0px" y="0px" width="179px" height="125px" viewBox="0 0 179 125">
<defs>
<g id="Layer0_0_FILL">
<path fill="#FFFFFF" stroke="none" d="
M 59.85 34.85
Q 59.8 34.85 59.75 34.85 59.7 35.4 60 35.6 60 35.65 60.05 35.65 60.95 36.35 62 36.9 62 36.95 62.05 36.95 62.5 37.15 62.85 36.8
L 62.85 36.75
Q 62.9 36.75 62.95 36.7 63.8 36.25 64.05 35.25 64.05 35.2 64.05 35.15 63 34 61.55 33.25
L 61.5 33.25
Q 60.7 34 59.85 34.75 59.85 34.8 59.85 34.85
M 89.75 89.55
Q 89.7 89.55 89.65 89.55 89.55 89.55 89.45 89.55 89.4 89.55 89.35 89.55 88.95 89.55 88.55 89.55 88.5 89.55 88.45 89.55 87 89.55 85.55 89.55 85.5 89.55 85.45 89.55 85.35 89.55 85.25 89.55
L 85.25 89.5
Q 84.85 89.45 84.45 89.45 81.6 89.1 79.2 88.3 72.5 86.05 67.95 81.7 67.95 81.65 67.95 81.6 67.7 81.4 67.45 81.2 67.45 81.15 67.45 81.1 67.2 80.9 66.95 80.7 65.75 79.35 64.65 77.9 60.8 72.85 59.45 65.2 59.45 65.15 59.5 65.1 59.55 64.6 59.35 64.4 59.35 64.35 59.35 64.3 59.35 64.25 59.35 64.2 59.35 64.15 59.4 64.1 59.45 63.45 59.25 63.1 59.25 63.05 59.25 63 59.25 62.9 59.25 62.8 59.25 62.75 59.25 62.7 59.25 62.3 59.25 61.9 59.25 61.85 59.25 61.8 59.25 61.4 59.25 61 59.25 60.95 59.25 60.9 59.35 59 59.15 57.3
L 59.1 57.3
Q 57.2 56.8 55.6 56 55.6 55.95 55.55 55.95 55.3 55.8 55 55.7 55 55.65 54.95 55.65 52.65 54.45 50.5 53.1
L 50.45 53.1
Q 50.1 54 49.9 54.9 49.9 54.95 49.9 55 49.9 55.05 49.9 55.1 49.85 55.1 49.8 55.1 48.2 55.1 46.6 55.1 46.55 55.1 46.5 55.1 45.95 55.1 45.4 55.1 45.4 55.15 45.4 55.2 45.35 55.2 45.3 55.2 45.15 55.2 45 55.2 44.95 55.2 44.9 55.2 44.4 55.2 43.9 55.2 43.9 55.25 43.9 55.3 43.85 55.3 43.8 55.3 39.95 56.05 38.9 59.6 38.9 59.75 38.9 59.9 38.9 59.95 38.9 60 38.85 60 38.8 60 38.75 60 38.7 60 38.7 59.95 38.7 59.9 38.7 59.45 38.5 59.2 38.5 61 38.5 62.8 38.5 62.85 38.5 62.9 38.7 62.65 38.7 62.2 38.7 62.15 38.7 62.1 38.75 62.15 38.8 62.2 38.85 62.2 38.9 62.2 39.7 66.25 43.9 66.9 43.95 66.9 44 66.9 44.75 67.05 45.8 67 45.85 67 45.9 67 46.15 67 46.4 67 46.45 67 46.5 67 46.85 67.15 47.5 67.1 47.55 67.1 47.6 67.1 47.95 67.1 48.3 67.1 48.35 67.1 48.4 67.1 48.45 67.1 48.5 67.1 49.25 67.15 49.8 67.4
L 49.85 67.4
Q 50.85 71.4 51.9 74.9 50.8 75.55 49.65 76.05 46.05 77.65 44.6 81.3 44.6 81.55 44.6 81.8 44.6 81.85 44.6 81.9 44.55 81.9 44.5 81.9 44.5 82.65 44.55 83.35 44.55 83.4 44.6 83.4 45.3 87.7 49.6 88.35 49.65 88.35 49.7 88.35 50.25 88.55 51.1 88.4
L 51.1 88.35
Q 54 87.75 56.1 86.3 56.85 85.8 57.65 85.4 58.1 85.6 58.4 85.95 58.4 86 58.45 86 58.65 86.25 58.9 86.45 58.9 86.5 58.95 86.5 59.9 87.25 60.7 88.15
L 60.75 88.15
Q 60.95 88.4 61.2 88.65
L 61.25 88.65
Q 61.45 88.9 61.7 89.15
L 61.75 89.15
Q 61.95 89.4 62.2 89.65
L 62.25 89.65
Q 62.45 89.9 62.7 90.15
L 62.75 90.15
Q 62.95 90.4 63.2 90.65
L 63.25 90.65
Q 63.4 90.85 63.55 91.1
L 63.55 91.15
Q 63.5 91.15 63.5 91.2 61.85 93.85 60.45 96.85 60.45 97.05 60.45 97.25 60.45 97.3 60.45 97.35 60.4 97.35 60.35 97.35 60.35 98.35 60.4 99.35
L 60.45 99.35
Q 61.2 103.6 65.45 104.25 65.5 104.25 65.55 104.25 66.05 104.45 66.75 104.3
L 66.75 104.25
Q 68.7 103.95 69.95 102.95 69.95 102.9 69.95 102.85 70.4 102.75 70.55 102.35 70.55 102.3 70.55 102.25 72.3 99.6 74.15 97.05 74.15 97 74.15 96.95 77.85 98.05 81.6 99.25 81.65 99.25 81.7 99.45 81.75 99.55 81.75 99.75 81.75 100.65 81.75 101.55 81.75 101.6 81.75 101.65 81.75 102.05 81.75 102.45 81.75 102.5 81.75 102.55 81.75 103.1 81.8 103.65
L 81.85 103.65
Q 81.85 103.85 81.85 104.05 81.85 104.1 81.85 104.15 81.85 104.55 81.9 104.95
L 81.95 104.95
Q 82.15 107.05 83.35 108.15 83.4 108.15 83.45 108.15 83.55 108.55 83.85 108.65 83.9 108.65 83.95 108.65 84.9 109.75 86.75 110
L 86.75 110.05
Q 87.75 110.05 88.75 110.05 88.8 110.05 88.85 110.05 88.85 110 88.85 109.95 92.85 109.15 93.55 104.95 93.55 104.9 93.55 104.85 93.7 104.65 93.65 104.15 93.65 104.1 93.65 104.05 93.65 104 93.65 103.95 93.65 103.5 93.65 103.05 93.65 103 93.65 102.95 93.65 102.7 93.65 102.45 93.8 102.2 93.75 101.65 93.75 101.6 93.75 101.55 93.75 101.5 93.75 101.45 93.75 100.95 93.75 100.45 93.75 100.4 93.75 100.35 93.75 100.3 93.75 100.25 93.9 100.05 93.85 99.55 93.85 99.5 93.85 99.45 93.85 99.4 93.85 99.35 94.8 98.45 96.5 98.2 97.75 98.05 98.95 97.7 100.15 97.3 101.35 96.95 103.25 99.9 105.25 102.75 105.3 102.75 105.35 102.75 105.45 103 105.75 103.15 105.8 103.15 105.85 103.15 107.8 104.8 110.95 104.05 112.6 103.65 113.5 102.55 112.1 101.3 110.3 100.3 110.05 100.15 109.75 99.95 109.45 99.75 109.2 99.55
L 109.2 99.5
Q 109 99.2 108.6 99.05
L 108.6 99
Q 105.45 95.95 102.45 92.75 102.45 92.7 102.4 92.7 102.2 92.45 101.95 92.25 101.95 92.2 101.9 92.2 101.7 91.95 101.45 91.75 101.45 91.7 101.4 91.7 101.2 91.45 100.95 91.25 100.95 91.2 100.9 91.2 100.7 90.95 100.45 90.75 100.45 90.7 100.4 90.7 99.05 89.25 97.55 87.95 97.5 87.95 97.45 88 94.85 88.9 91.75 89.35 91.7 89.35 91.65 89.35 91.3 89.35 90.95 89.35 90.95 89.4 90.95 89.45 90.9 89.45 90.85 89.45 90.8 89.45 90.75 89.45 90.7 89.45 90.65 89.45 90.2 89.45 89.75 89.45 89.75 89.5 89.75 89.55
M 106.05 71.9
Q 106.05 71.85 106 71.8 105.8 71.6 105.55 71.4 105.55 71.35 105.5 71.3 105.3 71.1 105.05 70.9 105.05 70.85 105 70.8 104.8 70.6 104.55 70.4 104.55 70.35 104.5 70.3 102.2 68.1 100.05 65.8 100.05 65.75 100 65.7 99.8 65.5 99.55 65.3 99.55 65.25 99.5 65.2 99.3 65 99.05 64.8 99.05 64.75 99 64.7 98.8 64.5 98.55 64.3 98.55 64.25 98.5 64.2 98.3 64 98.05 63.8 98.05 63.75 98 63.7 95.75 61.55 93.65 59.3 93.65 59.25 93.6 59.25 93.4 59 93.15 58.8 93.15 58.75 93.1 58.75 92.9 58.5 92.65 58.3 92.65 58.25 92.6 58.25 92.4 58 92.15 57.8 92.15 57.75 92.1 57.75 90.45 56.1 88.85 54.4 88.85 54.35 88.8 54.35 88.6 54.1 88.35 53.9 88.35 53.85 88.3 53.85 88.1 53.6 87.85 53.4 87.85 53.35 87.8 53.35 86.5 52.05 85.25 50.7 85.25 50.65 85.2 50.65 85 50.4 84.75 50.2 84.75 50.15 84.7 50.15 81.5 47.45 79.45 43.6 79.45 43.55 79.45 43.5 79.45 42.25 79.45 41 79.45 40.95 79.45 40.9 79.45 40.5 79.45 40.1 79.45 40.05 79.45 40 79.45 39.85 79.45 39.7 79.65 39.5 79.55 39 79.55 38.95 79.55 38.9 79.55 38.85 79.55 38.8 79.55 38.3 79.55 37.8
L 79.6 37.8
Q 79.75 36.35 79.55 35.15 79.55 35.1 79.55 35.05 79.55 35 79.55 34.95 79.55 34.9 79.55 34.85 79.65 34.35 79.45 34.15 79.4 32.9 79.05 32 78 29.2 76.3 27.1 73.35 23.35 67.25 22.75
L 67.25 22.7
Q 66.85 22.65 66.45 22.65 66.4 22.65 66.35 22.65 66.05 22.65 65.75 22.65
L 65.75 22.6
Q 65.1 22.55 64.45 22.55 64.45 22.6 64.45 22.65 64.4 22.65 64.35 22.65 61.55 22.75 60.05 24.25 60.25 25.75 61.4 26.4 61.65 26.55 61.95 26.75 65.8 29.55 69.05 32.95 69.35 33.25 69.45 33.75 69.45 34.65 69.45 35.55 69.45 35.6 69.45 35.65
L 69.45 35.7
Q 68.05 40.85 62.85 42.2 62.8 42.2 62.75 42.2 62.2 42.2 61.65 42.2 61.4 42.1 61.05 41.95 57.4 40.35 54.6 37.75 53.6 36.85 52.6 35.9 51.4 34.75 50 34.25 49.95 34.25 49.9 34.25 49.45 34.65 49.3 35.35 49.3 35.65 49.3 35.95 49.3 36 49.3 36.05 49.25 36.05 49.2 36.05 49.2 37.05 49.2 38.1 49.2 38.15 49.2 38.2 49.2 38.65 49.25 39.1
L 49.3 39.1
Q 50.15 47.2 55.9 50.45 57.35 51.3 59.05 51.95 60.75 52.55 62.85 52.7 64.1 52.9 65.55 52.75
L 65.55 52.7
Q 67.6 52.6 69.25 52.1 69.3 52.1 69.35 52.1 69.65 52.25 69.8 52.5
L 69.85 52.5
Q 70.05 52.75 70.3 53
L 70.35 53
Q 70.55 53.25 70.8 53.5
L 70.85 53.5
Q 72.2 54.9 73.6 56.3
L 73.65 56.3
Q 74.05 56.9 74.6 57.4
L 74.65 57.4
Q 74.85 57.65 75.1 57.9
L 75.15 57.9
Q 76.65 59.45 78.2 61
L 78.25 61
Q 78.85 61.8 79.55 62.45 79.6 62.5 79.65 62.5 79.85 62.75 80.1 62.95 80.1 63 80.15 63 80.35 63.25 80.6 63.45 80.6 63.5 80.65 63.5 80.85 63.75 81.1 63.95 81.1 64 81.15 64 83.85 66.75 86.55 69.45 86.6 69.5 86.65 69.5 87 70.05 87.45 70.45 87.5 70.5 87.55 70.5 87.75 70.75 87.95 70.95 88 71 88.05 71 88.25 71.25 88.45 71.45 88.5 71.5 88.55 71.5 88.75 71.75 88.95 71.95 89 72 89.05 72 89.25 72.25 89.45 72.45 89.5 72.5 89.55 72.5 89.75 72.75 89.95 72.95 90 73 90.05 73 90.25 73.25 90.45 73.45 90.5 73.5 90.55 73.5 94.6 77.6 98.65 81.65 98.7 81.7 98.75 81.7 102.2 85.4 105.85 88.95 105.9 88.95 105.95 88.95 108.5 91.4 110.95 93.95
L 111 93.95
Q 111.2 94.2 111.45 94.45
L 111.5 94.45
Q 113.25 96.85 116.7 97.45 116.75 97.45 116.8 97.45 117.2 97.65 117.8 97.5
L 117.8 97.45
Q 122.4 96.8 123.2 92.35 123.2 92.3 123.2 92.25
L 123.25 92.25
Q 123.4 91.55 123.2 91.05
L 123.2 91
Q 122.45 88.25 120.5 86.75
L 120.5 86.7
Q 120.25 86.5 120 86.3 120 86.25 120 86.2 119.3 85.6 118.7 84.9 118.7 84.85 118.7 84.8 118.45 84.6 118.2 84.4 118.2 84.35 118.2 84.3 117.1 83.3 116.1 82.2 116.1 82.15 116.1 82.1 115.85 81.9 115.6 81.7 115.6 81.65 115.6 81.6 115.35 81.4 115.1 81.2 115.1 81.15 115.1 81.1 113.45 79.55 111.9 77.9 111.9 77.85 111.9 77.8 111.65 77.6 111.4 77.4 111.4 77.35 111.4 77.3 111.15 77.1 110.9 76.9 110.9 76.85 110.9 76.8 110.65 76.6 110.4 76.4 110.4 76.35 110.4 76.3 108.4 74.4 106.55 72.4 106.55 72.35 106.5 72.3 106.3 72.1 106.05 71.9
M 126.2 33.8
Q 125.25 33.75 124.3 33.75 124.3 33.8 124.3 33.85 123.9 33.75 123.65 33.85 120.5 35.1 117.8 36.85 117.75 36.85 117.75 36.8 117.3 36.4 116.8 36.05 116.8 36 116.8 35.95 116.6 35.65 116.2 35.55 116.2 35.5 116.2 35.45 113.95 33.35 111.9 31.05 113.8 28.35 115 24.95 115 24.9 115 24.85
L 115.05 24.85
Q 115.2 23.65 115 22.75 114.55 20.25 112.85 19 111.05 17.65 108.15 18.05 107 18.2 106.25 18.9 103.35 21.55 101.55 25.35 101.5 25.35 101.45 25.3 97.8 24.15 94.05 23.15 94 23.15 94 23.1 93.8 22.55 93.75 21.95 93.75 21.9 93.75 21.85 93.75 21.4 93.75 20.95 93.75 20.9 93.75 20.85 93.8 20.15 93.65 19.75 93.65 19.7 93.65 19.65 93.65 19.35 93.65 19.05 93.65 19 93.65 18.95 93.65 18.5 93.65 18.05 93.65 18 93.65 17.95 93.7 17.45 93.55 17.25 93.55 17.2 93.55 17.15 92.8 13.05 88.85 12.15 88.8 12.15 88.75 12.15 87.7 12.15 86.65 12.15
L 86.65 12.2
Q 82.9 13.05 81.95 16.65 81.95 16.9 81.95 17.15 81.95 17.2 81.95 17.25 81.9 17.25 81.85 17.25 81.85 18.05 81.85 18.85 81.85 18.9 81.85 18.95 81.85 19.25 81.85 19.55 81.85 19.6 81.85 19.65 81.8 19.65 81.75 19.65 81.75 20.1 81.75 20.55 81.75 20.6 81.75 20.65 81.75 21.1 81.75 21.55 81.75 21.6 81.75 21.65 81.75 21.7 81.75 21.75 81.75 22.9 81.15 23.45 81.1 23.45 81.05 23.45 80.7 23.45 80.35 23.45 80.35 23.5 80.35 23.55 80.3 23.55 80.25 23.55 83 27.3 84.5 32.3 84.5 32.35 84.55 32.35 84.75 32.65 85.45 32.55 85.5 32.55 85.55 32.55 85.95 32.55 86.35 32.55 86.4 32.55 86.45 32.55 86.75 32.55 87.05 32.55 87.1 32.55 87.15 32.55 87.35 32.7 87.85 32.65 87.9 32.65 87.95 32.65 88.4 32.65 88.85 32.65 88.9 32.65 88.95 32.65 89.1 32.65 89.25 32.65 89.3 32.65 89.35 32.65 89.8 32.8 90.55 32.75 90.6 32.75 90.65 32.75 90.75 32.75 90.85 32.75 90.9 32.75 90.95 32.75 91.2 32.9 91.75 32.85 91.8 32.85 91.85 32.85 99.45 34.15 104.55 38 106.15 39.25 107.6 40.6 108.1 41.15 108.65 41.7
L 108.7 41.7
Q 113 46.35 115.1 53.15 115.7 55.05 116 57.2 116 57.65 116.05 58.1
L 116.1 58.1
Q 116.1 58.45 116.1 58.8 116.1 58.85 116.1 58.9 116.1 59.4 116.15 59.9
L 116.2 59.9
Q 116.2 60.3 116.2 60.7 116.2 60.75 116.2 60.8 116.2 61.8 116.2 62.8 116.2 62.85 116.2 62.9 116.2 63.15 116.2 63.4 116.2 63.45 116.2 63.5 116.15 63.5 116.1 63.5 116.1 64 116.1 64.5 116.1 64.55 116.1 64.6 116.1 64.65 116.1 64.7 115.4 68.95 114 72.5 114.05 72.6 114.15 72.65 114.15 72.7 114.2 72.7 114.4 73.1 114.75 73.35 114.75 73.4 114.8 73.4 115.5 74.15 116.25 74.85 116.25 74.9 116.3 74.9 116.6 75.4 117.05 75.75 117.05 75.8 117.1 75.8 118.3 77.05 119.55 78.25 119.55 78.3 119.6 78.3 120 78.9 120.55 79.35 120.55 79.4 120.6 79.4 121.8 80.65 123.05 81.85 123.05 81.9 123.1 81.9 123.35 82.35 123.75 82.65 123.75 82.7 123.8 82.7 124.2 83.15 124.65 83.55 124.65 83.6 124.7 83.6 124.8 83.9 125.05 84.05 125.05 84.1 125.1 84.1 126.65 85.75 127.95 87.75
L 128 87.75
Q 130.2 86.6 130.8 83.8 130.8 83.75 130.8 83.7 130.85 83.7 130.85 83.65 131 82.6 130.8 81.8 130.65 80.1 129.7 79.2 126.95 76.65 123.5 74.8 124.7 71.25 125.65 67.4
L 125.7 67.4
Q 126.15 67.1 126.8 67.1 126.85 67.1 126.9 67.1 127.4 67.1 127.9 67.1 127.95 67.1 128 67.1 128.45 67.1 128.9 67.05
L 128.9 67
Q 129.25 67 129.6 67 129.65 67 129.7 67 130.15 67 130.6 67 130.65 67 130.7 67 131.1 67 131.5 66.95
L 131.5 66.9
Q 135.15 66.35 136.35 63.3
L 136.4 63.3
Q 136.4 63.25 136.4 63.2 136.4 61.1 136.4 59
L 136.35 59
Q 135.25 55.8 131.5 55.3
L 131.5 55.25
Q 131.05 55.2 130.6 55.2 130.55 55.2 130.5 55.2 130.3 55.2 130.1 55.2
L 130.1 55.15
Q 129.7 55.1 129.3 55.1 129.25 55.1 129.2 55.1 127.95 55.1 126.7 55.1 126.65 55.1 126.6 55.1 126.1 55.05 125.6 54.9 125.6 54.85 125.6 54.8 124.75 50.9 123.5 47.3 126.65 45.65 129.4 43.6 129.4 43.55 129.4 43.5 129.65 43.4 129.8 43.1 129.8 43.05 129.8 43 130.8 42 130.9 40 130.9 39.95 130.9 39.9
L 130.95 39.9
Q 131.1 39.35 130.9 39 130.9 38.95 130.9 38.9 130.25 34.7 126.2 33.85
L 126.2 33.8 Z"/>
</g>
</defs>

<g transform="matrix( 1, 0, 0, 1, 2.05,1.4) ">
<use xlink:href="#Layer0_0_FILL"/>
</g>
</svg>
