
<svg xmlns="http://www.w3.org/2000/svg" version="1.1" xmlns:xlink="http://www.w3.org/1999/xlink" preserveAspectRatio="none" x="0px" y="0px" width="179px" height="125px" viewBox="0 0 179 125">
<defs>
<g id="Layer0_0_FILL">
<path fill="#FFFFFF" fill-opacity="0.9921568627450981" stroke="none" d="
M 71.25 74.05
Q 71.95 71.3 71.1 68.8 69.6 64.35 65.5 62.5 63.4 61.55 60.35 61.85 57.7 62.15 55.9 63.35 52.3 65.7 51.4 70.8 51.4 71.6 51.5 72.4 52.05 77.75 55.65 80.15 57.4 81.35 59.95 81.7 63.65 82.2 66.2 80.85 70.1 78.8 71.25 74.05
M 95.15 85.95
Q 89.2 85.95 83.2 85.95 77.25 85.95 71.3 85.95 65.3 85.95 59.35 85.95 53.4 85.95 47.4 85.95 47.3 85.75 47.3 85.4 47.35 79.45 47.35 73.45 47.35 67.5 47.35 61.55 47.35 55.6 47.35 49.6
L 47.3 49.6
Q 43.3 49.6 39.3 49.6 39.3 55.6 39.3 61.55 39.3 67.5 39.3 73.45 39.3 79.45 39.3 85.4 39.3 91.35 39.3 97.35 39.3 103.3 39.3 109.25 39.3 111.75 39.3 114.25 43.3 114.25 47.3 114.25
L 47.35 114.25
Q 47.3 109.7 47.55 105.25 47.55 104.85 47.75 104.4 49 101.6 53.65 102 55.1 102.15 56.6 102.15 62.6 102.15 68.55 102.15 74.5 102.15 80.5 102.15 86.45 102.15 92.4 102.15 98.4 102.15 104.35 102.15 110.3 102.15 116.25 102.15 122.25 102.15 128.2 102.05 130.9 102.05 133.25 102.35 134.65 102.55 135.45 103.45 136.2 104.35 136.2 106 136.2 110.1 136.25 114.2 140.2 114.3 144.25 114.25 144.3 114.25 144.35 114.25 144.35 108.3 144.35 102.35 144.35 96.35 144.35 90.4 144.4 88.1 144.25 86 143.65 85.9 142.85 85.9 136.9 85.95 130.95 85.95 124.95 85.95 119 85.95 113.05 85.95 107.1 85.95 101.1 85.95 95.15 85.95
M 99.55 61.75
Q 93.6 61.75 87.6 61.75 81.65 61.75 75.7 61.75 75.65 61.75 75.6 61.75 75.6 67.7 75.6 73.65 75.55 77.9 75.7 81.95 80.2 81.95 84.7 81.95 90.65 81.95 96.6 81.95 102.6 81.95 108.55 81.95 114.5 81.95 120.45 81.95 126.45 81.95 132.4 81.95 138.35 81.95 144.35 81.95 144.35 77 144.4 72.05 144.5 69.35 143.85 67.3 143.45 65.9 142.7 64.8 140.55 61.75 135.35 61.75 129.35 61.75 123.4 61.75 117.45 61.75 111.5 61.75 105.5 61.75 99.55 61.75
M 88.55 32.6
Q 88.55 31 88.55 29.4 86.4 29.4 84.3 29.4 78.3 29.4 72.35 29.4 72.35 29.45 72.35 29.5 72.35 31.65 72.35 33.8
L 72.4 33.8
Q 77.3 33.75 82 33.9 79.45 37.05 76.95 40.2 74.3 43.5 71.6 46.8 71.6 48.2 71.6 49.55
L 71.6 49.6
Q 77.6 49.6 83.55 49.6 86.05 49.6 88.55 49.6 88.55 47.6 88.5 45.6 83.3 45.55 78.1 45.55 80.75 42.5 83.25 39.3 85.9 36 88.55 32.7 88.55 32.65 88.55 32.6
M 116.8 9.3
Q 116.8 9.25 116.8 9.2 114.65 9.2 112.55 9.2 106.6 9.2 100.6 9.2 100.6 9.25 100.6 9.3 100.6 11.45 100.6 13.6 100.65 13.6 100.7 13.6 105.6 13.55 110.35 13.7 107.7 16.75 105.15 19.95 102.5 23.3 99.9 26.6 99.9 28 99.9 29.35
L 99.9 29.4
Q 105.85 29.4 111.8 29.4 114.3 29.4 116.8 29.4 116.8 27.4 116.8 25.4
L 116.8 25.35
Q 111.6 25.35 106.4 25.3 109.15 22.1 111.8 18.75 114.3 15.65 116.8 12.5 116.8 10.9 116.8 9.3 Z"/>
</g>
</defs>

<g transform="matrix( 1, 0, 0, 1, -2.35,0.8) ">
<use xlink:href="#Layer0_0_FILL"/>
</g>
</svg>
