
<svg xmlns="http://www.w3.org/2000/svg" version="1.1" xmlns:xlink="http://www.w3.org/1999/xlink" preserveAspectRatio="none" x="0px" y="0px" width="402px" height="402px" viewBox="0 0 402 402">
<defs>
<g id="Layer0_0_MEMBER_0_MEMBER_0_FILL">
<path fill="#000000" stroke="none" d="
M 924 344.6
Q 914.65 340.3 902.65 343.65 890.15 347.1 876.55 358.35
L 462.5 703.1 265.6 703.1
Q 238.5 703.1 219.25 722.35 199.95 741.65 199.95 768.7
L 199.95 1031.2
Q 199.95 1058.3 219.25 1077.55 238.55 1096.85 265.6 1096.85
L 462.5 1096.85 876.55 1441.6
Q 890.15 1452.85 902.65 1456.35 914.65 1459.7 924 1455.35 933.3 1451.05 938.4 1439.7 943.7 1428 943.7 1410.4
L 943.7 389.55
Q 943.7 372 938.4 360.25 933.3 348.95 924 344.6 Z"/>
</g>

<g id="Layer0_0_MEMBER_1_MEMBER_0_FILL">
<path fill="#000000" stroke="none" d="
M 1368 358.3
Q 1339.85 331.75 1319.3 317.55 1300.75 304.65 1278.55 308.65 1256.4 312.6 1243.4 331.15 1230.45 349.65 1234.4 371.95 1238.3 394.25 1256.8 407.25 1274.1 419.5 1297.35 441.8 1341.2 483.9 1377.3 536.9 1427.1 610.05 1455.4 694.8 1490.6 800.1 1490.6 917.85 1490.6 1034.15 1456.1 1133.3 1428.3 1213.15 1379.5 1278.5 1344.15 1325.8 1301.2 1361.3 1278.3 1380.2 1261.55 1389.75 1241.75 1400.75 1235.55 1422.5 1229.3 1444.3 1240.3 1464.1 1247.7 1477.35 1260.8 1484.9 1273.55 1492.25 1288.2 1492.25 1302.15 1492.25 1314.7 1485.35 1336.05 1473.4 1364.15 1450.8 1417.65 1407.85 1461.7 1350.8 1522.5 1272.1 1557.05 1176.2 1600 1057.1 1600 917.85 1600 779.75 1557.75 656.05 1523.75 556.4 1463.95 470.35 1420.65 407.95 1368 358.3 Z"/>
</g>

<g id="Layer0_0_MEMBER_2_MEMBER_0_FILL">
<path fill="#000000" stroke="none" d="
M 1314.4 1074.4
Q 1343.15 998.9 1343.15 910.7 1343.15 823.7 1315.1 745.6 1292.5 682.75 1252.85 628.4 1224.05 589 1189.1 557.6 1170.65 541 1156.8 531.8 1137.95 519.3 1115.7 523.85 1093.5 528.35 1081 547.25 1068.5 566.1 1073.05 588.3 1077.55 610.5 1096.45 623 1096.6 623.1 1102.75 627.65 1110.4 633.6 1118.5 640.95 1144.25 664.5 1165.65 694.25 1195.5 735.75 1212.55 783.8 1233.8 843.8 1233.8 910.7 1233.8 975.55 1213.75 1030.9 1197.65 1075.45 1169.3 1111.95 1148.8 1138.4 1123.9 1158.3 1110.85 1168.75 1101.05 1174.15 1081 1184.75 1074.35 1206.4 1067.7 1228.05 1078.3 1248.05 1085.55 1261.75 1098.8 1269.55 1111.7 1277.15 1126.65 1277.15 1140.3 1277.15 1152.2 1270.8 1166.1 1263.5 1185.35 1248.8 1221.15 1221.5 1250.6 1185.25 1291.3 1135.2 1314.4 1074.4 Z"/>
</g>
</defs>

<g transform="matrix( 0.2399444580078125, 0, 0, 0.2399444580078125, -10.85,-15.85) ">
<use xlink:href="#Layer0_0_MEMBER_0_MEMBER_0_FILL"/>
</g>

<g transform="matrix( 0.2399444580078125, 0, 0, 0.2399444580078125, -10.85,-15.85) ">
<use xlink:href="#Layer0_0_MEMBER_1_MEMBER_0_FILL"/>
</g>

<g transform="matrix( 0.2399444580078125, 0, 0, 0.2399444580078125, -10.85,-15.85) ">
<use xlink:href="#Layer0_0_MEMBER_2_MEMBER_0_FILL"/>
</g>
</svg>
