
<svg xmlns="http://www.w3.org/2000/svg" version="1.1" xmlns:xlink="http://www.w3.org/1999/xlink" preserveAspectRatio="none" x="0px" y="0px" width="179px" height="125px" viewBox="0 0 179 125">
<defs>
<g id="Layer0_0_FILL">
<path fill="#FFFFFF" stroke="none" d="
M 68.9 17.4
Q 66.1279296875 16.7224609375 63.65 17.4 61.2087890625 18.084375 60.75 18.4 60.3490234375 18.7546875 59.7 19.35 53.5 25.3 53.8 34.15 53.85 35.7 53.95 37.25 54.1 38.75 54.2 40.3 55.1 52.9 62.2 63.2
L 77.85 59.3
Q 82.1 47 79.65 34.2 77.65 23.7 68.9 17.4
M 111 39.2
Q 107.35 37.15 103 38.05 98.95 40.2 96.25 43.85 91.6 50.3 90.7 58.2 90 65.55 91.3 72.75 91.95 76.5 93.5 80
L 109.1 83.35
Q 111.25 80.8 112.75 77.65 116.35 70.25 116.9 62.15 117.45 54.3 116.05 46.4 115.2 41.65 111 39.2
M 82.65 77.75
Q 83.15 72.6 81.4 67.8 80.5 65.3 78.95 63.2
L 63.85 67.15
Q 63.8 70.2 64.25 73.05 65.6 81.55 74.1 83.8 75.65 84.2 77.2 84.05 78.35 83.85 79.4 83.2 82.35 81.15 82.65 77.75
M 88.45 92.85
Q 88.45 93.1 88.45 93.4 88.55 96.5 89.25 99.5 90.5 104.9 96.15 105.15 97.3 105.1 98.35 104.75 102.3 103.25 104.4 99.55 107.6 94.1 107.45 87.8 103.4 86.8 99.45 85.4 95.6 84.05 92.35 84.2 92.25 84.25 92.2 84.35 89.5 88.2 88.45 92.85 Z"/>
</g>
</defs>

<g transform="matrix( 1, 0, 0, 1, 4.1,1.4) ">
<use xlink:href="#Layer0_0_FILL"/>
</g>
</svg>
