
<svg xmlns="http://www.w3.org/2000/svg" version="1.1" xmlns:xlink="http://www.w3.org/1999/xlink" preserveAspectRatio="none" x="0px" y="0px" width="179px" height="125px" viewBox="0 0 179 125">
<defs>
<g id="Layer0_0_FILL">
<path fill="#FFFFFF" stroke="none" d="
M 131.3 21.35
Q 129.8 18.45 126.8 17.55 123.6 16.75 120.2 17.35 114.4 18.3 108.75 19.35 103.05 20.35 97.55 21.5 93.9 22.25 90.25 23.05 88.5 23.6 86.85 24.25 85.25 24.85 83.75 25.65 83.1568359375 26.0234375 82.55 26.4 80.7634765625 28.3037109375 80.25 30.8 79.78984375 33.3484375 80.1 35.35 80.453125 37.4 81.45 39.25 82.55 41.3 83.65 43.4 85.9 47.65 87.85 52.1 88.85 54.3 89.75 56.65
L 52.65 78 52.8 78.1
Q 53.458984375 78.49296875 54.45 79.05 58.297265625 81.215625 60.85 81.5 63.459375 81.781640625 66.7 80.4 69.9365234375 79.00859375 73.65 77.15 77.401171875 75.352734375 81.2 73.6 85.055859375 71.8490234375 88.35 70.95 91.6376953125 70.0427734375 97.15 72.35 102.665234375 74.6521484375 110.35 78.7 118.0255859375 82.747265625 122.3 81.1
L 99.9 38.2
Q 107.4962890625 34.9400390625 117.9 34.45 124 34.25 126.95 32.55 128.6 31.5 130 30.15 131.35 28.8 132 27.05 132.65 25.35 132.1 23.4 131.8 22.35 131.3 21.35
M 93.9 73.3
Q 90.1 72.1 86.3 73.35 77.6 76.45 69.2 81.1 61 85.75 53.1 79.85 42.7 71.95 30.35 73.85 25.6 74.55 22.15 77.65
L 25.1 85
Q 33.3 79.35 42 83.6 46.05 85.5 49.6 87.85 61.65 95.6 73.65 88.5 80.7 84.35 88.6 82 92.2 80.85 95.4 82.6 102.95 86.8 111.05 89.9 122.9 94.3 133.15 86.7 139.85 81.75 147.7 81.75 152.1 81.75 154.95 85.2 155.4 84.55 155.85 83.9 157.45 81.45 157.8 78.45 157.85 77.8 157.85 77.2 149.05 69.85 138.75 74.3 133 76.7 127.8 80.25 122.657421875 83.7533203125 117.35 83.1 114.400390625 82.74296875 111.4 81.1 103 76.45 93.9 73.3
M 93.65 89.35
Q 90.2 88.45 86.9 89.45 77.45 92.35 68.9 97.5 62.05 101.6 55.3 97.25 49.9 93.8 43.95 91.15 32.15 85.65 21.95 93.75
L 25.15 101.25
Q 26.25 100.5 27.4 99.85 34.8 95.55 42 99.85 47.95 103.35 54.2 105.7 66.8 110.55 77.7 102.3 86.6 95.45 96.15 99.15 101.25 101.05 106 103.85 120.05 112 133.5 103 138.05 99.85 143.05 98.05 150 95.7 154.95 101.25 155.55 100.25 156.1 99.25 156.85 97.8 157.4 96.3 158 94.7 157.85 93.25 154.25 90.5 149.9 89.1 146.65 88.05 143.6 89.05 136 91.45 129.3 96.2 122.75 100.9 115.05 98.8 112.5 98.1 110.45 96.7 102.6 91.45 93.65 89.35
M 130.1 44.05
Q 126.8 44.05 123.9 45.15 122.4 45.8 121.1 46.75 117.4 49.45 116.45 53.95 116.45 55.75 116.5 57.55 116.65 62 119.15 65.4 120.35 67 122.15 67.9 126.55 70 131.3 69.45 136.4 68.65 139.05 64.3 140.2 62.35 140.55 60.05 141.05 56.9 140.65 53.9 140.25 50.85 138.5 48.4 135.45 44.1 130.1 44.05 Z"/>
</g>
</defs>

<g transform="matrix( 1, 0, 0, 1, 0,0) ">
<use xlink:href="#Layer0_0_FILL"/>
</g>
</svg>
