
<svg xmlns="http://www.w3.org/2000/svg" version="1.1" xmlns:xlink="http://www.w3.org/1999/xlink" preserveAspectRatio="none" x="0px" y="0px" width="179px" height="125px" viewBox="0 0 179 125">
<defs>
<g id="Layer0_0_FILL">
<path fill="#FFFFFF" stroke="none" d="
M -776.5 1166.3
Q -780.4 1170.5 -780.4 1177.4 -780.45 1211.85 -780.4 1246.35 -780.4 1253.95 -776.3 1258.05 -772.2 1262.15 -764.65 1262.2
L -696.25 1262.2
Q -689.05 1262.15 -684.7 1258.3 -680.35 1254.45 -680.3 1248.1 -680.3 1241.6 -684.5 1237.85 -688.7 1234.05 -696 1234 -730.3 1233.9 -747.45 1234.1 -750.25 1234.1 -751.3 1233.1 -752.35 1232.1 -752.3 1229.3 -752.15 1211.95 -752.25 1177.35 -752.3 1170.3 -756.1 1166.2 -759.9 1162.05 -766.3 1162.1 -772.6 1162.1 -776.5 1166.3
M -777.75 759.5
Q -780.4 763.05 -780.4 768.9 -780.45 803.3 -780.4 837.8 -780.4 844.95 -776.55 849.35 -772.75 853.7 -766.4 853.85 -760.2 854 -756.25 849.6 -752.25 845.15 -752.25 838.05
L -752.25 788.6
Q -752.25 783.7 -751.45 782.85 -750.65 782.05 -745.9 782.05
L -723.95 782.05
Q -698.15 782.05 -694.95 782 -689.05 781.9 -684.95 778.4 -680.95 774.95 -680.4 769.65 -679.8 763.85 -682.6 759.8 -685.45 755.8 -691.25 754.15
L -691.4 753.3 -769.4 753.3
Q -769.4 753.8 -769.55 754.15 -775.15 755.95 -777.75 759.5
M -507.6 1199.4
Q -518.5 1198.35 -520.25 1201.3 -522.25 1205.05 -527.15 1212.4 -530.8 1219.05 -530.65 1224.25 -530.45 1228.4 -525.05 1230.8 -516.2 1234.65 -516.1 1234.75 -515.7 1235.05 -515.4 1236.4
L -509.65 1236.4
Q -505.3 1231.45 -501.25 1223.1 -497 1213.55 -494.6 1208.95 -493.15 1206.15 -494.7 1203.45 -496.75 1200.35 -507.6 1199.4
M -551.55 1092.75
Q -555.65 1094.7 -556.35 1101.45 -562.15 1162.4 -587.95 1206.8 -590.95 1212.1 -591 1214.3 -591.3 1218.1 -586 1220.85 -574.85 1226.85 -571.55 1226.75 -568 1226.55 -564.05 1219.4 -534.5 1167.2 -529.75 1103.95 -528.8 1097.85 -530.55 1095.15 -532.05 1092.75 -536.5 1092.2 -547.5 1090.95 -551.55 1092.75
M -523.4 1033.7
Q -518.6 1028.5 -511.65 1028.4 -504.6 1028.4 -499.8 1033.7 -494.8 1039 -494.7 1046.9 -494.05 1078.9 -495.85 1102.1 -498.15 1131.75 -505 1156.45 -506.35 1161.45 -504.9 1163.95 -503.35 1166.45 -498.45 1167.1 -495.85 1167.4 -490.95 1168.85 -485.45 1170.1 -482.65 1168.45 -479.6 1166.75 -478.15 1160.75 -469 1123.6 -468 1080.05 -467.35 1065.8 -467.35 1060.4 -467.35 1049.4 -468.6 1040.75 -471.2 1023.2 -483.8 1012.05 -496.45 1000.9 -513.1 1001.55 -530.45 1002.3 -542.65 1014.85 -554.8 1027.35 -555.6 1045.4 -555.95 1052.4 -555 1054.8 -553.15 1059.15 -546.15 1059.25 -533.7 1059.45 -531.5 1057.9 -529.2 1056.25 -528.6 1046.9 -528.15 1038.9 -523.4 1033.7
M -503.85 941.55
Q -542.75 939.7 -572.65 961 -602.4 982.1 -612.1 1018.2 -615.4 1030.55 -615.8 1047.8 -615.95 1057.7 -615.7 1077.55 -616.45 1130.35 -632.85 1173.3 -637.45 1185.4 -636.4 1188.8 -635.45 1191.95 -624.75 1199.6 -620.5 1202.75 -617.9 1202.3 -615.1 1201.7 -613.25 1196.7 -611.85 1192.65 -608.55 1184.65 -605.35 1176.65 -603.95 1172.6 -594.1 1144.5 -590.75 1109.8 -588.15 1084.3 -588.5 1045.55 -588.8 1017.05 -570.3 995.4 -551.9 973.8 -523.5 969 -496.35 964.45 -471.9 979.4 -447.6 994.35 -438.25 1021.1 -435 1030.75 -434.7 1044.3 -434.6 1051.65 -434.7 1064.25 -433.75 1102.2 -439.5 1134.45 -445.5 1168.2 -459.25 1198.5 -464.05 1209 -463 1211.6 -462.15 1214.05 -451.65 1219.8 -446.05 1223 -442.8 1222.05 -439.5 1221.05 -436.8 1215.4 -397.8 1131.4 -409.55 1027.75 -413.6 992.6 -441.35 967.65 -468.6 943.3 -503.85 941.55
M -631.55 971.4
Q -632.45 969.65 -635.8 967.05 -642.05 962.35 -643.6 961.1 -647 958.2 -649.6 959 -652 959.65 -654.2 963.6 -673.1 996.45 -675.4 1029.5 -675.8 1035.45 -676.55 1079.45 -677.05 1109.7 -681.25 1129.1 -682.25 1134.85 -678.4 1139.1 -677.7 1139.85 -670.3 1145.45 -661.7 1151.9 -660 1151.15 -658.35 1150.45 -655.85 1139.5 -651.4 1119.65 -650.25 1094.3 -649.6 1080.55 -649.7 1048.75 -649.7 1012.8 -636.3 987.6 -629.75 975.15 -631.55 971.4
M -384.5 944.45
Q -388.75 945.6 -392.8 949.85 -397.15 955.1 -399.35 957.55 -401.55 960.05 -400.6 963.2 -400 965.25 -397.5 968.9 -380.35 993.95 -377 1016.85 -367.55 1078.4 -381.55 1146.8 -383.25 1155.35 -381.25 1157.9 -379.2 1160.4 -368.25 1163.1 -361.8 1164.6 -358.8 1161.45 -356.7 1159.15 -355.15 1152.4 -346.75 1115.3 -347.05 1067.45
L -347.05 1046.25
Q -346.85 993.45 -376.9 950.8 -378.85 947.5 -380.1 946.15 -382.1 943.75 -384.5 944.45
M -439.3 928.35
Q -429.5 934.6 -426.5 934.2 -423.5 933.95 -415.55 925.75 -409.85 920.05 -410.15 917.75 -410.4 915.45 -417.25 910.6 -438.85 895.6 -462.65 888.35 -487 880.95 -515.2 881.05 -522.9 881.45 -527.55 881.75 -535.95 882.4 -542.4 883.65 -587.75 892.7 -621.25 922.95 -624.55 925.95 -625.2 926.9 -626.75 929.4 -625.1 932.5 -620.8 940.5 -612.6 942 -604.4 943.65 -597.4 938 -564.05 910.8 -519.85 908.1 -475.65 905.4 -439.3 928.35
M -456.35 827.4
Q -464 826.25 -474.4 824.05 -485.85 821.55 -491.8 820.3 -492.1 820.2 -492.3 820.2
L -532.75 820.3
Q -539.4 822.3 -553.45 824.8 -567.25 827.1 -574.15 829.45 -706.4 872.4 -733.65 1008.3 -733.95 1010.05 -734.25 1013.8 -734.85 1017.05 -736.95 1018.7
L -736.95 1068.8
Q -735 1071.3 -734.45 1075.7 -733.6 1082.55 -733.5 1083.05 -732.7 1085.65 -731.55 1086.8 -730.2 1088.05 -727.7 1088.15 -716.05 1088.25 -711.4 1083.05 -706.8 1077.85 -708.55 1066.55 -712.3 1042 -707.45 1013.9 -700.45 972.55 -678.2 938.1 -656.8 904.75 -624.25 882.3 -591.7 859.85 -552.9 851.7 -512.7 843.2 -471.5 851.3 -459.75 853.6 -457.05 852.15 -454.55 850.7 -449.9 839.85 -447.5 834.15 -448.75 831.35 -450.1 828.35 -456.35 827.4
M -296.9 1168.1
Q -299.4 1171.8 -299.4 1176.5 -299.5 1215.7 -299.3 1227.95 -299.25 1231.55 -300.35 1232.8 -301.55 1234.15 -305.2 1234.1 -317.35 1233.9 -356.15 1234 -362.7 1234.05 -367 1237.95 -371.25 1241.85 -371.35 1247.8 -371.4 1253.95 -367.1 1258.05 -362.75 1262.15 -356.15 1262.2 -317.25 1262.3 -286.2 1262.15 -279.3 1262.15 -275.25 1258.1 -271.3 1254.1 -271.25 1247.15
L -271.25 1212.2
Q -271.25 1182.65 -271.2 1176.7 -271.1 1170.65 -274.75 1166.65 -277.65 1163.4 -281.95 1162.35 -286.25 1161.3 -290.3 1162.85 -294.45 1164.5 -296.9 1168.1
M -286.15 1020.6
Q -286.35 1020.5 -286.45 1020.5 -287.8 1019.95 -288.1 1018.6 -288 1016.65 -288.2 1015.8 -294.25 972.55 -314.5 936.35 -346.55 879.2 -405.05 847.45 -409.35 845.15 -410.05 844.95 -413 844.05 -415.6 845.9 -422.25 850.8 -421.8 859.95 -421.4 869.1 -414.35 873.05 -362.25 901.75 -335 955.2 -307.75 1008.7 -314.85 1068.1 -316.2 1079.4 -314.3 1081.9 -312.35 1084.5 -300.05 1087.55 -295.25 1088.8 -292.8 1087.65 -290 1086.2 -289.45 1080.9 -289.35 1077.35 -288.95 1075.5 -288.4 1072.35 -286.15 1070.7
L -286.15 1020.6
M -370.3 762.6
Q -373.25 769.8 -368.75 775.85 -364.2 781.95 -355.75 782 -328.85 782.25 -304.35 781.95 -301.4 781.9 -300.35 782.95 -299.25 783.95 -299.3 786.9 -299.6 806.9 -299.4 839.35 -299.35 845.55 -295.35 849.65 -291.35 853.75 -285.35 853.85 -279.5 853.95 -275.4 849.85 -271.3 845.7 -271.25 839.5 -271.15 815.7 -271.25 768.1 -271.3 762.5 -274.05 759.05 -276.75 755.65 -282.25 754.1
L -282.4 753.3 -360.4 753.3
Q -360.4 753.75 -360.55 754.2 -367.4 755.55 -370.3 762.6 Z"/>
</g>
</defs>

<g transform="matrix( 0.1921539306640625, 0, 0, 0.1921539306640625, 190.55,-131.15) ">
<use xlink:href="#Layer0_0_FILL"/>
</g>
</svg>
