
<svg xmlns="http://www.w3.org/2000/svg" version="1.1" xmlns:xlink="http://www.w3.org/1999/xlink" preserveAspectRatio="none" x="0px" y="0px" width="179px" height="125px" viewBox="0 0 179 125">
<defs>
<g id="Layer0_0_FILL">
<path fill="#FFFFFF" stroke="none" d="
M 99.45 21.5
Q 92.05 18.35 83.8 18.35 75.6 18.35 68.15 21.45 61 24.45 55.55 29.95 50.1 35.4 47.1 42.55 44 49.95 44.05 58.15 44.05 66.65 47.3 74.15 49.95 80.2 54.4 85
L 48.1 100.35 62.55 91.8
Q 65.5 93.6 68.8 94.95 76.05 97.9 83.85 97.85 91.9 97.85 99.35 94.7 106.5 91.65 112.05 86.1 117.55 80.55 120.55 73.45 123.65 66.05 123.55 58.05 123.5 49.95 120.4 42.65 117.4 35.5 112 30.05 106.55 24.5 99.45 21.5
M 88.65 48.2
Q 90.2 48.2 90.9 48.95 91.6 49.6 91.6 51.1 91.65 60.3 91.6 64.9 91.6 66.25 90.9 66.95 90.2 67.7 88.85 67.7 80.5 67.75 72.1 67.7 70.75 67.7 70.05 66.95 69.35 66.25 69.35 64.85 69.35 57.95 69.35 51.1 69.35 49.6 70.1 48.9 70.8 48.2 72.35 48.2
L 88.65 48.2
M 93.65 61.1
Q 93.3 60.25 93.2 58.9 93.2 58 93.35 55.35 93.35 54.35 94.1 53.85 94.65 53.45 96.15 52.3 97.4 51.35 98.2 50.8 99.1 50.15 99.8 50.5 100.5 50.85 100.5 52 100.55 54 100.55 58
L 100.55 63.7
Q 100.55 64.3 100.4 64.65 100.2 65.1 99.75 65.35 99.3 65.6 98.8 65.45 98.45 65.3 98 64.95
L 97.85 64.85
Q 95.75 63.35 95.05 62.75 94.05 61.9 93.65 61.1 Z"/>
</g>
</defs>

<g transform="matrix( 0.947174072265625, 0, 0, 0.947174072265625, 10.15,6.3) ">
<use xlink:href="#Layer0_0_FILL"/>
</g>
</svg>
