
<svg xmlns="http://www.w3.org/2000/svg" version="1.1" xmlns:xlink="http://www.w3.org/1999/xlink" preserveAspectRatio="none" x="0px" y="0px" width="179px" height="125px" viewBox="0 0 179 125">
<defs>
<g id="Layer0_0_FILL">
<path fill="#FFFFFF" fill-opacity="0.9921568627450981" stroke="none" d="
M 85.2 58.05
Q 85.2 57.95 85.2 57.85 85.35 50.45 85 43.55 81.75 47.05 78.3 50.35 77.15 51.5 75.85 52.45 70.8 56.4 68.3 62.8 68.3 62.9 68.3 63 68.2 68.75 73.85 68.8 74.15 68.6 74.4 68.35 80.2 63.6 85.2 58.05
M 102.1 73.15
Q 102 73.15 101.9 73.2 97.9 76.35 93.75 79.3 100.05 90.8 106.2 102.3 108.9 107.3 112.3 111.45 113.4 112.8 115.4 113.3 116.5 113.3 117.6 113.3 117.7 113.3 117.8 113.3 120.2 112.45 121 109.95 121.5 108.45 120.85 106.85 118.6 100.8 115.45 95.45 108.85 84.2 102.1 73.15
M 87.35 40.55
Q 87.35 40.65 87.35 40.75 87.35 54.15 87.35 67.6 87.25 67.6 87.2 67.65 80.7 72.55 74.05 77.35 73.2 79.85 72.1 82.05 66.25 94.1 60.35 105.95 60.35 106.05 60.35 106.15 60.35 106.25 60.35 106.35
L 60.25 106.35
Q 60.25 106.9 59.95 106.95 59.95 107.15 59.95 107.35 59.95 107.45 59.95 107.55 59.85 107.55 59.75 107.55 59.75 108.35 59.85 109.15
L 59.95 109.15
Q 59.95 109.55 60 109.9 60.05 109.95 60.15 109.95 60.85 112.6 63.7 113.2
L 63.7 113.3
Q 64.8 113.3 65.9 113.3 66 113.3 66.1 113.3 66.1 113.2 66.1 113.1 71.25 111.6 72.8 106.25 73.1 105.3 73.6 104.25 76.8 97.35 80 90.45 81.7 87.25 83.15 83.85 83.2 83.8 83.2 83.7 85.65 81.9 88.2 80.15 90.75 78.35 93.5 76.8 99 73.55 102.3 68.2 102.3 68.1 102.3 68 102.15 56.6 102.45 45.7 102.45 45.8 102.5 45.85 106.7 49.9 110.65 54.05 110.65 57.75 110.3 61.4 109.4 70.5 114.8 72.95 114.9 72.95 115 72.95 116.1 72.95 117.2 72.95 118.3 72.6 119.1 71.9 120.45 70.85 120.65 68.95 121.65 61.3 121.55 52.7 121.5 48.45 119.65 46.25 113.5 39.05 106.45 32.8 106.35 32.8 106.25 32.8 93.45 33.3 87.35 40.55
M 94.1 11.55
Q 94.05 11.55 93.95 11.55 92.65 11.55 91.35 11.55 91.35 11.65 91.3 11.65 84.8 12.95 83.2 19.1 82.95 28.3 89.95 30.1 94.15 31.2 97.35 29.45 103.4 26.05 101.3 17.8 100.85 15.95 99.6 14.6 97.55 12.4 94.1 11.55 Z"/>
</g>
</defs>

<g transform="matrix( 1, 0, 0, 1, -1.15,0.1) ">
<use xlink:href="#Layer0_0_FILL"/>
</g>
</svg>
