
<svg xmlns="http://www.w3.org/2000/svg" version="1.1" xmlns:xlink="http://www.w3.org/1999/xlink" preserveAspectRatio="none" x="0px" y="0px" width="179px" height="125px" viewBox="0 0 179 125">
<defs>
<g id="Layer0_0_FILL">
<path fill="#FFFFFF" stroke="none" d="
M 44.35 62.55
Q 43.3 64.65 43.85 67 44.45 69.35 46.5 70.85 48.5 72.35 51.15 72.5 53.95 72.65 56 73.35 58.55 74.1 60.4 75.7 63.5 78.35 65 82.6
L 65.15 82.2
Q 66.3 74.55 61.95 67.55 60.15 64.6 57.9 62.6 55.45 60.4 52.4 59.4 50 58.6 47.75 59.5 45.5 60.4 44.35 62.55
M 45.5 57.1
Q 45.75 54.05 43.3 52.45 42.2 51.7 41.3 52.4 40.45 53 40.65 53.85 40.85 54.45 41.3 54.8 41.7 55.15 42.3 55.15 44.35 55.25 45.5 57.1
M 53.65 48.1
Q 52.25 47.35 50.95 47.85 49.65 48.3 49.15 49.7 48.7 51.1 49.65 52.45 50.6 53.7 52.25 53.8 54.6 53.95 56.2 54.95 57.95 56.05 58.85 58.15 59.2 56.35 58.75 54.6 57.55 50 53.65 48.1
M 136.1 73.4
Q 135.5 73.25 134.85 74 134.65 74.25 134.15 74.6 133.55 74.9 133.25 75.1 135.9 77.2 137.3 78.85 139.7 81.95 139.7 85.05 139.7 88.15 137.3 91.2 135.6 93.3 133.2 95.05 131.15 96.55 128.4 97.95 121.7 101.3 113.7 103.15 106.8 104.75 98.25 105.4 85 106.4 72.5 104.5 66.85 103.65 62.1 102.3 56.7 100.85 52.1 98.7 48.95 97.2 46.7 95.7 44 93.8 42.1 91.55 39.4 88.4 39.4 85.1 39.35 81.8 42.05 78.55 43.3 77.05 45.8 75.1 44.95 74.6 44.55 74.3 43.85 73.85 43.45 73.45 43.2 73.2 43 73.25 42.85 73.3 42.6 73.55 40.55 75.2 39.15 77 36.2 80.8 36.2 85 36.15 89.15 39.1 93 42.15 96.95 47.65 100 53.85 103.35 61.5 105.45 67.95 107.2 76.1 108.15 89.2 109.65 102.75 108.15 109.25 107.4 114.75 106.15 120.95 104.7 126.3 102.4 130.35 100.75 133.2 98.95 136.7 96.75 139.1 94 143.8 88.7 142.6 82.75 142.1 80.25 140.6 78 139.4 76.15 137.25 74.1 136.5 73.5 136.1 73.4
M 138.3 53
Q 138 52.4 137.5 52.2 137 51.95 136.3 52.2 134.95 52.65 134.15 54.1 133.3 55.65 133.6 57.2 134.15 56.2 134.9 55.7 135.7 55.2 136.7 55.15 137.15 55.15 137.55 54.95 138.15 54.6 138.35 54.1 138.5 53.55 138.3 53
M 114.1 82.65
Q 115.25 79.15 117.4 76.85 119.4 74.65 122.2 73.6 124.65 72.65 127.9 72.5 130.7 72.35 132.7 70.7 135.95 68.05 135.25 64.3 134.85 62.3 133.65 61 132.4 59.75 130.4 59.2 128.7 58.8 126.9 59.3 125.45 59.7 123.7 60.8 117.85 64.6 115.25 71.1 112.9 77.1 114.1 82.65
M 90.15 94.95
Q 87.15 94.9 84.75 94.75 82.2 94.65 79.8 94.25 75.55 93.65 72.2 92.7 68.2 91.55 64.95 89.75 63.35 88.9 62.3 87.95 60.9 86.9 60.1 85.6 58.6 83.35 59.45 81.1 59.55 80.85 59.6 80.7 59.65 80.45 59.5 80.25 58.65 79.15 58.6 79.05 58 78.45 57.45 78.45 57 78.45 56.7 79.15 56.55 79.5 56.3 80.4 56.15 80.7 56.05 81.5 55.7 84 56.7 86.2 57.6 88.1 59.7 89.95 61.3 91.4 63.45 92.6 65.3 93.6 67.7 94.5 75.7 97.5 85.9 98 99.2 98.65 110.15 94.95 113.55 93.8 115.9 92.5 118.8 90.85 120.75 88.6 124.55 84.3 122.4 79.35 122 78.4 121.75 78.35 121.5 78.35 120.7 79 120.45 79.3 119.85 79.8 119.35 80.35 119.6 80.9 120.2 82.55 119.75 84.05 119.35 85.35 118.15 86.75 116.05 88.95 112.35 90.65 107.35 92.95 101.25 94 96.35 94.8 90.15 94.95
M 103.55 40.35
L 89.6 16.1
Q 89.25 16.5 89.25 16.6 74.6 41.9 70.35 49.3 66.15 56.65 67.5 64.4 68.35 69.4 71.1 73.45 73.7 77.35 77.7 79.8 81.75 82.25 86.4 82.9 91.25 83.55 96.1 82.05 101.05 80.6 104.8 77.2 108.35 73.9 110.2 69.35 112.05 64.85 111.9 59.9 111.65 54.85 109.2 50.25 108.1 48.15 106.4 45.25 104.55 42 103.55 40.35
M 127.1 47.65
Q 126.25 47.65 125.2 48.15 122.55 49.4 121.1 52.45 119.6 55.5 120.25 58.35 120.8 56.95 121.55 56 122.45 55.05 123.6 54.5 124.3 54.2 125.2 54.05 125.4 54 126.8 53.8 129.25 53.5 129.9 51.4 130.45 49.6 128.9 48.35 128.1 47.7 127.1 47.65 Z"/>
</g>
</defs>

<g transform="matrix( 0.84722900390625, 0, 0, 0.84722900390625, 12.45,9.55) ">
<use xlink:href="#Layer0_0_FILL"/>
</g>
</svg>
