
<svg xmlns="http://www.w3.org/2000/svg" version="1.1" xmlns:xlink="http://www.w3.org/1999/xlink" preserveAspectRatio="none" x="0px" y="0px" width="165px" height="137px" viewBox="0 0 165 137">
<defs>
<g id="Layer0_0_FILL">
<path fill="#4F3124" stroke="none" d="
M 90.65 25.5
Q 89.7 22.9 87.55 20.9 85.5 18.95 82.75 17.85 80.05 16.85 77.15 16.8 74.2 16.75 71.5 17.75 68.65 18.7 66.6 20.6 63.95 23.05 63 25.85 61.95 28.85 62.7 32.25 63.85 37.4 69 40.4 69.15 40.5 69.35 40.6 69.6 40.75 69.7 40.9
L 52.05 53.8
Q 51.5 54.25 51.15 54.65 50.7 55.1 50.5 55.7 50.3 56.2 50.2 56.85 50.15 57.25 50.15 58.1 50.1 68.6 50.15 73.3 50.2 74.6 50.8 75.75 51.4 76.85 52.5 77.55 53.5 78.25 54.75 78.35 56.05 78.5 57.3 78.05 58.85 77.4 59.7 76.05 60.6 74.7 60.6 72.9 60.6 65.8 60.6 62.3 60.6 61.9 60.6 61.85 60.6 61.65 60.8 61.5 61.85 60.75 65.75 57.85
L 65.75 78.85
Q 65.75 79.15 65.8 79.8 65.8 80.4 65.7 80.85 65.25 82.9 64.25 87.55 63.3 91.9 62.8 94.2 62.65 94.95 62.4 96.4 62.15 97.7 61.8 98.55 60.35 101.5 58.4 105.6 57.3 108 55 112.7 54.7 113.15 54.7 113.5 54.5 117.05 57.05 119.35 58.3 120.45 59.95 120.9 61.6 121.4 63.25 121.1 64.95 120.8 66.3 119.85 67.7 118.8 68.45 117.15 69.8 114 72 109.45 74.55 104.35 75.8 101.8 76.05 101.25 76.15 100.85 78.45 90.05 79.45 85.2 79.55 84.85 79.65 84.8 79.8 84.75 80.05 84.9 84.4 87.35 93.1 92.2 93.25 92.3 93.35 92.45 93.5 92.6 93.55 92.85 95.8 105.6 96.9 111.45 97 112.05 97.15 113.25 97.35 114.3 97.65 115 98.6 117.3 100.95 118.35 103.25 119.45 105.8 118.8 108.15 118.15 109.45 116.25 110.9 114.15 110.35 111.55 110.15 110.9 109.75 108.8 106.1 88.3 106 87.75 105.75 86.3 105 85.25 104.2 84.2 102.9 83.45 100 81.9 95.55 79.4 89.15 75.75 88.25 75.3 87.9 75.1 87.8 74.9 87.65 74.65 87.65 74.25 87.65 71.95 87.65 60.45
L 87.65 59.7
Q 89.65 61.85 92.45 61.9 101.2 61.9 110 61.9 112.6 61.85 114.4 60.15 115.55 59 115.6 57.55 115.7 56.05 114.65 54.85 112.95 52.75 109.85 52.75 107.35 52.7 97.25 52.75 97 52.75 96.75 52.65 96.55 52.55 96.35 52.35 96 51.95 90.75 46.25 87.4 42.55 84.9 40.4 85.2 40.2 86.05 39.65 88.5 37.95 89.85 35.55 91.2 33.2 91.4 30.6 91.65 27.95 90.65 25.5 Z"/>
</g>
</defs>

<g transform="matrix( 1, 0, 0, 1, 0,0) ">
<use xlink:href="#Layer0_0_FILL"/>
</g>
</svg>
