
<svg xmlns="http://www.w3.org/2000/svg" version="1.1" xmlns:xlink="http://www.w3.org/1999/xlink" preserveAspectRatio="none" x="0px" y="0px" width="223px" height="223px" viewBox="0 0 223 223">
<defs>
<g id="Layer0_0_MEMBER_0_FILL">
<path fill="#22D033" stroke="none" d="
M 1155.1 178.6
Q 1155.1 160.25 1148 143.45 1141.15 127.25 1128.7 114.8 1116.2 102.3 1100 95.45 1083.25 88.35 1064.9 88.35 1046.55 88.35 1029.75 95.45 1013.6 102.3 1001.1 114.8 988.6 127.3 981.75 143.45 974.65 160.25 974.65 178.6 974.65 196.95 981.75 213.7 988.6 229.9 1001.1 242.4 1013.55 254.85 1029.75 261.7 1046.55 268.8 1064.9 268.8 1083.25 268.8 1100 261.7 1116.2 254.85 1128.7 242.4 1141.15 229.9 1148 213.7 1155.1 196.95 1155.1 178.6 Z"/>
</g>

<g id="Layer0_0_MEMBER_1_MEMBER_0_FILL">
<path fill="#3B3B3B" stroke="none" d="
M 1018.55 191.8
Q 1016.05 191.8 1014.3 193.55 1012.55 195.3 1012.55 197.75 1012.55 200.25 1014.3 202 1016.1 203.75 1018.55 203.75
L 1111.2 203.75
Q 1113.7 203.75 1115.45 202 1117.2 200.25 1117.2 197.75 1117.2 195.3 1115.45 193.55 1113.7 191.8 1111.2 191.8
L 1018.55 191.8 Z"/>
</g>

<g id="Layer0_0_MEMBER_2_MEMBER_0_FILL">
<path fill="#3B3B3B" stroke="none" d="
M 1024.45 196.9
Q 1024.1 194.45 1022.15 192.95 1020.15 191.5 1017.7 191.85 1015.25 192.2 1013.75 194.2 1012.25 196.15 1012.6 198.6 1014 208.25 1018.9 216.2 1023.85 224.15 1031.95 229.75 1038.95 234.6 1047.65 237.2 1056.35 239.8 1065.65 239.8
L 1066.05 239.8
Q 1075.2 239.75 1083.65 237.15 1092.15 234.55 1098.85 229.65 1106.55 224.05 1111.2 216.15 1115.85 208.25 1117.1 198.55 1117.4 196.05 1115.9 194.1 1114.35 192.15 1111.9 191.85 1109.45 191.5 1107.5 193 1105.55 194.55 1105.25 197 1103.2 212.6 1090.6 220.85 1080.1 227.75 1065.95 227.85 1051.1 228 1039.65 220.5 1026.6 211.95 1024.45 196.9 Z"/>
</g>

<g id="Layer0_0_MEMBER_3_MEMBER_0_FILL">
<path fill="#3B3B3B" stroke="none" d="
M 1047.55 143.45
Q 1044.05 140 1039.15 140 1034.3 140 1030.8 143.45 1027.35 146.95 1027.35 151.8 1027.35 156.7 1030.8 160.2 1034.25 163.65 1039.15 163.65 1044.05 163.65 1047.55 160.2 1051 156.7 1051 151.8 1051 146.9 1047.55 143.45 Z"/>
</g>

<g id="Layer0_0_MEMBER_3_MEMBER_1_FILL">
<path fill="#3B3B3B" stroke="none" d="
M 1090.6 140
Q 1085.7 140 1082.25 143.45 1078.8 146.9 1078.8 151.8 1078.8 156.7 1082.25 160.2 1085.7 163.65 1090.6 163.65 1095.5 163.65 1098.95 160.2 1102.4 156.7 1102.4 151.8 1102.4 146.9 1098.95 143.45 1095.5 140 1090.6 140 Z"/>
</g>

<path id="Layer0_0_MEMBER_4_1_STROKES" stroke="#3B3B3B" stroke-width="11.95" stroke-linejoin="miter" stroke-linecap="butt" stroke-miterlimit="10" fill="none" d="
M 1155.1 178.6
Q 1155.1 196.95 1148 213.7 1141.15 229.9 1128.7 242.4 1116.2 254.85 1100 261.7 1083.25 268.8 1064.9 268.8 1046.55 268.8 1029.75 261.7 1013.55 254.85 1001.1 242.4 988.6 229.9 981.75 213.7 974.65 196.95 974.65 178.6 974.65 160.25 981.75 143.45 988.6 127.3 1001.1 114.8 1013.6 102.3 1029.75 95.45 1046.55 88.35 1064.9 88.35 1083.25 88.35 1100 95.45 1116.2 102.3 1128.7 114.8 1141.15 127.25 1148 143.45 1155.1 160.25 1155.1 178.6 Z"/>
</defs>

<g transform="matrix( 1, 0, 0, 1, -952.95,-66.65) ">
<use xlink:href="#Layer0_0_MEMBER_0_FILL"/>
</g>

<g transform="matrix( 1, 0, 0, 1, -952.95,-66.65) ">
<use xlink:href="#Layer0_0_MEMBER_1_MEMBER_0_FILL"/>
</g>

<g transform="matrix( 1, 0, 0, 1, -952.95,-66.65) ">
<use xlink:href="#Layer0_0_MEMBER_2_MEMBER_0_FILL"/>
</g>

<g transform="matrix( 1, 0, 0, 1, -952.95,-66.65) ">
<use xlink:href="#Layer0_0_MEMBER_3_MEMBER_0_FILL"/>
</g>

<g transform="matrix( 1, 0, 0, 1, -952.95,-66.65) ">
<use xlink:href="#Layer0_0_MEMBER_3_MEMBER_1_FILL"/>
</g>

<g transform="matrix( 1, 0, 0, 1, -952.95,-66.65) ">
<use xlink:href="#Layer0_0_MEMBER_4_1_STROKES"/>
</g>
</svg>
