
<svg xmlns="http://www.w3.org/2000/svg" version="1.1" xmlns:xlink="http://www.w3.org/1999/xlink" preserveAspectRatio="none" x="0px" y="0px" width="223px" height="223px" viewBox="0 0 223 223">
<defs>
<g id="Layer0_0_MEMBER_0_FILL">
<path fill="#82E33D" stroke="none" d="
M 867.55 95.45
Q 850.8 88.35 832.45 88.35 814.1 88.35 797.3 95.45 781.15 102.3 768.65 114.8 756.15 127.3 749.3 143.45 742.2 160.25 742.2 178.6 742.2 196.95 749.3 213.7 756.15 229.9 768.65 242.4 781.1 254.85 797.3 261.7 814.1 268.8 832.45 268.8 850.8 268.8 867.55 261.7 883.75 254.85 896.25 242.4 908.7 229.9 915.55 213.7 922.65 196.95 922.65 178.6 922.65 160.25 915.55 143.45 908.7 127.25 896.25 114.8 883.75 102.3 867.55 95.45 Z"/>
</g>

<g id="Layer0_0_MEMBER_1_MEMBER_0_FILL">
<path fill="#3B3B3B" stroke="none" d="
M 806.85 208.7
Q 804.4 208.35 802.4 209.85 800.4 211.35 800.1 213.8 799.75 216.25 801.2 218.2 806.65 225.45 814.55 229.4 822.45 233.35 831.45 233.35 840.5 233.35 848.4 229.4 856.3 225.45 861.7 218.2 863.2 216.25 862.85 213.8 862.5 211.35 860.55 209.85 858.55 208.35 856.1 208.7 853.65 209.05 852.15 211.05 848.45 216 843.05 218.7 837.6 221.4 831.45 221.4 825.3 221.4 819.9 218.7 814.5 215.95 810.8 211.05 809.3 209.05 806.85 208.7 Z"/>
</g>

<g id="Layer0_0_MEMBER_2_FILL">
<path fill="#3B3B3B" stroke="none" d="
M 818.55 157.7
Q 818.55 152.8 815.1 149.35 811.6 145.9 806.7 145.9 801.85 145.9 798.35 149.35 794.9 152.85 794.9 157.7 794.9 162.6 798.35 166.1 801.8 169.55 806.7 169.55 811.6 169.55 815.1 166.1 818.55 162.6 818.55 157.7 Z"/>
</g>

<g id="Layer0_0_MEMBER_3_FILL">
<path fill="#3B3B3B" stroke="none" d="
M 849.8 149.35
Q 846.35 152.8 846.35 157.7 846.35 162.6 849.8 166.1 853.25 169.55 858.15 169.55 863.05 169.55 866.5 166.1 869.95 162.6 869.95 157.7 869.95 152.8 866.5 149.35 863.05 145.9 858.15 145.9 853.25 145.9 849.8 149.35 Z"/>
</g>

<path id="Layer0_0_MEMBER_4_1_STROKES" stroke="#3B3B3B" stroke-width="11.95" stroke-linejoin="miter" stroke-linecap="butt" stroke-miterlimit="10" fill="none" d="
M 922.65 178.6
Q 922.65 196.95 915.55 213.7 908.7 229.9 896.25 242.4 883.75 254.85 867.55 261.7 850.8 268.8 832.45 268.8 814.1 268.8 797.3 261.7 781.1 254.85 768.65 242.4 756.15 229.9 749.3 213.7 742.2 196.95 742.2 178.6 742.2 160.25 749.3 143.45 756.15 127.3 768.65 114.8 781.15 102.3 797.3 95.45 814.1 88.35 832.45 88.35 850.8 88.35 867.55 95.45 883.75 102.3 896.25 114.8 908.7 127.25 915.55 143.45 922.65 160.25 922.65 178.6 Z"/>
</defs>

<g transform="matrix( 1, 0, 0, 1, -720.5,-66.65) ">
<use xlink:href="#Layer0_0_MEMBER_0_FILL"/>
</g>

<g transform="matrix( 1, 0, 0, 1, -720.5,-66.65) ">
<use xlink:href="#Layer0_0_MEMBER_1_MEMBER_0_FILL"/>
</g>

<g transform="matrix( 1, 0, 0, 1, -720.5,-66.65) ">
<use xlink:href="#Layer0_0_MEMBER_2_FILL"/>
</g>

<g transform="matrix( 1, 0, 0, 1, -720.5,-66.65) ">
<use xlink:href="#Layer0_0_MEMBER_3_FILL"/>
</g>

<g transform="matrix( 1, 0, 0, 1, -720.5,-66.65) ">
<use xlink:href="#Layer0_0_MEMBER_4_1_STROKES"/>
</g>
</svg>
