
<svg xmlns="http://www.w3.org/2000/svg" version="1.1" xmlns:xlink="http://www.w3.org/1999/xlink" preserveAspectRatio="none" x="0px" y="0px" width="223px" height="223px" viewBox="0 0 223 223">
<defs>
<g id="Layer0_0_MEMBER_0_FILL">
<path fill="#FFF749" stroke="none" d="
M 683.1 143.45
Q 676.25 127.25 663.8 114.8 651.3 102.3 635.1 95.45 618.35 88.35 600 88.35 581.65 88.35 564.85 95.45 548.7 102.3 536.2 114.8 523.7 127.3 516.85 143.45 509.75 160.25 509.75 178.6 509.75 196.95 516.85 213.7 523.7 229.9 536.2 242.4 548.65 254.85 564.85 261.7 581.65 268.8 600 268.8 618.35 268.8 635.1 261.7 651.3 254.85 663.8 242.4 676.25 229.9 683.1 213.7 690.2 196.95 690.2 178.6 690.2 160.25 683.1 143.45 Z"/>
</g>

<g id="Layer0_0_MEMBER_1_MEMBER_0_FILL">
<path fill="#3B3B3B" stroke="none" d="
M 624.5 220.6
Q 627 220.6 628.7 218.85 630.45 217.15 630.45 214.65 630.45 212.15 628.7 210.4 626.95 208.65 624.5 208.65
L 573.55 208.65
Q 571.1 208.65 569.3 210.4 567.55 212.2 567.55 214.65 567.55 217.1 569.3 218.85 571.05 220.6 573.55 220.6
L 624.5 220.6 Z"/>
</g>

<g id="Layer0_0_MEMBER_2_FILL">
<path fill="#3B3B3B" stroke="none" d="
M 565.9 149.35
Q 562.45 152.85 562.45 157.7 562.45 162.6 565.9 166.1 569.35 169.55 574.25 169.55 579.15 169.55 582.65 166.1 586.1 162.6 586.1 157.7 586.1 152.8 582.65 149.35 579.15 145.9 574.25 145.9 569.4 145.9 565.9 149.35 Z"/>
</g>

<g id="Layer0_0_MEMBER_3_FILL">
<path fill="#3B3B3B" stroke="none" d="
M 637.5 157.7
Q 637.5 152.8 634.05 149.35 630.6 145.9 625.7 145.9 620.8 145.9 617.3 149.35 613.85 152.8 613.85 157.7 613.85 162.6 617.3 166.1 620.8 169.55 625.7 169.55 630.6 169.55 634.05 166.1 637.5 162.6 637.5 157.7 Z"/>
</g>

<path id="Layer0_0_MEMBER_4_1_STROKES" stroke="#3B3B3B" stroke-width="11.95" stroke-linejoin="miter" stroke-linecap="butt" stroke-miterlimit="10" fill="none" d="
M 690.2 178.6
Q 690.2 196.95 683.1 213.7 676.25 229.9 663.8 242.4 651.3 254.85 635.1 261.7 618.35 268.8 600 268.8 581.65 268.8 564.85 261.7 548.65 254.85 536.2 242.4 523.7 229.9 516.85 213.7 509.75 196.95 509.75 178.6 509.75 160.25 516.85 143.45 523.7 127.3 536.2 114.8 548.7 102.3 564.85 95.45 581.65 88.35 600 88.35 618.35 88.35 635.1 95.45 651.3 102.3 663.8 114.8 676.25 127.25 683.1 143.45 690.2 160.25 690.2 178.6 Z"/>
</defs>

<g transform="matrix( 1, 0, 0, 1, -488.05,-66.65) ">
<use xlink:href="#Layer0_0_MEMBER_0_FILL"/>
</g>

<g transform="matrix( 1, 0, 0, 1, -488.05,-66.65) ">
<use xlink:href="#Layer0_0_MEMBER_1_MEMBER_0_FILL"/>
</g>

<g transform="matrix( 1, 0, 0, 1, -488.05,-66.65) ">
<use xlink:href="#Layer0_0_MEMBER_2_FILL"/>
</g>

<g transform="matrix( 1, 0, 0, 1, -488.05,-66.65) ">
<use xlink:href="#Layer0_0_MEMBER_3_FILL"/>
</g>

<g transform="matrix( 1, 0, 0, 1, -488.05,-66.65) ">
<use xlink:href="#Layer0_0_MEMBER_4_1_STROKES"/>
</g>
</svg>
