
<svg xmlns="http://www.w3.org/2000/svg" version="1.1" xmlns:xlink="http://www.w3.org/1999/xlink" preserveAspectRatio="none" x="0px" y="0px" width="223px" height="223px" viewBox="0 0 223 223">
<defs>
<g id="Layer0_0_MEMBER_0_FILL">
<path fill="#FE8837" stroke="none" d="
M 402.65 95.45
Q 385.85 88.35 367.5 88.35 349.15 88.35 332.4 95.45 316.2 102.3 303.75 114.8 291.25 127.3 284.4 143.45 277.3 160.25 277.3 178.6 277.3 196.95 284.4 213.7 291.25 229.9 303.75 242.4 316.2 254.85 332.4 261.7 349.15 268.8 367.5 268.8 385.85 268.8 402.65 261.7 418.85 254.85 431.3 242.4 443.8 229.9 450.65 213.7 457.75 196.95 457.75 178.6 457.75 160.25 450.65 143.45 443.8 127.25 431.3 114.8 418.85 102.3 402.65 95.45 Z"/>
</g>

<g id="Layer0_0_MEMBER_1_FILL">
<path fill="#3B3B3B" stroke="none" d="
M 353.6 157.7
Q 353.6 152.8 350.15 149.35 346.7 145.9 341.8 145.9 336.9 145.9 333.45 149.35 330 152.8 330 157.7 330 162.6 333.45 166.1 336.9 169.55 341.8 169.55 346.7 169.55 350.15 166.1 353.6 162.6 353.6 157.7 Z"/>
</g>

<g id="Layer0_0_MEMBER_2_FILL">
<path fill="#3B3B3B" stroke="none" d="
M 384.85 149.35
Q 381.4 152.8 381.4 157.7 381.4 162.6 384.85 166.1 388.35 169.55 393.25 169.55 398.15 169.55 401.6 166.1 405.05 162.6 405.05 157.7 405.05 152.85 401.6 149.35 398.15 145.9 393.25 145.9 388.35 145.9 384.85 149.35 Z"/>
</g>

<g id="Layer0_0_MEMBER_3_MEMBER_0_FILL">
<path fill="#3B3B3B" stroke="none" d="
M 366.55 207.9
Q 372.75 207.9 378.15 210.6 383.55 213.3 387.25 218.2 388.75 220.2 391.2 220.55 393.65 220.9 395.6 219.4 397.6 217.95 397.95 215.5 398.3 213.05 396.8 211.05 391.4 203.85 383.5 199.9 375.55 195.9 366.55 195.9 357.55 195.9 349.65 199.9 341.7 203.85 336.3 211.05 334.85 213.05 335.2 215.5 335.5 217.95 337.5 219.4 339.15 220.6 341.1 220.6 344.15 220.6 345.85 218.2 349.55 213.3 355 210.6 360.4 207.9 366.55 207.9 Z"/>
</g>

<path id="Layer0_0_MEMBER_4_1_STROKES" stroke="#3B3B3B" stroke-width="11.95" stroke-linejoin="miter" stroke-linecap="butt" stroke-miterlimit="10" fill="none" d="
M 457.75 178.6
Q 457.75 196.95 450.65 213.7 443.8 229.9 431.3 242.4 418.85 254.85 402.65 261.7 385.85 268.8 367.5 268.8 349.15 268.8 332.4 261.7 316.2 254.85 303.75 242.4 291.25 229.9 284.4 213.7 277.3 196.95 277.3 178.6 277.3 160.25 284.4 143.45 291.25 127.3 303.75 114.8 316.2 102.3 332.4 95.45 349.15 88.35 367.5 88.35 385.85 88.35 402.65 95.45 418.85 102.3 431.3 114.8 443.8 127.25 450.65 143.45 457.75 160.25 457.75 178.6 Z"/>
</defs>

<g transform="matrix( 1, 0, 0, 1, -255.6,-66.65) ">
<use xlink:href="#Layer0_0_MEMBER_0_FILL"/>
</g>

<g transform="matrix( 1, 0, 0, 1, -255.6,-66.65) ">
<use xlink:href="#Layer0_0_MEMBER_1_FILL"/>
</g>

<g transform="matrix( 1, 0, 0, 1, -255.6,-66.65) ">
<use xlink:href="#Layer0_0_MEMBER_2_FILL"/>
</g>

<g transform="matrix( 1, 0, 0, 1, -255.6,-66.65) ">
<use xlink:href="#Layer0_0_MEMBER_3_MEMBER_0_FILL"/>
</g>

<g transform="matrix( 1, 0, 0, 1, -255.6,-66.65) ">
<use xlink:href="#Layer0_0_MEMBER_4_1_STROKES"/>
</g>
</svg>
