
<svg xmlns="http://www.w3.org/2000/svg" version="1.1" xmlns:xlink="http://www.w3.org/1999/xlink" preserveAspectRatio="none" x="0px" y="0px" width="223px" height="223px" viewBox="0 0 223 223">
<defs>
<g id="Layer0_0_MEMBER_0_FILL">
<path fill="#FD1F2F" stroke="none" d="
M 225.3 178.6
Q 225.3 160.25 218.2 143.45 211.35 127.25 198.85 114.8 186.4 102.3 170.2 95.45 153.4 88.35 135.05 88.35 116.7 88.35 99.95 95.45 83.75 102.3 71.3 114.8 58.8 127.25 51.95 143.45 44.85 160.25 44.85 178.6 44.85 196.95 51.95 213.7 58.8 229.9 71.3 242.4 83.75 254.85 99.95 261.7 116.7 268.8 135.05 268.8 153.4 268.8 170.2 261.7 186.4 254.85 198.85 242.4 211.35 229.9 218.2 213.7 225.3 196.95 225.3 178.6 Z"/>
</g>

<g id="Layer0_0_MEMBER_1_FILL">
<path fill="#3B3B3B" stroke="none" d="
M 121.15 157.7
Q 121.15 152.8 117.7 149.35 114.25 145.9 109.35 145.9 104.45 145.9 101 149.35 97.55 152.8 97.55 157.7 97.55 162.6 101 166.1 104.45 169.55 109.35 169.55 114.25 169.55 117.7 166.1 121.15 162.6 121.15 157.7 Z"/>
</g>

<g id="Layer0_0_MEMBER_2_FILL">
<path fill="#3B3B3B" stroke="none" d="
M 172.6 157.7
Q 172.6 152.85 169.15 149.35 165.7 145.9 160.8 145.9 155.9 145.9 152.4 149.35 148.95 152.8 148.95 157.7 148.95 162.6 152.4 166.1 155.9 169.55 160.8 169.55 165.7 169.55 169.15 166.1 172.6 162.6 172.6 157.7 Z"/>
</g>

<g id="Layer0_0_MEMBER_4_MEMBER_0_FILL">
<path fill="#3B3B3B" stroke="none" d="
M 168.7 137.25
Q 171.8 137.4 174.15 135.35 176.45 133.25 176.6 130.15 176.75 127.05 174.7 124.7 172.6 122.4 169.5 122.2 149.6 121.15 139.65 138.4 138.1 141.1 138.85 144.1 139.65 147.1 142.35 148.65 144.15 149.7 146.1 149.7 148.1 149.7 149.85 148.75 151.6 147.7 152.65 145.95 155.5 141 159.25 139 163 136.95 168.7 137.25 Z"/>
</g>

<g id="Layer0_0_MEMBER_5_MEMBER_0_FILL">
<path fill="#3B3B3B" stroke="none" d="
M 131.3 144.1
Q 132.1 141.1 130.5 138.4 120.5 121.15 100.65 122.2 97.55 122.4 95.45 124.7 93.35 127.05 93.55 130.15 93.7 133.25 96 135.35 98.35 137.4 101.45 137.25 107.1 136.95 110.85 139 114.6 141 117.5 145.95 118.55 147.75 120.3 148.75 122 149.7 124 149.7 126 149.7 127.8 148.65 130.5 147.1 131.3 144.1 Z"/>
</g>

<g id="Layer0_0_MEMBER_6_MEMBER_0_FILL">
<path fill="#3B3B3B" stroke="none" d="
M 135.05 205.1
Q 146.3 205.1 156.15 209.55 165.95 214 172.65 222.05 174.45 224.25 177.25 224.25 179.45 224.25 181.05 222.85 182.95 221.3 183.2 218.8 183.45 216.35 181.85 214.45 173.45 204.3 161.2 198.7 148.95 193.15 135.05 193.15 121.15 193.15 108.95 198.7 96.7 204.3 88.3 214.45 86.7 216.35 86.95 218.8 87.15 221.25 89.05 222.85 90.95 224.45 93.45 224.2 95.95 223.95 97.5 222.05 104.2 214 114 209.55 123.85 205.1 135.05 205.1 Z"/>
</g>

<path id="Layer0_0_MEMBER_3_1_STROKES" stroke="#3B3B3B" stroke-width="11.95" stroke-linejoin="miter" stroke-linecap="butt" stroke-miterlimit="10" fill="none" d="
M 225.3 178.6
Q 225.3 196.95 218.2 213.7 211.35 229.9 198.85 242.4 186.4 254.85 170.2 261.7 153.4 268.8 135.05 268.8 116.7 268.8 99.95 261.7 83.75 254.85 71.3 242.4 58.8 229.9 51.95 213.7 44.85 196.95 44.85 178.6 44.85 160.25 51.95 143.45 58.8 127.25 71.3 114.8 83.75 102.3 99.95 95.45 116.7 88.35 135.05 88.35 153.4 88.35 170.2 95.45 186.4 102.3 198.85 114.8 211.35 127.25 218.2 143.45 225.3 160.25 225.3 178.6 Z"/>
</defs>

<g transform="matrix( 1, 0, 0, 1, -23.15,-66.65) ">
<use xlink:href="#Layer0_0_MEMBER_0_FILL"/>
</g>

<g transform="matrix( 1, 0, 0, 1, -23.15,-66.65) ">
<use xlink:href="#Layer0_0_MEMBER_1_FILL"/>
</g>

<g transform="matrix( 1, 0, 0, 1, -23.15,-66.65) ">
<use xlink:href="#Layer0_0_MEMBER_2_FILL"/>
</g>

<g transform="matrix( 1, 0, 0, 1, -23.15,-66.65) ">
<use xlink:href="#Layer0_0_MEMBER_3_1_STROKES"/>
</g>

<g transform="matrix( 1, 0, 0, 1, -23.15,-66.65) ">
<use xlink:href="#Layer0_0_MEMBER_4_MEMBER_0_FILL"/>
</g>

<g transform="matrix( 1, 0, 0, 1, -23.15,-66.65) ">
<use xlink:href="#Layer0_0_MEMBER_5_MEMBER_0_FILL"/>
</g>

<g transform="matrix( 1, 0, 0, 1, -23.15,-66.65) ">
<use xlink:href="#Layer0_0_MEMBER_6_MEMBER_0_FILL"/>
</g>
</svg>
