<svg xmlns="http://www.w3.org/2000/svg" height="610.81998pt" version="1.1" viewBox="1 1 610.81998 610.81998" width="610.81998pt">
<g id="surface1">
<path d="M 519.351562 305.5 C 519.351562 423.605469 423.605469 519.351562 305.5 519.351562 C 187.394531 519.351562 91.648438 423.605469 91.648438 305.5 C 91.648438 187.394531 187.394531 91.648438 305.5 91.648438 C 423.605469 91.648438 519.351562 187.394531 519.351562 305.5 Z M 519.351562 305.5 " style=" stroke:none;fill-rule:nonzero;fill:rgb(98.039216%,70.196078%,28.627451%);fill-opacity:1;" />
<path d="M 295.316406 0 L 315.683594 0 L 315.683594 61.101562 L 295.316406 61.101562 Z M 295.316406 0 " style=" stroke:none;fill-rule:nonzero;fill:rgb(98.039216%,70.196078%,28.627451%);fill-opacity:1;" />
<path d="M 295.316406 549.898438 L 315.683594 549.898438 L 315.683594 611 L 295.316406 611 Z M 295.316406 549.898438 " style=" stroke:none;fill-rule:nonzero;fill:rgb(98.039216%,70.196078%,28.627451%);fill-opacity:1;" />
<path d="M 179.171875 27.152344 L 197.988281 19.359375 L 221.367188 75.820312 L 202.550781 83.609375 Z M 179.171875 27.152344 " style=" stroke:none;fill-rule:nonzero;fill:rgb(98.039216%,70.196078%,28.627451%);fill-opacity:1;" />
<path d="M 389.601562 535.183594 L 408.417969 527.394531 L 431.800781 583.851562 L 412.984375 591.644531 Z M 389.601562 535.183594 " style=" stroke:none;fill-rule:nonzero;fill:rgb(98.039216%,70.196078%,28.627451%);fill-opacity:1;" />
<path d="M 82.277344 96.6875 L 96.679688 82.285156 L 139.875 125.480469 L 125.476562 139.882812 Z M 82.277344 96.6875 " style=" stroke:none;fill-rule:nonzero;fill:rgb(98.039216%,70.196078%,28.627451%);fill-opacity:1;" />
<path d="M 471.105469 485.515625 L 485.507812 471.113281 L 528.703125 514.308594 L 514.300781 528.710938 Z M 471.105469 485.515625 " style=" stroke:none;fill-rule:nonzero;fill:rgb(98.039216%,70.196078%,28.627451%);fill-opacity:1;" />
<path d="M 19.347656 198.003906 L 27.140625 179.1875 L 83.601562 202.566406 L 75.808594 221.382812 Z M 19.347656 198.003906 " style=" stroke:none;fill-rule:nonzero;fill:rgb(98.039216%,70.196078%,28.627451%);fill-opacity:1;" />
<path d="M 527.382812 408.441406 L 535.171875 389.625 L 591.632812 413.003906 L 583.839844 431.820312 Z M 527.382812 408.441406 " style=" stroke:none;fill-rule:nonzero;fill:rgb(98.039216%,70.196078%,28.627451%);fill-opacity:1;" />
<path d="M 0 295.316406 L 61.101562 295.316406 L 61.101562 315.683594 L 0 315.683594 Z M 0 295.316406 " style=" stroke:none;fill-rule:nonzero;fill:rgb(98.039216%,70.196078%,28.627451%);fill-opacity:1;" />
<path d="M 549.898438 295.316406 L 611 295.316406 L 611 315.683594 L 549.898438 315.683594 Z M 549.898438 295.316406 " style=" stroke:none;fill-rule:nonzero;fill:rgb(98.039216%,70.196078%,28.627451%);fill-opacity:1;" />
<path d="M 19.34375 412.984375 L 75.796875 389.589844 L 83.59375 408.40625 L 27.140625 431.796875 Z M 19.34375 412.984375 " style=" stroke:none;fill-rule:nonzero;fill:rgb(98.039216%,70.196078%,28.627451%);fill-opacity:1;" />
<path d="M 527.367188 202.566406 L 583.820312 179.175781 L 591.617188 197.988281 L 535.164062 221.378906 Z M 527.367188 202.566406 " style=" stroke:none;fill-rule:nonzero;fill:rgb(98.039216%,70.196078%,28.627451%);fill-opacity:1;" />
<path d="M 82.277344 514.308594 L 125.476562 471.113281 L 139.875 485.515625 L 96.679688 528.710938 Z M 82.277344 514.308594 " style=" stroke:none;fill-rule:nonzero;fill:rgb(98.039216%,70.196078%,28.627451%);fill-opacity:1;" />
<path d="M 471.105469 125.484375 L 514.300781 82.289062 L 528.703125 96.6875 L 485.507812 139.882812 Z M 471.105469 125.484375 " style=" stroke:none;fill-rule:nonzero;fill:rgb(98.039216%,70.196078%,28.627451%);fill-opacity:1;" />
<path d="M 179.144531 583.851562 L 202.535156 527.402344 L 221.347656 535.199219 L 197.957031 591.648438 Z M 179.144531 583.851562 " style=" stroke:none;fill-rule:nonzero;fill:rgb(98.039216%,70.196078%,28.627451%);fill-opacity:1;" />
<path d="M 389.601562 75.820312 L 412.996094 19.367188 L 431.808594 27.164062 L 408.417969 83.617188 Z M 389.601562 75.820312 " style=" stroke:none;fill-rule:nonzero;fill:rgb(98.039216%,70.196078%,28.627451%);fill-opacity:1;" />
<path d="M 305.5 407.230469 C 288.617188 407.261719 272.179688 401.824219 258.65625 391.722656 L 270.875 375.429688 C 291.425781 390.703125 319.570312 390.703125 340.121094 375.429688 L 352.34375 391.722656 C 338.820312 401.824219 322.382812 407.261719 305.5 407.230469 Z M 305.5 407.230469 " style=" stroke:none;fill-rule:nonzero;fill:rgb(90.196078%,54.117647%,0%);fill-opacity:1;" />
<path d="M 515.367188 264.765625 C 514.011719 257.851562 512.34375 251.070312 510.378906 244.398438 L 444.1875 244.398438 C 436.835938 237.871094 427.355469 234.246094 417.515625 234.21875 L 193.484375 234.21875 C 183.644531 234.246094 174.15625 237.863281 166.804688 244.398438 L 100.613281 244.398438 C 98.625 251.058594 96.957031 257.851562 95.621094 264.765625 L 154.175781 264.765625 C 153.269531 268.085938 152.789062 271.507812 152.75 274.949219 L 152.75 295.316406 C 152.75 329.066406 180.101562 356.417969 213.851562 356.417969 L 224.035156 356.417969 C 257.78125 356.417969 285.132812 329.066406 285.132812 295.316406 L 325.867188 295.316406 C 325.867188 329.066406 353.21875 356.417969 386.96875 356.417969 L 397.148438 356.417969 C 430.898438 356.417969 458.25 329.066406 458.25 295.316406 L 458.25 274.949219 C 458.210938 271.507812 457.722656 268.085938 456.816406 264.765625 Z M 285.132812 274.949219 L 285.132812 254.582031 L 325.867188 254.582031 L 325.867188 274.949219 Z M 285.132812 274.949219 " style=" stroke:none;fill-rule:nonzero;fill:rgb(87.843137%,30.588235%,17.647059%);fill-opacity:1;" />
</g>
</svg>