
<svg xmlns="http://www.w3.org/2000/svg" version="1.1" xmlns:xlink="http://www.w3.org/1999/xlink" preserveAspectRatio="none" x="0px" y="0px" width="165px" height="137px" viewBox="0 0 165 137">
<defs>
<g id="Layer0_0_FILL">
<path fill="#FF3333" stroke="none" d="
M 139.9 37.1
Q 136.95 25.5 127.3 19.3 120.9 15.2 112.35 14.1 109.85 13.8 108.05 13.75 105.75 13.75 103.8 14.15 100.5 14.9 97.1 16.8 93.55 18.75 90.55 21.55 87.4 24.55 85.45 28 83.3 31.75 82.85 35.65 82.45 31.65 80.4 28.1 75.9 20.4 67.25 16.05 65.2 15.05 63.35 14.5 61.25 13.85 59.3 13.8 52.05 13.55 45 16.1 34.5 19.9 29.2 28.95 25.8 34.7 24.75 42.45 23.5 52.05 26 60.7 27.4 65.55 29.7 70.35 31.85 74.75 34.85 79.3 38.7 85.05 43.55 90.7 47.95 95.75 53.45 101.05 66.35 113.45 81.95 123.9 82.5 124.2 82.85 124.2 83.25 124.2 83.8 123.9 92.4 118.1 100.2 111.75 107.75 105.55 113.8 99.6 120.65 92.9 126.05 86 129.7 81.4 132.4 76.9 135.45 71.95 137.6 66.95 143.8 52.25 139.9 37.1
M 97.3 41.7
Q 97.3 41 97.3 40.6 97.3 40 97.3 39.6 97.25 39.2 97.4 39.1 97.55 39 97.85 39 99.55 39.05 101.65 39.05 101.9 39.05 102 39.1 102.1 39.2 102.1 39.5 102.1 41.5 102.15 43.75 102.15 44.05 102.05 44.15 101.9 44.3 101.65 44.3 99.75 44.25 97.8 44.3 97.5 44.3 97.35 44.15 97.25 44.05 97.25 43.75 97.3 43.55 97.3 41.7
M 116.45 32.45
Q 116.4 31.95 116.6 31.9 116.75 31.8 117.15 32 125.3 35.7 127.9 44.25 129.7 50.25 127.7 56.25 125.7 62.3 120.7 65.8 118.8 67.2 116.45 68.05 116.45 63.8 116.45 63.3 116.45 63 116.6 62.9 116.65 62.85 116.95 62.65 120.1 60.7 121.85 57.35 123.6 54.15 123.7 50.4 123.85 46.65 122.4 43.4 120.8 39.9 117.75 37.75 116.95 37.2 116.65 36.6 116.35 36.05 116.4 35.15 116.55 34.2 116.45 32.45
M 105.1 46.75
Q 105.1 46.4 105.25 46.25 105.4 46.1 105.8 46.1 106.45 46.15 110.05 46.15 113.65 46.15 114.35 46.1 114.7 46.1 114.85 46.25 115 46.4 115 46.75 114.95 48.15 115 50.1 115 50.4 114.85 50.55 114.75 50.7 114.4 50.7 110.1 50.65 105.8 50.7 105.4 50.7 105.25 50.55 105.1 50.4 105.1 50.05 105.2 48.35 105.1 46.75
M 102.15 53.85
Q 102.15 54.1 102.15 56.1 102.15 56.15 102.2 57.35 102.3 58.1 101.95 58.4 101.65 58.7 100.85 58.65 99.95 58.55 99.55 58.55 98.35 58.55 97.8 58.55 97.5 58.55 97.4 58.45 97.3 58.35 97.3 58.1 97.3 55.6 97.25 53.75 97.25 53.5 97.4 53.4 97.55 53.3 97.8 53.3 100.65 53.3 101.65 53.3 101.9 53.3 102.05 53.45 102.15 53.55 102.15 53.85 Z"/>
</g>
</defs>

<g transform="matrix( 1, 0, 0, 1, 0,0) ">
<use xlink:href="#Layer0_0_FILL"/>
</g>
</svg>
