
<svg xmlns="http://www.w3.org/2000/svg" version="1.1" xmlns:xlink="http://www.w3.org/1999/xlink" preserveAspectRatio="none" x="0px" y="0px" width="165px" height="137px" viewBox="0 0 165 137">
<defs>
<g id="Layer0_0_FILL">
<path fill="#21B6E0" stroke="none" d="
M 94.5 35.65
Q 94 35.5 93.8 35.4 93.4 35.3 93.1 35.35 94.5 38.75 94.9 41.3 95.4 43.9 94.95 45.95 94.8 45.8 94.75 45.65 94.65 45.55 94.6 45.3 93.8 43.5 93 42.25 92.05 40.65 90.9 39.45 89.5 37.95 88.05 37.1 86.4 36.15 84.5 36 81.4 35.75 78.65 37.6 76.15 39.25 75 41.9 74.9 42.25 74.75 42.35 74.65 42.6 74.55 42.75 74.25 38.75 74.2 37.35 74.15 36.65 74 36.55 73.9 36.5 73.25 36.8 73.1 36.85 72.8 37 67.8 39.35 63.7 43.75 63.4 44.05 63.1 44.4 62.7 44.95 62.55 45.15 63.1 42.35 64.8 40.15 66.4 38.1 68.95 36.5 68.8 36.4 68.6 36.5 68.5 36.55 68.4 36.6 61.35 39.35 55.45 44.05 39.35 57 33.2 77 30.05 87.5 31.5 97 33.05 106.7 39.85 113.6 42.8 116.65 46.65 119.05 50.15 121.25 54.45 122.85 60.35 125.15 67.05 126.3 73 127.4 80.05 127.55 90.75 127.9 100.25 126.05 105.8 124.9 110.4 123.2 115.55 121.3 119.85 118.5 129.55 112.15 132.95 102.15 134.45 97.45 134.65 92.25 134.75 87.55 133.75 82.25 132 72.95 127 63.95 120.55 52.4 110.85 44.55 103.15 38.35 94.5 35.65
M 84.35 56.95
Q 84.35 57.65 84.35 59.1 84.35 60.6 84.35 61.25 84.35 61.6 84.45 61.65 84.55 61.85 84.85 61.95 89.85 62.8 92.7 67.6 92.9 67.85 92.85 68 92.85 68.2 92.55 68.35 91.05 69.3 89.85 70.15 89.6 70.3 89.4 70.3 89.2 70.25 89.1 69.95 88.15 68.45 87.2 67.6 86.15 66.7 84.8 66.3 84.5 66.2 84.45 66.3 84.35 66.3 84.35 66.6 84.35 73.6 84.35 79.25 84.35 79.5 84.5 79.6 84.55 79.7 84.85 79.8 88.15 81.3 90.3 82.9 92.7 84.6 93.75 87.05 94.65 89.4 94.4 92.4 94.05 96.45 91.4 99.45 88.85 102.3 85 103.3 84.6 103.35 84.5 103.55 84.35 103.7 84.35 104.15 84.35 105 84.35 106.5 84.35 108.3 84.35 108.85 84.35 109.2 84.25 109.3 84.15 109.45 83.85 109.45 82.55 109.4 81.2 109.45 80.95 109.45 80.85 109.3 80.7 109.2 80.7 108.85 80.7 108.1 80.7 106.6 80.7 105 80.7 104.3 80.7 104 80.6 103.85 80.55 103.7 80.15 103.65 74.55 103.15 71.4 98.9 69.9 96.8 69.05 93.65 69 93.4 69.1 93.3 69.15 93.15 69.4 93.05 71.55 92.5 72.75 92.15 73.2 92 73.35 92.15 73.5 92.2 73.6 92.6 74.3 95.4 75.85 97.1 77.45 98.85 79.95 99.3 80.45 99.35 80.55 99.2 80.7 99.1 80.7 98.65 80.7 97.4 80.7 91.05 80.7 84.75 80.7 83.5 80.7 83.1 80.55 82.9 80.5 82.75 80.15 82.6 77.9 81.65 76.55 80.8 74.65 79.7 73.35 78.3 71.95 76.9 71.4 75 70.9 73.3 71.1 71.2 71.35 67.6 73.85 65.05 76.15 62.75 79.85 61.95 80.4 61.8 80.55 61.6 80.75 61.35 80.7 60.8 80.7 60.1 80.7 58.85 80.7 57.45 80.7 56.9 80.7 56.45 80.85 56.35 81 56.2 81.4 56.2 82.65 56.3 83.7 56.2 84.1 56.2 84.25 56.35 84.35 56.5 84.35 56.95
M 80.7 66.6
Q 80.7 66.3 80.55 66.25 80.5 66.2 80.2 66.25 78.75 66.75 77.6 67.7 76 69.1 75.75 71.4 75.5 73.65 76.75 75.25 77.5 76.15 78.55 76.85 79.4 77.4 80.7 77.95
L 80.7 66.6
M 87.1 86.15
Q 86.3 85.55 85.05 84.9 84.5 84.6 84.45 84.65 84.35 84.7 84.35 85.3
L 84.35 91.75
Q 84.35 97.6 84.35 98.35 84.35 98.8 84.45 98.85 84.55 98.95 85 98.8 86.55 97.95 87.55 97 89.4 95.1 89.75 92.5 90.1 89.8 88.75 87.85 88.1 86.9 87.1 86.15
M 104.75 12.7
Q 104.45 12.45 104.05 12.2 101.85 10.8 99.1 10.55 98 10.5 97.5 10.5 96.6 10.6 96.1 11.2 95.6 11.7 94.95 12.05 94.4 12.35 93.65 12.55 91.75 13.1 89.4 13.15 86.85 13.25 85 13 82.65 12.7 80.7 11.8 79.05 11 76.85 10.7 70.8 9.9 63.95 11.15 62.55 11.4 61.6 11.65 60.35 12.05 59.35 12.6 59.05 12.8 59 13.05 58.9 13.2 59.1 13.6 60.95 18.15 64.3 24.55 66.9 29.5 69.25 33.1 69.35 33.4 69.45 33.45 69.65 33.6 69.9 33.45 71.4 32.65 73.25 32.3 73.5 32.2 73.55 32.05 73.65 31.9 73.5 31.65 73.3 31 73.1 30.05 72.7 28.65 72.55 28.1 72.4 27 72.35 26.1 74.55 28.7 76 30.7 76.45 31.25 76.85 31.45 77.25 31.65 77.9 31.5 78.35 31.4 79.25 31.4 79.75 31.45 80 31.25 80.25 31.1 80.45 30.6
L 80.85 29.45
Q 81.2 28.75 81.5 28.2 82.55 30.2 82.85 30.95 83 31.2 83.15 31.3 83.3 31.45 83.6 31.45 85.1 31.45 86.1 31.65 86.5 31.65 86.75 31.55 87 31.45 87.25 31.15 89.5 28.9 91.5 26.9
L 95.4 23.15 95.55 23.25
Q 95.25 23.95 94 27.65 93.1 30.4 92.3 32 92.15 32.3 92.2 32.45 92.2 32.6 92.55 32.65 92.95 32.65 93.35 32.8 93.65 32.9 94.15 33.05 94.5 33.1 95.15 33.35 95.7 33.6 95.9 33.45 96.2 33.3 96.45 32.8 96.55 32.5 96.85 31.9 99.8 26.35 101.2 23.7 103.55 19.1 105.35 15.4 105.8 14.4 105.75 13.9 105.6 13.45 104.75 12.7 Z"/>
</g>
</defs>

<g transform="matrix( 1, 0, 0, 1, 0,0) ">
<use xlink:href="#Layer0_0_FILL"/>
</g>
</svg>
