
<svg xmlns="http://www.w3.org/2000/svg" version="1.1" xmlns:xlink="http://www.w3.org/1999/xlink" preserveAspectRatio="none" x="0px" y="0px" width="165px" height="137px" viewBox="0 0 165 137">
<defs>
<g id="Layer0_0_FILL">
<path fill="#FBCA38" stroke="none" d="
M 46.55 84.9
Q 46.4 84.4 46.1 84
L 46.1 105.1
Q 46.6 104.85 46.65 104.35 46.75 104.1 46.75 103.5
L 46.75 89.85
Q 46.75 89.15 46.8 87.8 46.75 86.6 46.65 85.75 46.65 85.2 46.55 84.9
M 42 82.6
Q 42 82.35 41.85 82.35 41.2 82.25 40.7 82.4 40.5 82.45 40.5 82.7 40.5 82.95 40.5 83.1
L 40.5 105.65
Q 40.5 105.95 40.5 106.05 40.5 106.25 40.7 106.35 41.15 106.65 41.55 106.4 42 106.15 42 105.55
L 42 82.9
Q 42 82.85 42 82.6
M 43.85 81.15
Q 43.55 81.15 43.4 81.45 43.3 81.7 43.35 82.05
L 43.35 105.4
Q 43.35 106.1 43.45 106.15 43.6 106.25 44.3 106.1 44.65 105.95 44.7 105.7 44.75 105.6 44.75 105.1
L 44.75 82.05
Q 44.7 81.65 44.45 81.4 44.2 81.15 43.85 81.15
M 36.35 84.25
Q 35.8 85.35 35.8 86.75 35.8 98.15 35.8 103.8 35.8 104.15 35.9 104.4 36 104.75 36.35 104.95
L 36.35 84.25
M 32.95 92.5
Q 32.85 93.5 33.3 94.1 33.7 94.7 34.65 95.05
L 34.65 86.45
Q 33.15 89.7 32.95 92.5
M 38.9 78.95
Q 38.9 79.9 39.55 80.5 40.15 81.15 41.1 81.15 42.05 81.15 42.7 80.55 43.35 79.9 43.35 78.95 43.35 78.05 42.7 77.4 42.05 76.8 41.15 76.8 40.2 76.8 39.55 77.4 38.95 78.05 38.9 78.95
M 39.2 82.05
Q 39.2 81.6 38.65 81.25 38.45 81.15 38.25 81.3 38.1 81.55 38.05 81.6 37.75 81.75 37.7 82.05 37.7 82.1 37.7 82.55
L 37.7 105.15
Q 37.65 105.3 37.65 105.4 37.65 105.5 37.7 105.55 37.8 106 38.2 106.1 38.45 106.15 38.9 106.15 39.2 106.2 39.25 105.95 39.25 105.8 39.2 105.5
L 39.2 82.05
M 40.3 64.45
Q 40.35 65.15 40.35 66.5 40.35 70.75 40.35 74.95 40.35 75.3 40.45 75.45 40.6 75.6 41 75.6 41.35 75.6 41.45 75.45 41.55 75.3 41.55 74.95 41.55 74.55 41.55 70.05 41.55 67.05 41.45 65.15 41.45 64.75 41.55 64.55 41.65 64.3 42.05 64.25 48.9 62.3 68.4 56.85
L 75.65 54.8
Q 75.25 54.2 74.8 54 74.4 53.9 73.75 54.1 71.55 54.8 68.55 55.65 65.05 56.6 63.3 57.05 44.85 62.25 41.15 63.25 40.7 63.4 40.5 63.7 40.3 64 40.3 64.45
M 89.2 51.6
Q 88.85 51.3 88.15 51.05 82.75 49.2 77.3 51.05 76.55 51.3 76.2 51.6 75.7 51.95 75.7 52.55 75.75 53.2 76.25 53.65 76.6 53.85 77.4 54.2 79.7 55.05 82.65 55.05 84.25 55 85.4 54.9 86.9 54.65 88.1 54.2 88.9 53.85 89.15 53.65 89.75 53.2 89.75 52.6 89.75 52 89.2 51.6
M 116.7 66.95
Q 116.4 66.9 116 67
L 83.55 75.95
Q 82.65 76.2 81.85 75.95 75.2 74.1 71.9 73.2
L 48.9 66.9
Q 48.65 66.8 48.4 66.85 48.15 66.9 47.95 67.1 45 69.9 43.05 72.3 42.8 72.6 42.7 74.15 42.6 75.65 42.75 75.95 42.75 76 42.85 76.05 42.9 76.1 43 76.15 44.7 77.45 44.45 79.5 44.4 79.75 44.5 79.95 44.6 80.1 44.8 80.25 47.35 82.2 47.75 85.4 48 86.9 47.95 89.15 47.9 92 47.95 92.5 47.95 95.1 47.95 96.25 47.95 98.25 47.9 99.6 47.9 100.05 48.05 100.25 48.2 100.4 48.65 100.55 54.8 102.1 61.65 103.15 73.6 104.9 85.45 104.65 95.05 104.4 105.55 102.65 111.55 101.6 116.35 100.4 122 99.05 126.85 97.25 128.55 96.6 129.55 96.15 130.95 95.45 131.95 94.65 132.35 94.3 132.5 93.95 132.65 93.55 132.6 93.05 132.4 91.4 131.85 89.55 131.4 88.15 130.55 86.25 126.05 75.85 117.3 67.25 117.05 66.95 116.7 66.95
M 121.05 41.95
Q 95.85 35.05 83.25 31.6 82.65 31.4 82.25 31.55
L 5.85 52.5
Q 5.9 52.65 6.05 52.7 6.1 52.75 6.25 52.8
L 40 62.05
Q 40.7 62.25 41.25 62.1
L 73.6 53
Q 73.75 52.95 74.1 52.9 74.4 52.8 74.45 52.5 74.6 51.3 75.6 50.6 76.2 50.1 77.55 49.7 81.9 48.35 87.05 49.45 88.05 49.7 88.75 50 89.7 50.4 90.35 51.05 91 51.7 90.95 52.6 90.95 53.55 90.3 54.2 89.45 55.05 88 55.5 83.25 57 78.05 55.7 77.7 55.6 77.45 55.6 77.15 55.55 76.8 55.65 75.25 56.1 55.35 61.65
L 47.3 63.95
Q 47.8 64.2 47.85 64.2
L 81.6 73.5
Q 82.7 73.8 83.85 73.5 87.2 72.55 97.05 69.85
L 155.3 53.85
Q 156.8 53.5 159.85 52.6
L 121.05 41.95 Z"/>
</g>
</defs>

<g transform="matrix( 1, 0, 0, 1, 0,0) ">
<use xlink:href="#Layer0_0_FILL"/>
</g>
</svg>
