
<svg xmlns="http://www.w3.org/2000/svg" version="1.1" xmlns:xlink="http://www.w3.org/1999/xlink" preserveAspectRatio="none" x="0px" y="0px" width="165px" height="137px" viewBox="0 0 165 137">
<defs>
<g id="Layer0_0_FILL">
<path fill="#E98836" stroke="none" d="
M 131.05 38.75
Q 130.3 38.75 129.9 38.75
L 32.55 38.75
Q 31.25 38.75 30.95 38.75 28.95 38.8 27.6 40.15 26.25 41.5 26.25 43.5
L 26.25 109.6
Q 26.25 110.35 26.3 110.45 26.35 110.5 27.1 110.5
L 134.9 110.5
Q 135.7 110.5 135.75 110.45 135.85 110.35 135.85 109.5
L 135.85 44.5
Q 135.85 43.5 135.8 43.3 135.75 41.7 134.8 40.45 133.75 39.2 132.2 38.85 131.7 38.75 131.05 38.75
M 132.15 36.65
Q 133.4 36.65 134.2 37 135.65 37.55 136.45 38.8 137.25 40.05 137.25 41.75
L 137.25 106.85
Q 137.25 107.25 137.25 107.45 137.25 107.7 137.25 107.95 137.25 108.2 137.35 108.3 137.5 108.4 137.75 108.35 138.35 108.25 138.8 107.75 139.25 107.3 139.35 106.5 139.5 105.3 139.5 104.45
L 139.5 39.35
Q 139.5 38.35 139.5 38.15 139.4 35.55 137.15 34.15 136.5 33.75 135.65 33.6 135 33.45 134.05 33.45
L 79.75 33.45
Q 78.8 33.45 78.3 33.4 77.45 33.3 77 32.8 76.55 32.3 76.55 31.4 76.55 31.2 76.55 30.45 76.55 29.8 76.55 29.45 76.55 28.6 76 28.1 75.55 27.6 74.7 27.5 74.55 27.45 74.05 27.45
L 40.45 27.45
Q 39.6 27.45 39.1 27.5 38.3 27.55 37.85 28.05 37.35 28.55 37.35 29.3 37.3 29.55 37.3 31.15 37.3 32.35 36.8 32.85 36.3 33.35 35.1 33.45 33.95 33.5 33.1 33.75 32.05 34.05 31.35 34.8 30.2 35.9 30 37.25 30.05 37.25 30.15 37.25 30.2 37.2 30.25 37.2 31.3 36.65 32.75 36.65
L 132.15 36.65 Z"/>
</g>
</defs>

<g transform="matrix( 1, 0, 0, 1, 0,0) ">
<use xlink:href="#Layer0_0_FILL"/>
</g>
</svg>
