
<svg xmlns="http://www.w3.org/2000/svg" version="1.1" xmlns:xlink="http://www.w3.org/1999/xlink" preserveAspectRatio="none" x="0px" y="0px" width="165px" height="137px" viewBox="0 0 165 137">
<defs>
<g id="Layer0_0_FILL">
<path fill="#1E3053" stroke="none" d="
M 151.85 58.4
Q 151.85 55.6 149.95 53.7 148.05 51.75 145.15 51.75
L 78 51.75
Q 74.95 51.7 73.05 53.7 71.1 55.6 71.1 58.65
L 71.1 101.15
Q 71.1 102.2 71.3 103.15 71.9 105.4 73.75 106.75 75.55 108.1 78 108.1 94.6 108.1 106.45 108.05 106.95 108.05 107.1 108.2 107.25 108.35 107.3 108.8 107.45 110.35 108 112.15 109.4 116.5 112.4 119.6 115.15 122.5 119.5 124.45 123.35 126.15 128 126.95 131.9 127.6 136.95 127.65 136.6 127.55 136.5 127.5
L 136.15 127.4
Q 133.45 126.85 131.3 125.95 128.85 124.85 126.9 123.35 123.4 120.6 121.7 116.8 120.15 113.2 120.1 108.6 120.1 108.15 120.35 108.1 120.4 108.1 120.85 108.1
L 141.25 108.1
Q 142 108.1 143.5 108.1 144.8 108.1 145.7 108.05 148.3 107.9 150.1 106 151.85 104.1 151.85 101.5
L 151.85 58.4
M 119.4 90.7
Q 119.1 90.7 118.5 90.7
L 78.85 90.7
Q 78.05 90.7 77.65 90.4 77.2 90.1 77.15 89.45 77.1 88.9 77.4 88.4 77.75 88 78.35 87.9 78.55 87.85 79.35 87.85 98.95 87.85 118.45 87.85 119.05 87.85 119.4 87.95 119.85 88 120.2 88.4 120.5 88.8 120.5 89.3 120.5 89.8 120.2 90.2 119.9 90.55 119.4 90.7
M 111.5 64.8
L 111.5 64.75 78.85 64.75
Q 78.1 64.75 77.7 64.5 77.25 64.25 77.2 63.65 77.05 63 77.35 62.55 77.7 62.1 78.35 62 78.6 61.95 79.35 61.95
L 143.9 61.95
Q 144.4 61.95 144.65 61.95 145.2 62.05 145.55 62.4 145.85 62.85 145.85 63.35 145.85 63.9 145.5 64.3 145.15 64.7 144.55 64.75 144.45 64.8 143.75 64.8
L 111.5 64.8
M 143.8 70.6
Q 145.85 70.6 145.85 72 145.85 72.75 145.35 73.05 144.9 73.45 143.8 73.45
L 79.2 73.45
Q 78.55 73.45 78.35 73.4 77.8 73.3 77.45 72.95 77.15 72.55 77.15 72 77.15 71.45 77.45 71.05 77.8 70.7 78.35 70.6 78.6 70.6 79.45 70.6
L 143.8 70.6
M 126.5 90.9
Q 126.35 91.05 125.4 91.05 124.65 91.05 124.5 90.9 124.35 90.8 124.35 90 124.35 88.9 124.55 88.75 124.7 88.55 125.7 88.55 126.4 88.55 126.55 88.7 126.65 88.85 126.65 89.75 126.65 90.75 126.5 90.9
M 140.15 88.75
Q 140.3 88.55 141.15 88.55 142.05 88.55 142.2 88.7 142.3 88.9 142.3 89.8 142.3 90.75 142.2 90.9 142.05 91.05 141.1 91.05 140.3 91.05 140.15 90.9 140 90.8 140 89.9 140 88.9 140.15 88.75
M 133.45 88.55
Q 134.25 88.55 134.35 88.7 134.45 88.85 134.45 89.75 134.45 90.75 134.35 90.9 134.2 91.05 133.2 91.05 132.45 91.05 132.35 90.9 132.2 90.8 132.2 90 132.2 88.9 132.35 88.75 132.5 88.55 133.45 88.55
M 145.6 81.5
Q 145.3 81.9 144.8 82 144.5 82.1 143.8 82.1
L 79.7 82.1
Q 79.2 82.1 79 82.1 78.6 82.1 78.35 82.05 77.8 81.95 77.45 81.6 77.15 81.2 77.15 80.65 77.15 80.15 77.45 79.7 77.8 79.35 78.35 79.25 78.6 79.2 79.2 79.2
L 144 79.2
Q 144.45 79.2 144.75 79.3 145.75 79.5 145.85 80.55 145.9 81.05 145.6 81.5
M 94.65 16.75
Q 94.65 14.1 92.75 12.2 90.85 10.3 88.15 10.3
L 20.4 10.3
Q 19.7 10.3 19.3 10.4 16.75 10.85 15.3 12.7 13.85 14.5 13.85 17.2
L 13.85 59.7
Q 13.85 60.65 13.95 61.2 14.4 63.7 16.25 65.2 18.1 66.65 20.75 66.65 39.5 66.65 44.85 66.65 45.35 66.65 45.45 66.8 45.65 66.95 45.6 67.4 45.5 69.8 45.25 71.25 43.35 80.75 33.9 84.65 31.7 85.55 28.35 86.25 32.35 86.25 35.8 85.85 39.6 85.4 43.05 84.25 48.15 82.7 51.65 79.75 57.55 74.95 58.55 67.2 58.6 66.9 58.7 66.75 58.85 66.65 59.2 66.65 61.6 66.65 66.45 66.65 66.8 66.7 66.95 66.55 67.05 66.4 67.05 66.05 67.05 63.55 67.05 58.5 67.05 54.2 69.9 51.05 70 50.9 70.3 50.7
L 70.75 50.35
Q 70.5 50.2 70.2 50.15 69.9 50.15 69.75 50.15
L 22.5 50.15
Q 21.85 50.15 21.7 50.15 21.15 50.05 20.8 49.7 20.5 49.3 20.5 48.75 20.5 48.25 20.75 47.85 21.1 47.5 21.6 47.4 21.95 47.3 22.6 47.3 27.65 47.35 57.95 47.25 79.55 47.2 93.35 47.7 93.45 47.7 93.65 47.7 93.8 47.7 93.9 47.7 94.35 47.75 94.5 47.6 94.65 47.45 94.65 46.95 94.65 36.9 94.65 16.75
M 87.9 21.4
Q 88.5 21.45 88.85 21.85 89.2 22.25 89.2 22.8 89.2 23.4 88.85 23.8 88.5 24.15 87.85 24.2 87.65 24.25 86.45 24.25
L 22.5 24.25
Q 21.45 24.25 21 23.85 20.5 23.55 20.5 22.8 20.5 21.4 22.5 21.4
L 86.9 21.4
Q 87.65 21.4 87.9 21.4
M 88 30.05
Q 88.5 30.15 88.85 30.5 89.2 30.9 89.2 31.45 89.2 32 88.9 32.4 88.55 32.75 88 32.85 87.75 32.9 87.05 32.9
L 22.5 32.9
Q 21.45 32.9 21 32.5 20.5 32.2 20.5 31.45 20.5 30.05 22.5 30.05
L 86.9 30.05
Q 87.7 30.05 88 30.05
M 88.15 41.45
Q 87.9 41.5 87.4 41.5
L 22.25 41.55
Q 21.5 41.55 21.1 41.3 20.75 41.05 20.55 40.55 20.35 39.9 20.7 39.35 21 38.8 21.7 38.7 21.95 38.65 22.6 38.65
L 86.9 38.65
Q 87.75 38.65 88.05 38.75 89.15 38.95 89.15 40 89.2 40.55 88.95 40.95 88.65 41.35 88.15 41.45 Z"/>
</g>
</defs>

<g transform="matrix( 1, 0, 0, 1, 0,0) ">
<use xlink:href="#Layer0_0_FILL"/>
</g>
</svg>
