
<svg xmlns="http://www.w3.org/2000/svg" version="1.1" xmlns:xlink="http://www.w3.org/1999/xlink" preserveAspectRatio="none" x="0px" y="0px" width="165px" height="137px" viewBox="0 0 165 137">
<defs>
<g id="Layer0_0_FILL">
<path fill="#612D64" stroke="none" d="
M 133 43.85
Q 129.1 36.3 122.85 30 106.75 13.95 83.45 13.6 80.8 13.55 77.65 13.95 75.4 14.15 72 14.85 53.95 18.2 41.9 31.15 32.45 41.35 28.9 53.35 25.35 65.4 27.7 79.15 30.6 96.85 44.35 109.65 57.05 121.5 74.4 123.9 84.7 125.3 94.85 123.25 114.1 119.15 126.4 104.05
L 126.4 104.1
Q 134.15 94.5 137.1 83.4 140.05 72.35 138.2 60.15 136.85 51.4 133 43.85
M 121.5 31.3
Q 127.55 37.35 131.35 44.65 135.05 51.95 136.35 60.45 138.1 72.25 135.25 82.95 132.45 93.55 124.9 102.85 113.45 117 95.75 121.05 97.5 120.2 99.05 119.05 102.35 116.6 104.7 113.1 106.85 109.9 108.3 105.75 110.2 100.15 109.95 95 109.7 90.75 108.75 87.3 107.6 83.4 105.35 80.2 98.4 70.4 86.45 69 85.35 68.9 83.55 68.85 81.55 68.8 80.75 68.75 76.75 68.45 73.55 67.45 69.85 66.35 66.9 64.35 63.75 62.25 61.35 59.05 59.15 56.15 57.6 52.35 56.4 49.35 55.95 45.75 55.6 42.2 55.95 38.6 57 30.85 61.25 25.6 63.9 22.4 67.35 20 70.35 17.9 74.05 16.4 76.25 15.95 77.9 15.8 80.9 15.45 83.4 15.5 105.9 15.8 121.5 31.3
M 90.45 70
L 91.15 70.2
Q 90.35 70.15 89 69.85 87.55 69.65 86.95 69.55 84.9 69.3 83.05 69.25 80.3 69.15 78.65 69 76.3 68.75 74.4 68.15 74 68 73.8 67.8 74.8 68.05 76.65 68.45 79.1 68.9 81.9 69 85.3 69.1 86.25 69.2 88.6 69.4 90.45 70
M 88.2 91.6
Q 90.05 93.4 90 95.9 90 98.45 88.2 100.25 86.45 102 83.85 102 81.35 101.95 79.6 100.2 77.85 98.4 77.85 95.9 77.85 93.3 79.65 91.55 81.4 89.8 83.95 89.85 86.5 89.85 88.2 91.6
M 82.85 47.55
Q 85.35 47.6 87.15 45.8 88.95 44.05 88.95 41.5 89 38.95 87.2 37.15 85.45 35.35 82.9 35.35 80.35 35.3 78.55 37.1 76.8 38.9 76.8 41.45 76.75 43.95 78.5 45.75 80.3 47.55 82.85 47.55 Z"/>
</g>
</defs>

<g transform="matrix( 1, 0, 0, 1, 0,0) ">
<use xlink:href="#Layer0_0_FILL"/>
</g>
</svg>
